<?xml version="1.0" standalone="no"?>
<!DOCTYPE svg PUBLIC "-//W3C//DTD SVG 1.1//EN" "http://www.w3.org/Graphics/SVG/1.1/DTD/svg11.dtd" >
<svg>
<metadata>
Created by FontForge 20090914 at Fri Oct 16 22:27:17 2015
 By www-data
&#194;&#169; 2009 Microsoft Corporation. All Rights Reserved. Portions &#194;&#169; 2009 DynaComware Corp. All Rights Reserved. Portions &#194;&#169; 2009 Ascender Corp. All Rights Reserved.
</metadata>
<defs>
<font id="MicrosoftNewTaiLue-Bold" horiz-adv-x="1178" >
  <font-face 
    font-family="Microsoft New Tai Lue"
    font-weight="700"
    font-stretch="normal"
    units-per-em="2048"
    panose-1="2 11 8 2 4 2 4 2 2 3"
    ascent="1638"
    descent="-410"
    x-height="1024"
    cap-height="1434"
    bbox="-219 -780.004 2482 1892"
    underline-thickness="119"
    underline-position="-119"
    unicode-range="U+000D-U+FF64"
  />
<missing-glyph horiz-adv-x="1322" 
d="M166 0v1398h990v-1398h-990zM314 148h694v1102h-694v-1102z" />
    <glyph glyph-name=".notdef" horiz-adv-x="1322" 
d="M166 0v1398h990v-1398h-990zM314 148h694v1102h-694v-1102z" />
    <glyph glyph-name="uni000D" unicode="&#xd;" horiz-adv-x="0" 
 />
    <glyph glyph-name="space" unicode=" " horiz-adv-x="565" 
 />
    <glyph glyph-name="exclam" unicode="!" horiz-adv-x="670" 
d="M500 1434l-39 -988h-256l-37 988h332zM336 -23c-53.333 0 -97.333 16.167 -132 48.5s-52 71.5 -52 117.5c0 48 17.5 87.333 52.5 118s78.833 46 131.5 46c53.333 0 97 -15.5 131 -46.5s51 -70.167 51 -117.5c0 -48 -16.833 -87.667 -50.5 -119s-77.5 -47 -131.5 -47z" />
    <glyph glyph-name="quotedbl" unicode="&#x22;" horiz-adv-x="1010" 
d="M834 1452l-31 -444h-201l-31 444h263zM438 1452l-30 -442h-203l-29 442h262z" />
    <glyph glyph-name="numbersign" unicode="#" horiz-adv-x="1213" 
d="M1176 1069l-39 -180h-185l-55 -248h207l-45 -180h-199l-78 -346h-200l73 346h-229l-74 -346h-200l71 346h-186l37 180h188l53 248h-202l34 180h205l74 356h205l-74 -356h229l76 356h203l-74 -356h185zM750 889h-232l-55 -248h231z" />
    <glyph glyph-name="dollar" unicode="$" 
d="M674 8l-0.000976562 -216.999h-146v211c-135.333 0.666992 -261.333 31.334 -378 92.001v277c38.667 -31.333 96.334 -60.333 173.001 -87s145 -42 205 -46v364c-156 58 -262.5 120.833 -319.5 188.5s-85.5 150.167 -85.5 247.5c0 104.667 37 193.834 111 267.501
s172 116.5 294 128.5v186h146v-182c140.667 -6.66699 245.667 -29.334 315 -68.001v-270c-93.333 56.667 -198.333 91.334 -315 104.001v-379c146 -52.667 250.667 -112.834 314 -180.501s95 -149.5 95 -245.5c0 -110.667 -35.333 -199.834 -106 -267.501
s-171.667 -108.834 -303 -123.501zM527.999 883.001v317c-92.667 -16.667 -139 -65 -139 -145c0 -68.667 46.333 -126 139 -172zM673.999 545.001v-303c95.333 14.667 143 62.334 143 143.001c0 65.333 -47.667 118.666 -143 159.999z" />
    <glyph glyph-name="percent" unicode="%" horiz-adv-x="1776" 
d="M430 707c-102 0 -184.167 32.333 -246.5 97s-93.5 151.667 -93.5 261c0 119.333 33.167 214 99.5 284s154.833 105 265.5 105c106 0 188.833 -31.667 248.5 -95s89.5 -152.333 89.5 -267c0 -118 -33 -211.667 -99 -281s-154 -104 -264 -104zM449 1278
c-97.333 0 -146 -67.667 -146 -203c0 -128 46.333 -192 139 -192c94.667 0 142 66.667 142 200c0 130 -45 195 -135 195zM1477 1434l-934 -1434h-244l932 1434h246zM1323 -20c-102 0 -184.167 32.334 -246.5 97.001s-93.5 151.667 -93.5 261c0 119.333 33.167 214 99.5 284
s154.833 105 265.5 105c106.667 0 189.667 -31.333 249 -94s89 -151.334 89 -266.001c0 -118 -33 -212 -99 -282s-154 -105 -264 -105zM1339 551.001c-96.667 0 -145.001 -67.667 -145.001 -203c0 -128 47 -192 141 -192c94.667 0 142 66.667 142 200
c0 62 -12.667 110 -38 144s-58.666 51 -99.999 51z" />
    <glyph glyph-name="ampersand" unicode="&#x26;" horiz-adv-x="1740" 
d="M1479 -23c-35.333 0 -68.8291 4.66406 -100.496 13.9971s-61.667 22 -90 38s-55.166 34.833 -80.499 56.5s-49.333 44.834 -72 69.501c-24.667 -20 -54.334 -40.667 -89.001 -62s-73.834 -40.5 -117.501 -57.5s-91.834 -31 -144.501 -42s-109 -16.5 -169 -16.5
c-78 0 -150.167 9.33301 -216.5 28s-123.5 46.5 -171.5 83.5s-85.5 82.833 -112.5 137.5s-40.5 118 -40.5 190c0 56.667 10.167 107.167 30.5 151.5s46.833 83.166 79.5 116.499s69.667 62 111 86s83.333 44 126 60c-20.667 16 -41.5 34.5 -62.5 55.5s-39.833 44 -56.5 69
s-30.167 52.167 -40.5 81.5s-15.5 60.333 -15.5 93c0 52.667 10.667 99.334 32 140.001s51.166 75 89.499 103s84.166 49.333 137.499 64s112 22 176 22c61.333 0 117.5 -7.66699 168.5 -23s94.833 -36.666 131.5 -63.999s65 -60.166 85 -98.499s30 -80.5 30 -126.5
c0 -74 -22.167 -138.167 -66.5 -192.5s-106.833 -98.5 -187.5 -132.5c32 -14.667 62.667 -31.334 92 -50.001s58 -40 86 -64s55.333 -51.167 82 -81.5s53 -65.166 79 -104.499c54.667 68.667 93.834 141.834 117.501 219.501s35.5 158.5 35.5 242.5
c0 25.333 -1.5 49.666 -4.5 72.999s-7.83301 45 -14.5 65h269c7.33301 -21.333 12.666 -42 15.999 -62s5 -43.667 5 -71c0 -64.667 -6.83301 -127.667 -20.5 -189s-32.834 -120 -57.501 -176s-54.5 -109 -89.5 -159s-73.5 -96.667 -115.5 -140
c32.667 -34 66.334 -60.167 101.001 -78.5s67.334 -27.5 98.001 -27.5c32 0 64.667 3.5 98 10.5s62.333 16.833 87 29.5v-238c-36.667 -14.667 -72.834 -25.5 -108.501 -32.5s-75.5 -10.5 -119.5 -10.5zM632.004 215.997c39.333 0 76.332 3.83105 110.999 11.498
s67.334 17.834 98.001 30.501s59.167 27.334 85.5 44.001s50.5 34 72.5 52c-34 53.333 -67.667 98.5 -101 135.5s-66.333 68.667 -99 95s-65.167 48.5 -97.5 66.5s-64.833 34.333 -97.5 49c-27.333 -13.333 -53.5 -28.166 -78.5 -44.499s-47.167 -35.333 -66.5 -57
s-34.833 -46.334 -46.5 -74.001s-17.5 -59.5 -17.5 -95.5c0 -32 5.66699 -61 17 -87s27.5 -48.333 48.5 -67s46 -33.167 75 -43.5s61.167 -15.5 96.5 -15.5zM817.003 1124c0 19.333 -3.66699 36.666 -11 51.999s-17.333 28.166 -30 38.499s-27 18.333 -43 24
s-33 8.5 -51 8.5c-22 0 -42.167 -3.33301 -60.5 -10s-34.333 -15.667 -48 -27s-24.167 -24.833 -31.5 -40.5s-11 -32.5 -11 -50.5c0 -37.333 11.667 -71.666 35 -102.999s52.333 -56.666 87 -75.999c22 8 42.833 17.333 62.5 28s37 23.334 52 38.001s27 31.667 36 51
s13.5 41.666 13.5 66.999z" />
    <glyph glyph-name="quotesingle" unicode="'" horiz-adv-x="600" 
d="M430 1452l-31 -442h-200l-29 442h260z" />
    <glyph glyph-name="parenleft" unicode="(" horiz-adv-x="756" 
d="M739 -326h-258c-215.333 237.333 -323 529 -323 875c0 334 107.667 629 323 885h256c-202 -268 -303 -563 -303 -885s101.667 -613.667 305 -875z" />
    <glyph glyph-name="parenright" unicode=")" horiz-adv-x="756" 
d="M274 -326h-256c204 260 306 551.667 306 875c0 320.667 -102 615.667 -306 885h258c216 -256.667 324 -551.667 324 -885c0 -343.333 -108.667 -635 -326 -875z" />
    <glyph glyph-name="asterisk" unicode="*" horiz-adv-x="932" 
d="M864 1053l-274 -37l196 -211l-182 -125l-137 254l-137 -254l-183 125l197 211l-274 37l71 202l252 -108l-43 287h234l-43 -287l250 108z" />
    <glyph glyph-name="plus" unicode="+" horiz-adv-x="1448" 
d="M1212 485h-385v-385h-202v385h-387v203h387v387h202v-387h385v-203z" />
    <glyph glyph-name="comma" unicode="," horiz-adv-x="555" 
d="M432 252l-147 -506h-246l102 506h291z" />
    <glyph glyph-name="hyphen" unicode="-" horiz-adv-x="828" 
d="M690 436h-547v221h547v-221z" />
    <glyph glyph-name="period" unicode="." horiz-adv-x="555" 
d="M274 -25c-52 0 -95.333 16 -130 48s-52 71.333 -52 118c0 48 17.833 87.333 53.5 118s80.167 46 133.5 46c54 0 98.167 -15.5 132.5 -46.5s51.5 -70.167 51.5 -117.5c0 -48.667 -17.5 -88.5 -52.5 -119.5s-80.5 -46.5 -136.5 -46.5z" />
    <glyph glyph-name="slash" unicode="/" horiz-adv-x="908" 
d="M932 1434l-699 -1672h-282l696 1672h285z" />
    <glyph glyph-name="zero" unicode="0" 
d="M582 -25c-341.333 0 -511.999 239.667 -511.999 719c0 248.667 46.167 438.167 138.5 568.5s226.166 195.5 401.499 195.5c333.333 0 500 -243.667 500 -731c0 -242.667 -45.5 -428.667 -136.5 -558s-221.5 -194 -391.5 -194zM596.001 1217
c-136.667 0 -205 -171.667 -205 -515c0 -323.333 67 -485 201 -485c130.667 0 196 166.667 196 500s-64 500 -192 500z" />
    <glyph glyph-name="one" unicode="1" 
d="M1077 0h-907v250h297v893l-305 -66v256l620 125v-1208h295v-250z" />
    <glyph glyph-name="two" unicode="2" 
d="M471 268l-0.00195312 -6h582v-262h-944v246l411 393c82.667 79.333 140.834 145.833 174.501 199.5s50.5 110.167 50.5 169.5c0 132 -71 198 -213 198c-123.333 0 -241.333 -49 -354 -147v278c124.667 80.667 265.334 121 422.001 121
c146.667 0 261.167 -36.833 343.5 -110.5s123.5 -173.167 123.5 -298.5c0 -167.333 -100.333 -340.333 -301 -519z" />
    <glyph glyph-name="three" unicode="3" 
d="M147 47l-0.000976562 274.999c96 -70 208 -105 336 -105c80.667 0 143.5 17.333 188.5 52s67.5 83 67.5 145c0 64 -27.833 113.333 -83.5 148s-132.167 52 -229.5 52h-129v242h119c186.667 0 280 62 280 186c0 116.667 -71.667 175 -215 175c-96 0 -189.333 -31 -280 -93
v258c100.667 50.667 218 76 352 76c146.667 0 260.834 -33 342.501 -99s122.5 -151.667 122.5 -257c0 -187.333 -95 -304.666 -285 -351.999v-5c101.333 -12.667 181.333 -49.5 240 -110.5s88 -135.833 88 -224.5c0 -134 -49 -240 -147 -318s-233.333 -117 -406 -117
c-148 0 -268.333 24 -361 72z" />
    <glyph glyph-name="four" unicode="4" 
d="M1124 305h-172v-305h-288v305h-625v201l602 928h311v-904h172v-225zM668 1118h-6c-9.33301 -24 -27.333 -61.333 -54 -112l-307 -476h363v451c0 40 1.33301 85.667 4 137z" />
    <glyph glyph-name="five" unicode="5" 
d="M164 37l0.000976562 270.001c98 -60 202.333 -90 313 -90c83.333 0 148.5 19.833 195.5 59.5s70.5 93.5 70.5 161.5c0 142 -100.333 213 -301 213c-65.333 0 -144.333 -6 -237 -18v801h794v-258h-524v-287c42 4 81.667 6 119 6c147.333 0 262.666 -38.667 345.999 -116
s125 -181.333 125 -312c0 -144.667 -49.667 -262.834 -149 -354.501s-234 -137.5 -404 -137.5c-138 0 -254 20.667 -348 62z" />
    <glyph glyph-name="six" unicode="6" 
d="M1008 1419v-264.001c-72.667 41.333 -152 62 -238 62c-106 0 -191.5 -40.5 -256.5 -121.5s-98.833 -189.5 -101.5 -325.5h6c68.667 101.333 169 152 301 152c120 0 215.167 -40.667 285.5 -122s105.5 -189 105.5 -323c0 -144 -46.667 -263.667 -140 -359
s-212 -143 -356 -143c-161.333 0 -287.333 58.333 -378 175s-136 280.334 -136 491.001c0 248 58.333 446.167 175 594.5s275 222.5 475 222.5c110.667 0 196.667 -13 258 -39zM612 687.999c-58 0 -104.167 -20.332 -138.5 -60.999s-51.5 -92.667 -51.5 -156
c0 -70 17.5 -129.833 52.5 -179.5s81.5 -74.5 139.5 -74.5c56.667 0 102 22.167 136 66.5s51 102.166 51 173.499c0 154 -63 231 -189 231z" />
    <glyph glyph-name="seven" unicode="7" 
d="M1094 1288l-506 -1288h-334l510 1176h-668v258h998v-146z" />
    <glyph glyph-name="eight" unicode="8" 
d="M371 745v5c-164 67.333 -246 176.333 -246 327c0 110.667 44 201.834 132 273.501s201.667 107.5 341 107.5c142 0 255.333 -33.5 340 -100.5s127 -153.5 127 -259.5c0 -156.667 -90.667 -272 -272 -346v-4c97.333 -28.667 172.833 -75.834 226.5 -141.501
s80.5 -139.5 80.5 -221.5c0 -126.667 -46.833 -226.667 -140.5 -300s-224.5 -110 -392.5 -110c-145.333 0 -262.5 35.833 -351.5 107.5s-133.5 166.5 -133.5 284.5c0 171.333 96.333 297.333 289 378zM768 1071c0 48.667 -15.5 87.5 -46.5 116.5s-72.167 43.5 -123.5 43.5
c-50 0 -91.5 -15.167 -124.5 -45.5s-49.5 -69.166 -49.5 -116.499c0 -89.333 57.333 -157 172 -203c114.667 47.333 172 115.666 172 204.999zM582 625c-134 -52.667 -201 -133.333 -201 -242c0 -52 20.5 -95 61.5 -129s90.833 -51 149.5 -51
c63.333 0 114.333 16.667 153 50s58 77.333 58 132c0 109.333 -73.667 189.333 -221 240z" />
    <glyph glyph-name="nine" unicode="9" 
d="M160 31v260c75.333 -49.333 166 -74 272 -74c110.667 0 196.167 37.5 256.5 112.5s90.833 181.5 91.5 319.5l-6 2c-63.333 -94 -159.666 -141 -288.999 -141c-117.333 0 -214.5 41 -291.5 123s-115.5 188.333 -115.5 319c0 152.667 47 275.167 141 367.5
s215.667 138.5 365 138.5c153.333 0 275.5 -58 366.5 -174s136.5 -282 136.5 -498c0 -256 -54.833 -455.167 -164.5 -597.5s-262.834 -213.5 -459.501 -213.5c-116.667 0 -217.667 18.667 -303 56zM575 1217c-54.667 0 -99.668 -22.166 -135.001 -66.499
s-53 -101.5 -53 -171.5c0 -72.667 17.5 -129.834 52.5 -171.501s82.5 -62.5 142.5 -62.5c54.667 0 99.334 19.833 134.001 59.5s52 89.5 52 149.5c0 75.333 -18.167 138 -54.5 188s-82.5 75 -138.5 75z" />
    <glyph glyph-name="colon" unicode=":" horiz-adv-x="555" 
d="M274 707c-52 0 -95.333 15.833 -130 47.5s-52 70.834 -52 117.501c0 48 17.833 87.333 53.5 118s80.167 46 133.5 46c54 0 98.167 -15.5 132.5 -46.5s51.5 -70.167 51.5 -117.5c0 -48.667 -17.5 -88.334 -52.5 -119.001s-80.5 -46 -136.5 -46zM274 -25
c-52 0 -95.333 16 -130 48s-52 71.333 -52 118c0 48 17.833 87.333 53.5 118s80.167 46 133.5 46c54 0 98.167 -15.5 132.5 -46.5s51.5 -70.167 51.5 -117.5c0 -48.667 -17.5 -88.5 -52.5 -119.5s-80.5 -46.5 -136.5 -46.5z" />
    <glyph glyph-name="semicolon" unicode=";" horiz-adv-x="555" 
d="M281 707c-52.667 0 -96.333 16.001 -131 48.001s-52 71 -52 117c0 48.667 17.5 88.167 52.5 118.5s79.167 45.5 132.5 45.5c54 0 98.167 -15.5 132.5 -46.5s51.5 -70.167 51.5 -117.5c0 -48.667 -17 -88.334 -51 -119.001s-79 -46 -135 -46zM432.001 252.001l-147 -506
h-246l102 506h291z" />
    <glyph glyph-name="less" unicode="&#x3c;" horiz-adv-x="1448" 
d="M1192 63l-934 426v162l934 447v-238l-666 -285v-6l666 -268v-238z" />
    <glyph glyph-name="equal" unicode="=" horiz-adv-x="1448" 
d="M1212 700h-974v205h974v-205zM1212 266h-974v203h974v-203z" />
    <glyph glyph-name="greater" unicode="&#x3e;" horiz-adv-x="1448" 
d="M1192 502l-934 -426v237l668 267v4l-668 286v238l934 -444v-162z" />
    <glyph glyph-name="question" unicode="?" horiz-adv-x="897" 
d="M263 415c-6.66699 17.333 -11.8301 36.833 -15.4971 58.5s-5.5 42.167 -5.5 61.5c0 30.667 3 58.667 9 84s15 49.166 27 71.499s27 43.666 45 63.999s39 40.5 63 60.5c25.333 21.333 47.5 41.166 66.5 59.499s35.167 36.666 48.5 54.999s23.333 37.333 30 57
s10 41.5 10 65.5c0 20.667 -3.66699 39.834 -11 57.501s-17.833 32.834 -31.5 45.501s-30.334 22.667 -50.001 30s-41.5 11 -65.5 11c-52 0 -106 -10.833 -162 -32.5s-109 -54.5 -159 -98.5v301c51.333 30.667 107.333 53.667 168 69s123.334 23 188.001 23
c62 0 119.667 -6.83301 173 -20.5s99.833 -35.167 139.5 -64.5s70.667 -66.833 93 -112.5s33.5 -100.5 33.5 -164.5c0 -40.667 -4.66699 -77.5 -14 -110.5s-23 -64.167 -41 -93.5s-40.333 -57.5 -67 -84.5s-57.334 -54.833 -92.001 -83.5
c-23.333 -19.333 -43.833 -37.333 -61.5 -54s-32.334 -33.167 -44.001 -49.5s-20.5 -33.666 -26.5 -51.999s-9 -39.166 -9 -62.499c0 -16 2.16699 -32.333 6.5 -49s10.166 -30.667 17.499 -42h-263zM409.004 -23c-53.333 0 -97.667 16.001 -133 48.001
c-35.333 33.333 -53 72.666 -53 117.999c0 46.667 17.667 85.667 53 117s79.666 47 132.999 47c52.667 0 96.334 -15.667 131.001 -47c34.667 -30.667 52 -69.667 52 -117c0 -48 -17 -87.667 -51 -119c-34.667 -31.333 -78.667 -47 -132 -47z" />
    <glyph glyph-name="at" unicode="@" horiz-adv-x="1954" 
d="M1122 371l-6 -0.000976562c-46.667 -127.333 -131.334 -191 -254.001 -191c-92 0 -166.167 33.333 -222.5 100s-84.5 159 -84.5 277c0 152.667 39 276.834 117 372.501s172 143.5 282 143.5c99.333 0 161.666 -39 186.999 -117h4l10 99h225
c-30 -284 -45 -469.667 -45 -557c0 -93.333 25.333 -140 76 -140c53.333 0 97.333 35.333 132 106s52 163 52 277c0 156 -49.667 283.833 -149 383.5s-238 149.5 -416 149.5c-190.667 0 -349.167 -66.5 -475.5 -199.5s-189.5 -295.167 -189.5 -486.5
c0 -185.333 55.833 -331.333 167.5 -438s265.834 -160 462.501 -160c150 0 287.333 28.667 412 86v-191c-114 -48.667 -260.667 -73 -440 -73c-246 0 -446.167 70.5 -600.5 211.5s-231.5 330.5 -231.5 568.5c0 242.667 82.333 446.667 247 612s376.667 248 636 248
c240 0 434.167 -64.167 582.5 -192.5s222.5 -297.5 222.5 -507.5c0 -172.667 -45.333 -311.167 -136 -415.5s-203 -156.5 -337 -156.5c-66 0 -119.667 17.667 -161 53s-63.666 81.333 -66.999 138zM989 898.999c-60 0 -108.834 -34.167 -146.501 -102.5
s-56.5 -147.5 -56.5 -237.5c0 -64 12.833 -113.833 38.5 -149.5s58.834 -53.5 99.501 -53.5c62.667 0 112 33.667 148 101s54 157.333 54 270c0 53.333 -12.5 95.333 -37.5 126s-58.167 46 -99.5 46z" />
    <glyph glyph-name="A" unicode="A" horiz-adv-x="1440" 
d="M1425 0h-352l-102 319h-510l-101 -319h-350l522 1434h383zM897 567l-154.001 482c-11.333 36 -19.333 79 -24 129h-8c-3.33301 -42 -11.666 -83.667 -24.999 -125l-156 -486h367z" />
    <glyph glyph-name="B" unicode="B" horiz-adv-x="1313" 
d="M164 0l-0.000976562 1434h522c160 0 283 -29.333 369 -88s129 -141.334 129 -248.001c0 -77.333 -26.167 -145 -78.5 -203s-119.166 -98.333 -200.499 -121v-4c102 -12.667 183.5 -50.334 244.5 -113.001s91.5 -139 91.5 -229c0 -131.333 -47 -235.5 -141 -312.5
s-222.333 -115.5 -385 -115.5h-551zM486.999 1196v-340h142c66.667 0 119.167 16.167 157.5 48.5s57.5 76.833 57.5 133.5c0 105.333 -78.667 158 -236 158h-121zM486.999 616.002l0.000976562 -378h175c74.667 0 133.167 17.333 175.5 52s63.5 82 63.5 142
c0 57.333 -20.833 102.333 -62.5 135s-99.834 49 -174.501 49h-177z" />
    <glyph glyph-name="C" unicode="C" horiz-adv-x="1278" 
d="M1192 51c-104.667 -50.667 -241.332 -75.998 -409.999 -75.998c-220 0 -393 64.667 -519 194s-189 301.666 -189 516.999c0 229.333 70.833 415.333 212.5 558s325.5 214 551.5 214c140 0 258 -17.667 354 -53v-311c-96 57.333 -205.333 86 -328 86
c-134.667 0 -243.334 -42.333 -326.001 -127s-124 -199.334 -124 -344.001c0 -138.667 39 -249.167 117 -331.5s183 -123.5 315 -123.5c126 0 241.333 30.667 346 92v-295z" />
    <glyph glyph-name="D" unicode="D" horiz-adv-x="1510" 
d="M164 0v1434h508c509.333 0 764 -233 764 -699c0 -223.333 -69.5 -401.666 -208.5 -534.999s-324.167 -200 -555.5 -200h-508zM487 1171v-909h160c140 0 249.833 42 329.5 126s119.5 198.333 119.5 343c0 136.667 -39.5 244.167 -118.5 322.5s-189.833 117.5 -332.5 117.5
h-158z" />
    <glyph glyph-name="E" unicode="E" horiz-adv-x="1090" 
d="M1024 0h-860v1434h827v-263h-504v-319h469v-262h-469v-328h537v-262z" />
    <glyph glyph-name="F" unicode="F" horiz-adv-x="1065" 
d="M993 1171h-506v-352h465v-262h-465v-557h-323v1434h829v-263z" />
    <glyph glyph-name="G" unicode="G" horiz-adv-x="1456" 
d="M1341 96c-140 -80.667 -313.999 -121 -521.999 -121c-230.667 0 -412.5 63.833 -545.5 191.5s-199.5 303.5 -199.5 527.5c0 225.333 72.667 409 218 551s338.666 213 579.999 213c152 0 286 -21 402 -63v-303c-110.667 64 -246 96 -406 96
c-134 0 -243.167 -43.5 -327.5 -130.5s-126.5 -203.167 -126.5 -348.5c0 -147.333 37.833 -261.333 113.5 -342s177.834 -121 306.501 -121c77.333 0 138.666 11 183.999 33v280h-287v258h610v-721z" />
    <glyph glyph-name="H" unicode="H" horiz-adv-x="1569" 
d="M1405 0h-324v584h-594v-584h-323v1434h323v-572h594v572h324v-1434z" />
    <glyph glyph-name="I" unicode="I" horiz-adv-x="649" 
d="M607 1434v-250h-120v-934h120v-250h-563v250h120v934h-120v250h563z" />
    <glyph glyph-name="J" unicode="J" horiz-adv-x="912" 
d="M762 569c0 -192 -44.5 -339 -133.5 -441s-217.833 -153 -386.5 -153c-75.333 0 -145 13 -209 39v303c55.333 -42 117.333 -63 186 -63c147.333 0 221 109.333 221 328v852h322v-865z" />
    <glyph glyph-name="K" unicode="K" horiz-adv-x="1329" 
d="M1356 0l-408 -0.000976562l-418 623c-8 12 -20.667 38.333 -38 79h-5v-702h-323v1434h323v-678h5c8 18.667 21.333 45.334 40 80.001l396 598h385l-500 -684z" />
    <glyph glyph-name="L" unicode="L" horiz-adv-x="1047" 
d="M1018 0h-854v1434h323v-1172h531v-262z" />
    <glyph glyph-name="M" unicode="M" horiz-adv-x="1960" 
d="M1798 0h-319v858c0 92.667 4 195 12 307h-8c-16.667 -88 -31.667 -151.333 -45 -190l-336 -975h-264l-342 965c-9.33301 26 -24.333 92.667 -45 200h-9c8.66699 -141.333 13 -265.333 13 -372v-793h-291v1434h473l293 -850c23.333 -68 40.333 -136.333 51 -205h6
c18 79.333 37 148.333 57 207l293 848h461v-1434z" />
    <glyph glyph-name="N" unicode="N" horiz-adv-x="1618" 
d="M1454 0l-326 -0.000976562l-591 901c-34.667 52.667 -58.667 92.334 -72 119.001h-4c5.33301 -50.667 8 -128 8 -232v-788h-305v1434h348l569 -873c26 -39.333 50 -78.333 72 -117h4c-5.33301 33.333 -8 99 -8 197v793h305v-1434z" />
    <glyph glyph-name="O" unicode="O" horiz-adv-x="1553" 
d="M770 -25c-205.333 0 -372.667 66.832 -502 200.499s-194 307.834 -194 522.501c0 226.667 65.667 410 197 550s305.333 210 522 210c204.667 0 370.167 -67 496.5 -201s189.5 -310.667 189.5 -530c0 -225.333 -65.5 -407 -196.5 -545s-301.833 -207 -512.5 -207z
M783.999 1180c-113.333 0 -203.332 -42.501 -269.999 -127.501s-100 -197.5 -100 -337.5c0 -142 33.333 -254.333 100 -337s154 -124 262 -124c111.333 0 199.666 40.167 264.999 120.5s98 191.833 98 334.5c0 148.667 -31.667 264.334 -95 347.001s-150 124 -260 124z" />
    <glyph glyph-name="P" unicode="P" horiz-adv-x="1258" 
d="M487 494v-494h-323v1434h506c361.333 0 542 -152.333 542 -457c0 -144 -51.833 -260.5 -155.5 -349.5s-242.167 -133.5 -415.5 -133.5h-154zM487 1186v-447h127c172 0 258 75.333 258 226c0 147.333 -86 221 -258 221h-127z" />
    <glyph glyph-name="Q" unicode="Q" horiz-adv-x="1553" 
d="M784 1180c-112.667 0 -202.668 -42.668 -270.001 -128.001c-66.667 -84.667 -100 -197 -100 -337c0 -141.333 33 -253.666 99 -336.999c66.667 -82.667 154.334 -124 263.001 -124c112 0 200.333 40 265 120c65.333 81.333 98 193 98 335
c0 147.333 -31.333 262.333 -94 345c-62.667 84 -149.667 126 -261 126zM1040 26.999c34.667 -37.333 67.667 -68.001 99 -92.001s62.833 -43 94.5 -57s64.167 -23.667 97.5 -29s69.666 -8 108.999 -8c10.667 0 22.334 0.5 35.001 1.5s25.5 2.66699 38.5 5s25.5 5 37.5 8
s23 6.5 33 10.5v-272c-21.333 -6 -50.833 -12 -88.5 -18s-83.5 -9 -137.5 -9c-65.333 0 -125.5 10.667 -180.5 32s-107.667 50.5 -158 87.5s-99.333 80.5 -147 130.5l-148.5 161c-98 2.66699 -187 23 -267 61s-148.333 89.167 -205 153.5s-100.5 139.833 -131.5 226.5
s-46.5 179.667 -46.5 279c0 227.333 65.333 410.666 196 549.999c131.333 140 306.333 210 525 210c203.333 0 368 -67.333 494 -202c126.667 -133.333 190 -309.666 190 -528.999c0 -171.333 -38.667 -318.666 -116 -441.999c-77.333 -122 -185 -208 -323 -258z" />
    <glyph glyph-name="R" unicode="R" horiz-adv-x="1337" 
d="M1367 0h-370.999l-223 369c-16.667 28 -32.667 53 -48 75s-30.833 40.833 -46.5 56.5s-32 27.667 -49 36s-35.5 12.5 -55.5 12.5h-87v-549h-323v1434h512c348 0 522 -130 522 -390c0 -50 -7.66699 -96.167 -23 -138.5s-37 -80.5 -65 -114.5s-61.833 -63.333 -101.5 -88
s-83.834 -44 -132.501 -58v-4c21.333 -6.66699 42 -17.5 62 -32.5s39.333 -32.5 58 -52.5s36.5 -41.5 53.5 -64.5s32.5 -45.5 46.5 -67.5zM487.001 1192v-399h140c69.333 0 125 20 167 60c42.667 40.667 64 91 64 151c0 125.333 -75 188 -225 188h-146z" />
    <glyph glyph-name="S" unicode="S" horiz-adv-x="1148" 
d="M98 55v319.998c58 -48.667 121 -85.167 189 -109.5s136.667 -36.5 206 -36.5c40.667 0 76.167 3.66699 106.5 11s55.666 17.5 75.999 30.5s35.5 28.333 45.5 46s15 36.834 15 57.501c0 28 -8 53 -24 75s-37.833 42.333 -65.5 61s-60.5 36.667 -98.5 54s-79 35 -123 53
c-112 46.667 -195.5 103.667 -250.5 171s-82.5 148.666 -82.5 243.999c0 74.667 15 138.834 45 192.501s70.833 97.834 122.5 132.501s111.5 60.167 179.5 76.5s140 24.5 216 24.5c74.667 0 140.834 -4.5 198.501 -13.5s110.834 -22.833 159.501 -41.5v-299
c-24 16.667 -50.167 31.334 -78.5 44.001s-57.5 23.167 -87.5 31.5s-59.833 14.5 -89.5 18.5s-57.834 6 -84.501 6c-36.667 0 -70 -3.5 -100 -10.5s-55.333 -16.833 -76 -29.5s-36.667 -27.834 -48 -45.501s-17 -37.5 -17 -59.5c0 -24 6.33301 -45.5 19 -64.5
s30.667 -37 54 -54s51.666 -33.667 84.999 -50s71 -33.166 113 -50.499c57.333 -24 108.833 -49.5 154.5 -76.5s84.834 -57.5 117.501 -91.5s57.667 -72.833 75 -116.5s26 -94.5 26 -152.5c0 -80 -15.167 -147.167 -45.5 -201.5s-71.5 -98.333 -123.5 -132
s-112.5 -57.834 -181.5 -72.501s-141.833 -22 -218.5 -22c-78.667 0 -153.5 6.66699 -224.5 20s-132.5 33.333 -184.5 60z" />
    <glyph glyph-name="T" unicode="T" horiz-adv-x="1200" 
d="M1171 1171h-409v-1171h-324v1171h-407v263h1140v-263z" />
    <glyph glyph-name="U" unicode="U" horiz-adv-x="1481" 
d="M1333 621c0 -430.667 -200.667 -646 -602 -646c-389.333 0 -584 210.333 -584 631v828h324v-832c0 -232 90.667 -348 272 -348c178 0 267 112 267 336v844h323v-813z" />
    <glyph glyph-name="V" unicode="V" horiz-adv-x="1366" 
d="M1358 1434l-494 -1434h-366l-488 1434h348l299 -998c16 -54 25.667 -101.667 29 -143h6c4.66699 44.667 15 93.667 31 147l297 994h338z" />
    <glyph glyph-name="W" unicode="W" horiz-adv-x="2058" 
d="M2040 1434l-379.001 -1434h-358l-238 920c-12.667 48 -20.334 101.667 -23.001 161h-4c-6 -65.333 -14.667 -119 -26 -161l-244 -920h-373l-377 1434h353l202 -955c8.66699 -40.667 15 -95.334 19 -164.001h6c2.66699 51.333 12.334 107.333 29.001 168l260 951h346
l235 -963c8.66699 -35.333 16.334 -86.666 23.001 -153.999h4c2.66699 52.667 9.66699 106 21 160l198 957h326z" />
    <glyph glyph-name="X" unicode="X" horiz-adv-x="1342" 
d="M1335 0h-383l-247 467c-9.33301 17.333 -19 49.333 -29 96h-4c-4.66699 -22 -15.667 -55.333 -33 -100l-248 -463h-385l457 717l-418 717h393l205 -430c16 -34 30.333 -74.333 43 -121h4c8 28 23 69.667 45 125l228 426h360l-430 -711z" />
    <glyph glyph-name="Y" unicode="Y" horiz-adv-x="1243" 
d="M1245 1434l-467 -924v-510h-323v504l-455 930h369l231 -535c4 -10 15 -49 33 -117h4c8.66699 48 19 85.667 31 113l235 539h342z" />
    <glyph glyph-name="Z" unicode="Z" horiz-adv-x="1243" 
d="M1196 0h-1155v186l735 985h-682v263h1100v-181l-719 -991h721v-262z" />
    <glyph glyph-name="bracketleft" unicode="[" horiz-adv-x="756" 
d="M686 -326h-469v1760h469v-201h-209v-1358h209v-201z" />
    <glyph glyph-name="backslash" unicode="\" horiz-adv-x="893" 
d="M961 -238h-279l-682 1672h281z" />
    <glyph glyph-name="bracketright" unicode="]" horiz-adv-x="756" 
d="M541 -326h-471v201h211v1358h-211v201h471v-1760z" />
    <glyph glyph-name="asciicircum" unicode="^" horiz-adv-x="1448" 
d="M1249 610h-243l-287 586h-4l-271 -586h-241l430 848h162z" />
    <glyph glyph-name="underscore" unicode="_" horiz-adv-x="850" 
d="M850 -297h-850v119h850v-119z" />
    <glyph glyph-name="grave" unicode="`" horiz-adv-x="643" 
d="M596 1186h-227l-314 323h281z" />
    <glyph glyph-name="a" unicode="a" horiz-adv-x="1102" 
d="M985 0l-298.999 -0.000976562v147h-4c-68.667 -114.667 -170.334 -172 -305.001 -172c-99.333 0 -177.5 28.167 -234.5 84.5s-85.5 131.5 -85.5 225.5c0 198.667 117.667 313.334 353 344.001l278 37c0 112 -60.667 168 -182 168c-122 0 -238 -36.333 -348 -109v238
c44 22.667 104.167 42.667 180.5 60s145.833 26 208.5 26c292 0 438 -145.667 438 -437v-612zM688.001 415.999l0.000976562 68.999l-186 -24c-102.667 -13.333 -154 -59.666 -154 -138.999c0 -36 12.5 -65.5 37.5 -88.5s58.833 -34.5 101.5 -34.5
c59.333 0 107.666 20.5 144.999 61.5s56 92.833 56 155.5z" />
    <glyph glyph-name="b" unicode="b" horiz-adv-x="1270" 
d="M453 119h-4.00098v-119h-316v1516h316v-646h4c78 119.333 189 179 333 179c132 0 233.667 -45.333 305 -136s107 -214.667 107 -372c0 -170.667 -41.667 -307.667 -125 -411s-194.666 -155 -333.999 -155c-126 0 -221.333 48 -286 144zM443.999 551
l-0.000976562 -105.001c0 -66 19 -120.667 57 -164s86.667 -65 146 -65c72 0 127.833 27.833 167.5 83.5s59.5 134.5 59.5 236.5c0 84.667 -18.167 150.834 -54.5 198.501s-88.166 71.5 -155.499 71.5c-63.333 0 -115.833 -23.667 -157.5 -71s-62.5 -109 -62.5 -185z" />
    <glyph glyph-name="c" unicode="c" horiz-adv-x="983" 
d="M909 37c-71.333 -41.333 -174.335 -61.999 -309.002 -61.999c-157.333 0 -284.666 47.667 -381.999 143s-146 218.333 -146 369c0 174 52.167 311.167 156.5 411.5s243.833 150.5 418.5 150.5c120.667 0 208 -16 262 -48v-268c-66 49.333 -139.667 74 -221 74
c-90.667 0 -162.5 -26.5 -215.5 -79.5s-79.5 -126.167 -79.5 -219.5c0 -90.667 25.333 -161.834 76 -213.501s120.334 -77.5 209.001 -77.5c78.667 0 155.667 24.667 231 74v-254z" />
    <glyph glyph-name="d" unicode="d" horiz-adv-x="1268" 
d="M1135 0h-316v141h-4c-72 -110.667 -177.667 -166 -317 -166c-128 0 -231 45.167 -309 135.5s-117 216.5 -117 378.5c0 169.333 43 305 129 407s198.667 153 338 153c132 0 224 -47.333 276 -142h4v609h316v-1516zM825 498v77c0 66.667 -19.333 122 -58 166
s-89 66 -151 66c-70 0 -124.667 -27.5 -164 -82.5s-59 -130.5 -59 -226.5c0 -90 19 -159.333 57 -208s90.667 -73 158 -73c64 0 116.167 25.667 156.5 77s60.5 119.333 60.5 204z" />
    <glyph glyph-name="e" unicode="e" horiz-adv-x="1108" 
d="M1053 422h-668.002c10.667 -148.667 104.334 -223 281.001 -223c112.667 0 211.667 26.667 297 80v-228c-94.667 -50.667 -217.667 -76 -369 -76c-165.333 0 -293.666 45.833 -384.999 137.5s-137 219.5 -137 383.5c0 170 49.333 304.667 148 404s220 149 364 149
c149.333 0 264.833 -44.333 346.5 -133s122.5 -209 122.5 -361v-133zM759.998 616c0 146.667 -59.333 220 -178 220c-50.667 0 -94.5 -21 -131.5 -63s-59.5 -94.333 -67.5 -157h377z" />
    <glyph glyph-name="f" unicode="f" horiz-adv-x="785" 
d="M801 1274c-40.667 16 -79.667 24 -117 24c-101.333 0 -152 -55 -152 -165v-109h234v-233h-234v-791h-315v791h-172v233h172v127c0 116.667 38 210.667 114 282s179.333 107 310 107c64 0 117.333 -6.66699 160 -20v-246z" />
    <glyph glyph-name="g" unicode="g" horiz-adv-x="1268" 
d="M1137 117c0 -190 -54.998 -337.167 -164.998 -441.5s-269.333 -156.5 -478 -156.5c-138 0 -247.333 19.667 -328 59v266c105.333 -61.333 211.666 -92 318.999 -92c106.667 0 189.334 28.167 248.001 84.5s88 132.833 88 229.5v81h-4
c-72 -114.667 -178.333 -172 -319 -172c-130.667 0 -234.334 46 -311.001 138s-115 215.333 -115 370c0 173.333 42.667 311 128 413s197.666 153 336.999 153c124.667 0 218 -48 280 -144h4v119h316v-907zM825.002 492v80.999c0 64.667 -19.167 119.834 -57.5 165.501
s-88.166 68.5 -149.499 68.5c-70 0 -125 -27.333 -165 -82s-60 -131.667 -60 -231c0 -85.333 19 -152.833 57 -202.5s90 -74.5 156 -74.5c65.333 0 118.166 25.167 158.499 75.5s60.5 116.833 60.5 199.5z" />
    <glyph glyph-name="h" unicode="h" horiz-adv-x="1233" 
d="M1116 0h-315v582c0 150 -54.667 225 -164 225c-56 0 -101.333 -21 -136 -63s-52 -95.333 -52 -160v-584h-316v1516h316v-644h4c77.333 118 182.333 177 315 177c232 0 348 -140 348 -420v-629z" />
    <glyph glyph-name="i" unicode="i" horiz-adv-x="582" 
d="M293 1186c-53.333 0 -97 15.833 -131 47.5s-51 70.5 -51 116.5c0 47.333 17 86 51 116s77.667 45 131 45c54 0 97.833 -15 131.5 -45s50.5 -68.667 50.5 -116c0 -48 -16.833 -87.333 -50.5 -118s-77.5 -46 -131.5 -46zM449 0h-316v1024h316v-1024z" />
    <glyph glyph-name="j" unicode="j" horiz-adv-x="582" 
d="M293 1186c-53.333 0 -97 15.833 -131 47.5s-51 70.5 -51 116.5c0 47.333 17 86 51 116s77.667 45 131 45c54 0 97.833 -15 131.5 -45s50.5 -68.667 50.5 -116c0 -48 -16.833 -87.333 -50.5 -118s-77.5 -46 -131.5 -46zM449 18c0 -151.333 -37 -272.333 -111 -363
s-180.667 -136 -320 -136c-46 0 -96.333 10 -151 30v248c44 -24.667 83 -37 117 -37c99.333 0 149 78 149 234v1030h316v-1006z" />
    <glyph glyph-name="k" unicode="k" horiz-adv-x="1145" 
d="M1159 0h-379l-327 508h-4v-508h-316v1516h316v-965h4l305 473h375l-367 -481z" />
    <glyph glyph-name="l" unicode="l" horiz-adv-x="582" 
d="M449 0h-316v1516h316v-1516z" />
    <glyph glyph-name="m" unicode="m" horiz-adv-x="1876" 
d="M1759 0l-315 0.000976562v584c0 148.667 -54.667 223 -164 223c-52 0 -94.333 -22.333 -127 -67s-49 -100.334 -49 -167.001v-573h-316v590c0 144.667 -53.667 217 -161 217c-54 0 -97.167 -21.333 -129.5 -64s-48.5 -100.667 -48.5 -174v-569h-316v1024h316v-160h4
c32.667 54.667 78.5 99.167 137.5 133.5s123.5 51.5 193.5 51.5c144.667 0 243.667 -63.667 297 -191c78 127.333 192.667 191 344 191c222.667 0 334 -137.333 334 -412v-637z" />
    <glyph glyph-name="n" unicode="n" horiz-adv-x="1239" 
d="M1122 0h-315v569c0 158.667 -56.667 238 -170 238c-54.667 0 -99.667 -21 -135 -63s-53 -95.333 -53 -160v-584h-316v1024h316v-162h4c75.333 124.667 185 187 329 187c226.667 0 340 -140.667 340 -422v-627z" />
    <glyph glyph-name="o" unicode="o" horiz-adv-x="1252" 
d="M621 -25c-170.667 0 -304.833 47.833 -402.5 143.5s-146.5 225.5 -146.5 389.5c0 169.333 50.667 301.833 152 397.5s238.333 143.5 411 143.5c170 0 303.333 -47.833 400 -143.5s145 -222.167 145 -379.5c0 -170 -49.833 -304.333 -149.5 -403
s-236.167 -148 -409.5 -148zM629.001 807c-74.667 0 -132.667 -25.667 -174 -77s-62 -124 -62 -218c0 -196.667 79.333 -295 238 -295c151.333 0 227 101 227 303c0 191.333 -76.333 287 -229 287z" />
    <glyph glyph-name="p" unicode="p" horiz-adv-x="1270" 
d="M453 119h-4v-590h-316v1495h316v-154h4c78 119.333 187.667 179 329 179c132.667 0 235.167 -45.5 307.5 -136.5s108.5 -214.833 108.5 -371.5c0 -170.667 -42.167 -307.667 -126.5 -411s-196.5 -155 -336.5 -155c-123.333 0 -217.333 48 -282 144zM444 539v-81.999
c0 -70.667 18.667 -128.334 56 -173.001s86.333 -67 147 -67c72 0 127.833 27.833 167.5 83.5s59.5 134.5 59.5 236.5c0 180 -70 270 -210 270c-64.667 0 -117.5 -24.5 -158.5 -73.5s-61.5 -113.833 -61.5 -194.5z" />
    <glyph glyph-name="q" unicode="q" horiz-adv-x="1268" 
d="M1135 -471h-316v612h-4c-71.333 -110.667 -176.333 -166 -315 -166c-128.667 0 -232.167 44.833 -310.5 134.5s-117.5 215.5 -117.5 377.5c0 170.667 43 307 129 409s198 153 336 153c125.333 0 218 -48 278 -144h4v119h316v-1495zM825 489l0.000976562 81.999
c0 66.667 -19.333 122.667 -58 168s-88.334 68 -149.001 68c-70 0 -125 -27.5 -165 -82.5s-60 -131.167 -60 -228.5c0 -87.333 19.5 -155.666 58.5 -204.999s89.833 -74 152.5 -74c66.667 0 120.167 25 160.5 75s60.5 115.667 60.5 197z" />
    <glyph glyph-name="r" unicode="r" horiz-adv-x="815" 
d="M801 739c-38 20.667 -82.332 31 -132.999 31c-68.667 0 -122.334 -25.167 -161.001 -75.5s-58 -118.833 -58 -205.5v-489h-316v1024h316v-190h4c50 138.667 140 208 270 208c33.333 0 59.333 -4 78 -12v-291z" />
    <glyph glyph-name="s" unicode="s" horiz-adv-x="901" 
d="M66 27l-0.00195312 256.001c52 -31.333 103.833 -54.666 155.5 -69.999s100.5 -23 146.5 -23c56 0 100.167 7.66699 132.5 23s48.5 38.666 48.5 69.999c0 20 -7.33301 36.667 -22 50s-33.5 25 -56.5 35s-48.167 19 -75.5 27s-53.666 17 -78.999 27
c-40.667 15.333 -76.5 31.833 -107.5 49.5s-57 38.167 -78 61.5s-37 50.333 -48 81s-16.5 67 -16.5 109c0 57.333 12.5 106.666 37.5 147.999s58.333 75.166 100 101.499s89.334 45.666 143.001 57.999s109.5 18.5 167.5 18.5c45.333 0 91.333 -3.5 138 -10.5
s92.667 -17.167 138 -30.5v-244c-40 23.333 -82.833 40.833 -128.5 52.5s-90.5 17.5 -134.5 17.5c-20.667 0 -40.167 -1.83301 -58.5 -5.5s-34.5 -9 -48.5 -16s-25 -16 -33 -27s-12 -23.5 -12 -37.5c0 -18.667 6 -34.667 18 -48s27.667 -24.833 47 -34.5
s40.833 -18.334 64.5 -26.001l70.5 -23.5c42 -14.667 80 -30.667 114 -48s63.167 -37.666 87.5 -60.999s43 -50.666 56 -81.999s19.5 -68.666 19.5 -111.999c0 -60.667 -13.167 -112.5 -39.5 -155.5s-61.333 -78 -105 -105s-94 -46.667 -151 -59
s-116.167 -18.5 -177.5 -18.5c-112.667 0 -217 17.333 -313 52z" />
    <glyph glyph-name="t" unicode="t" horiz-adv-x="797" 
d="M752 12c-46.667 -24.667 -116.999 -37 -210.999 -37c-222.667 0 -334 115.667 -334 347v469h-166v233h166v221l315 90v-311h230v-233h-230v-414c0 -106.667 42.333 -160 127 -160c33.333 0 67.666 9.66699 102.999 29v-234z" />
    <glyph glyph-name="u" unicode="u" horiz-adv-x="1239" 
d="M1106 0h-315v156h-5c-78 -120.667 -182.333 -181 -313 -181c-237.333 0 -356 143.667 -356 431v618h315v-590c0 -144.667 57.333 -217 172 -217c56.667 0 102 19.833 136 59.5s51 93.5 51 161.5v586h315v-1024z" />
    <glyph glyph-name="v" unicode="v" horiz-adv-x="1110" 
d="M1108 1024l-381 -1024h-360l-363 1024h338l178 -631c20 -71.333 31.667 -132 35 -182h4c4.66699 47.333 17 106 37 176l182 637h330z" />
    <glyph glyph-name="w" unicode="w" horiz-adv-x="1633" 
d="M1616 1024l-294.998 -1024h-332l-151 600c-10 40 -15.667 83.667 -17 131h-6c-4.66699 -52 -11.334 -94.333 -20.001 -127l-162 -604h-328l-289 1024h322l141 -668c6.66699 -31.333 11.667 -69.333 15 -114h6c3.33301 46.667 9.33301 86 18 118l176 664h301l158 -668
c4 -16.667 8.66699 -55.334 14 -116.001h7c3.33301 38.667 8.66602 77.334 15.999 116.001l133 668h293z" />
    <glyph glyph-name="x" unicode="x" horiz-adv-x="1131" 
d="M1122 1024l-338 -496l336 -528h-364l-148 276c-12 22 -26.333 53 -43 93h-4c-10 -28 -23.667 -58 -41 -90l-149 -279h-363l346 510l-325 514h366l146 -287c19.333 -38 33 -70 41 -96h4c10.667 31.333 25 64 43 98l149 285h344z" />
    <glyph glyph-name="y" unicode="y" horiz-adv-x="1102" 
d="M1108 1024l-416 -1106c-100 -266 -250.667 -399 -452 -399c-76.667 0 -139.667 8.66699 -189 26v252c42 -24.667 87.667 -37 137 -37c81.333 0 138 38.333 170 115l54 127l-416 1022h350l191 -623c12 -38.667 21.333 -84.334 28 -137.001h4c6 38.667 17 83.667 33 135
l193 625h313z" />
    <glyph glyph-name="z" unicode="z" horiz-adv-x="981" 
d="M944 0h-919v131l514 660h-463v233h864v-156l-487 -635h491v-233z" />
    <glyph glyph-name="braceleft" unicode="{" horiz-adv-x="756" 
d="M674 -326c-145.333 0 -251 26.665 -317 79.998s-99 148.333 -99 285v240c0 122.667 -50.667 184 -152 184v184c101.333 0 152 63.667 152 191v223c0 137.333 32.667 233.833 98 289.5s171.333 83.5 318 83.5v-187c-106.667 0 -160 -58 -160 -174v-213
c0 -160 -51.333 -261 -154 -303v-4c102.667 -41.333 154 -143.666 154 -306.999v-205c0 -65.333 12.5 -111.666 37.5 -138.999s65.833 -41 122.5 -41v-187z" />
    <glyph glyph-name="bar" unicode="|" horiz-adv-x="668" 
d="M461 -481h-252v2048h252v-2048z" />
    <glyph glyph-name="braceright" unicode="}" horiz-adv-x="756" 
d="M651 463c-102 0 -152.999 -62.332 -152.999 -186.999v-231c0 -140.667 -32.5 -237.667 -97.5 -291s-170.5 -80 -316.5 -80v187c56 0 96.667 13.5 122 40.5s38 72.833 38 137.5v213c0 159.333 51 259 153 299v4c-102 42 -153 146.333 -153 313v205
c0 116 -53.333 174 -160 174v187c145.333 0 250.666 -27.833 315.999 -83.5s98 -150.834 98 -285.501v-229c0 -126 51 -189 153 -189v-184z" />
    <glyph glyph-name="asciitilde" unicode="~" horiz-adv-x="1448" 
d="M1255 772c-4 -112 -33.832 -200.668 -89.499 -266.001s-130.167 -98 -223.5 -98c-70.667 0 -156.667 29.333 -258 88c-72.667 42 -124.667 63 -156 63c-82 0 -125 -53.333 -129 -160h-204c4 112.667 33.833 201.667 89.5 267s131.5 98 227.5 98
c74.667 0 154 -25.333 238 -76c86.667 -52 146.667 -78 180 -78c34.667 0 63.167 14.833 85.5 44.5s34.166 68.834 35.499 117.501h204z" />
    <glyph glyph-name="nonbreakingspace" unicode="&#xa0;" horiz-adv-x="565" 
 />
    <glyph glyph-name="exclamdown" unicode="&#xa1;" horiz-adv-x="670" 
d="M336 721c-54 0 -98.167 15.332 -132.5 45.999s-51.5 69.334 -51.5 116.001c0 48 17.167 87.667 51.5 119s78.5 47 132.5 47c52.667 0 96.167 -16 130.5 -48s51.5 -71.333 51.5 -118c0 -48 -17.167 -87 -51.5 -117s-77.833 -45 -130.5 -45zM504 -408.001h-332l37 990h256z
" />
    <glyph glyph-name="cent" unicode="&#xa2;" 
d="M1004 207c-48.667 -28 -108.998 -46.333 -180.998 -55v-189h-161v184c-144 8 -262 58.5 -354 151.5s-138 212.5 -138 358.5c0 156 44.667 283.167 134 381.5s208.666 155.5 357.999 171.5v211h161v-207c73.333 -4 133.666 -19 180.999 -45v-272
c-50.667 38.667 -111 62 -181 70v-574c72 11.333 132.333 34 181 68v-254zM662.002 399v558.999c-130 -39.333 -195 -132.666 -195 -279.999c0 -148 65 -241 195 -279z" />
    <glyph glyph-name="sterling" unicode="&#xa3;" 
d="M1114 0h-971v227c128.667 34.667 193 124.334 193 269.001v116h-172v217h172v187c0 132 40.667 238.667 122 320s191.333 122 330 122c84.667 0 162.667 -16.333 234 -49v-258c-65.333 44 -135 66 -209 66c-122.667 0 -184 -76.667 -184 -230v-158h268v-217h-268v-86
c0 -122.667 -50.667 -217.334 -152 -284.001h637v-242z" />
    <glyph glyph-name="currency" unicode="&#xa4;" horiz-adv-x="1139" 
d="M1087 358l-141 -144.999l-143 141c-70 -43.333 -148 -65 -234 -65c-84.667 0 -162.334 21.667 -233.001 65l-143 -141l-142 145l142 138c-44 73.333 -66 149.666 -66 228.999c0 80.667 22 157 66 229l-142 140l142 145l143 -141c70.667 43.333 148.334 65 233.001 65
c86 0 164 -21.667 234 -65l143 141l141 -145l-141 -140c45.333 -74 68 -150.333 68 -229c0 -76.667 -22.667 -153 -68 -229zM569 965.001c-66.667 0 -123.167 -23.167 -169.5 -69.5s-69.5 -102.5 -69.5 -168.5s23.167 -122.167 69.5 -168.5s102.833 -69.5 169.5 -69.5
s123.667 23.167 171 69.5s71 102.5 71 168.5c0 65.333 -24.333 121.333 -73 168s-105 70 -169 70z" />
    <glyph glyph-name="yen" unicode="&#xa5;" 
d="M1157 1434l-354 -641h252v-189h-305v-153h305v-189h-305v-262h-308v262h-315v189h315v153h-315v189h256l-342 641h321l246 -570h4c2.66699 7.33301 15 37.333 37 90l203 480h305z" />
    <glyph glyph-name="brokenbar" unicode="&#xa6;" horiz-adv-x="668" 
d="M461 684h-252v883h252v-883zM461 -481h-252v895h252v-895z" />
    <glyph glyph-name="section" unicode="&#xa7;" horiz-adv-x="994" 
d="M752 434c54.667 -50 82.001 -108.001 82.001 -174.001c0 -99.333 -36.167 -178.5 -108.5 -237.5s-167.5 -88.5 -285.5 -88.5c-108.667 0 -205.334 22.667 -290.001 68v248c120 -70 223.667 -105 311 -105c84.667 0 127 33 127 99c0 40.667 -32 76.667 -96 108
c-94 43.333 -164 80.833 -210 112.5s-82.667 70.5 -110 116.5s-41 96 -41 150c0 95.333 41.667 173.333 125 234c-58.667 58.667 -88 130.334 -88 215.001c0 93.333 34.167 168.5 102.5 225.5s159.833 85.5 274.5 85.5c92.667 0 179.334 -18.333 260.001 -55v-250
c-92.667 64 -179.334 96 -260.001 96c-82 0 -123 -31.333 -123 -94c0 -30 13.5 -55.833 40.5 -77.5s88.5 -53.834 184.5 -96.501c169.333 -74.667 254 -177.667 254 -309c0 -111.333 -49.667 -201.666 -149 -270.999zM432.001 863.999
c-43.333 -25.333 -65 -62.001 -65 -110.001c0 -38 17 -72 51 -102s93.333 -63 178 -99c44 29.333 66 70.333 66 123c0 41.333 -17.833 74.833 -53.5 100.5s-94.5 54.834 -176.5 87.501z" />
    <glyph glyph-name="dieresis" unicode="&#xa8;" horiz-adv-x="946" 
d="M698 1186c-44.667 0 -81.334 13 -110.001 39s-43 58.667 -43 98c0 40.667 14.333 73.667 43 99s65.334 38 110.001 38s81.5 -12.833 110.5 -38.5s43.5 -58.5 43.5 -98.5s-14.333 -72.833 -43 -98.5s-65.667 -38.5 -111 -38.5zM240 1186
c-45.333 0 -82.333 13.167 -111 39.5s-43 58.833 -43 97.5c0 40 14.667 72.833 44 98.5s66 38.5 110 38.5c45.333 0 82.166 -12.833 110.499 -38.5s42.5 -58.5 42.5 -98.5c0 -40.667 -14.167 -73.667 -42.5 -99s-65.166 -38 -110.499 -38z" />
    <glyph glyph-name="copyright" unicode="&#xa9;" horiz-adv-x="1790" 
d="M893 -25c-222 0 -404.499 69 -547.499 207s-214.5 315 -214.5 531c0 211.333 73.5 388.333 220.5 531s330.167 214 549.5 214c218.667 0 400 -69.5 544 -208.5s216 -316.5 216 -532.5c0 -211.333 -73.833 -387.833 -221.5 -529.5s-329.834 -212.5 -546.501 -212.5z
M897.001 1346c-183.333 0 -334.667 -60.001 -454 -180.001s-179 -269.667 -179 -449c0 -181.333 60.5 -331.5 181.5 -450.5s271.5 -178.5 451.5 -178.5c176.667 0 326 59.833 448 179.5s183 268.834 183 447.501c0 181.333 -60 331.833 -180 451.5
s-270.333 179.5 -451 179.5zM1204 294.999c-83.333 -45.333 -174.667 -68.001 -274 -68.001c-139.333 0 -254.833 44.667 -346.5 134s-137.5 201 -137.5 335c0 154 47.833 277.5 143.5 370.5s220.167 139.5 373.5 139.5c83.333 0 163 -18.333 239 -55v-236
c-65.333 50.667 -146.666 76 -243.999 76c-76.667 0 -140.834 -25.5 -192.501 -76.5s-77.5 -119.5 -77.5 -205.5c0 -81.333 26.167 -147.166 78.5 -197.499s118.5 -75.5 198.5 -75.5c94 0 173.667 25.333 239 76v-217z" />
    <glyph glyph-name="ordfeminine" unicode="&#xaa;" horiz-adv-x="840" 
d="M739 717l-213.002 -0.000976562v86h-4c-58 -71.333 -131 -107 -219 -107c-67.333 0 -122.666 20.333 -165.999 61s-65 93.334 -65 158.001c0 140.667 87.333 222 262 244l192 25c0 76 -46.333 114 -139 114c-78.667 0 -160.667 -25.667 -246 -77v176
c82.667 38 178.334 57 287.001 57c207.333 0 311 -99.667 311 -299v-438zM525.998 984.999v70l-123 -17c-77.333 -10.667 -116 -42.667 -116 -96c0 -58.667 34.667 -88 104 -88c36 0 67.5 12.833 94.5 38.5s40.5 56.5 40.5 92.5z" />
    <glyph glyph-name="guillemotleft" unicode="&#xab;" horiz-adv-x="1190" 
d="M1137 201h-269l-327 336l327 344h269l-334 -344zM651 201h-268l-330 336l330 344h266l-334 -344z" />
    <glyph glyph-name="logicalnot" unicode="&#xac;" horiz-adv-x="1448" 
d="M1212 266h-202v389h-772v203h974v-592z" />
    <glyph glyph-name="sfthyphen" unicode="&#xad;" horiz-adv-x="828" 
d="M690 436h-547v221h547v-221z" />
    <glyph glyph-name="registered" unicode="&#xae;" horiz-adv-x="1790" 
d="M893 -25c-222 0 -404.499 69 -547.499 207s-214.5 315 -214.5 531c0 211.333 73.5 388.333 220.5 531s330.167 214 549.5 214c218.667 0 400 -69.5 544 -208.5s216 -316.5 216 -532.5c0 -211.333 -73.833 -387.833 -221.5 -529.5s-329.834 -212.5 -546.501 -212.5z
M897.001 1346c-183.333 0 -334.667 -60.001 -454 -180.001s-179 -269.667 -179 -449c0 -181.333 60.5 -331.5 181.5 -450.5s271.5 -178.5 451.5 -178.5c176.667 0 326 59.833 448 179.5s183 268.834 183 447.501c0 181.333 -60 331.833 -180 451.5
s-270.333 179.5 -451 179.5zM1288 263.999h-253.999l-76 232c-26.667 81.333 -63.334 122 -110.001 122h-74v-354h-211v922h320c246.667 0 370 -87.333 370 -262c0 -126 -72.333 -207.333 -217 -244v-4c60 -13.333 107.333 -62 142 -146zM774.001 1010v-230h111
c92.667 0 139 39.667 139 119c0 74 -53.333 111 -160 111h-90z" />
    <glyph glyph-name="uni00AF" unicode="&#xaf;" horiz-adv-x="850" 
d="M850 1396h-850v120h850v-120z" />
    <glyph glyph-name="degree" unicode="&#xb0;" horiz-adv-x="778" 
d="M399 895c-79.333 0 -146.5 27.5 -201.5 82.5s-82.5 121.833 -82.5 200.5s27.5 145 82.5 199s122.167 81 201.5 81c78.667 0 145.834 -27 201.501 -81s83.5 -120.333 83.5 -199s-27.833 -145.5 -83.5 -200.5s-122.834 -82.5 -201.501 -82.5zM399 1307
c-36 0 -66.499 -12.5 -91.499 -37.5s-37.5 -55.5 -37.5 -91.5s12.5 -66.833 37.5 -92.5s55.5 -38.5 91.5 -38.5c35.333 0 65.666 12.833 90.999 38.5s38 56.5 38 92.5s-12.5 66.5 -37.5 91.5s-55.5 37.5 -91.5 37.5z" />
    <glyph glyph-name="plusminus" unicode="&#xb1;" horiz-adv-x="1448" 
d="M1212 694h-385v-387h-202v387h-383v203h383v391h202v-391h385v-203zM1210 0h-972v203h972v-203z" />
    <glyph glyph-name="twosuperior" unicode="&#xb2;" horiz-adv-x="828" 
d="M721 884h-604v157l248 234c51.333 48.667 83.166 85.334 95.499 110.001s18.5 52 18.5 82c0 28 -9.5 51.167 -28.5 69.5s-44.167 27.5 -75.5 27.5c-65.333 0 -135.666 -34.333 -210.999 -103v215c78.667 52 162 78 250 78c90.667 0 162.5 -22.833 215.5 -68.5
s79.5 -108.834 79.5 -189.501c0 -46.667 -12.5 -93.667 -37.5 -141s-84.833 -113 -179.5 -197l-105 -92v-4h334v-178z" />
    <glyph glyph-name="threesuperior" unicode="&#xb3;" horiz-adv-x="828" 
d="M131 916v181c71.333 -45.333 145 -68 221 -68c100 0 150 34 150 102c0 68.667 -57.333 103 -172 103h-117v166h113c99.333 0 149 32 149 96c0 60 -39.667 90 -119 90c-71.333 0 -137.333 -21.667 -198 -65v176c66 38 145.667 57 239 57
c89.333 0 159.833 -20.167 211.5 -60.5s77.5 -93.833 77.5 -160.5c0 -98 -47.667 -163 -143 -195v-4c114.667 -27.333 172 -93.333 172 -198c0 -82 -32.667 -148 -98 -198s-151 -75 -257 -75c-88.667 0 -165 17.667 -229 53z" />
    <glyph glyph-name="acute" unicode="&#xb4;" horiz-adv-x="621" 
d="M596 1509l-313 -323h-228l260 323h281z" />
    <glyph glyph-name="mu1" unicode="&#xb5;" horiz-adv-x="1255" 
d="M1161 0h-323.999c-16.667 46.667 -25 98 -25 154h-4c-38 -118 -110 -177 -216 -177c-64.667 0 -111.334 21.333 -140.001 64h-3v-436h-316v1419h316v-589c0 -138 56.667 -207 170 -207c122.667 0 184 84.667 184 254v542h319v-710c0 -157.333 13 -262 39 -314z" />
    <glyph glyph-name="paragraph" unicode="&#xb6;" horiz-adv-x="1043" 
d="M946 1272l-117 -0.000976562v-1272h-174v1272h-118v-1272h-177v836c-76.667 4.66699 -140.5 35.334 -191.5 92.001s-76.5 127 -76.5 211c0 86 28.5 156.667 85.5 212s127.5 83 211.5 83h557v-162z" />
    <glyph glyph-name="periodcentered" unicode="&#xb7;" horiz-adv-x="555" 
d="M274 487c-52 0 -95.333 16 -130 48s-52 71.333 -52 118c0 48 17.833 87.333 53.5 118s80.167 46 133.5 46c54 0 98.167 -15.5 132.5 -46.5s51.5 -70.167 51.5 -117.5c0 -48.667 -17.5 -88.5 -52.5 -119.5s-80.5 -46.5 -136.5 -46.5z" />
    <glyph glyph-name="periodcentered" unicode="&#x2219;" horiz-adv-x="555" 
d="M274 487c-52 0 -95.333 16 -130 48s-52 71.333 -52 118c0 48 17.833 87.333 53.5 118s80.167 46 133.5 46c54 0 98.167 -15.5 132.5 -46.5s51.5 -70.167 51.5 -117.5c0 -48.667 -17.5 -88.5 -52.5 -119.5s-80.5 -46.5 -136.5 -46.5z" />
    <glyph glyph-name="cedilla" unicode="&#xb8;" horiz-adv-x="441" 
d="M51 -451v137.999c23.333 -4 47.333 -6 72 -6c82 0 123 24.333 123 73c0 44 -37 66 -111 66c-8.66699 0 -21 -0.666992 -37 -2v182h172v-82c124.667 -5.33301 187 -60.666 187 -165.999c0 -138 -106 -207 -318 -207c-30.667 0 -60 1.33301 -88 4z" />
    <glyph glyph-name="onesuperior" unicode="&#xb9;" horiz-adv-x="807" 
d="M721 884h-563v172h176v477l-191 -41v180l406 82v-698h172v-172z" />
    <glyph glyph-name="ordmasculine" unicode="&#xba;" horiz-adv-x="934" 
d="M459 696c-123.333 0 -219.001 33.168 -287.001 99.501s-102 158.833 -102 277.5c0 119.333 36.167 212.666 108.5 279.999s169.833 101 292.5 101c120.667 0 215.334 -33.833 284.001 -101.5s103 -156.167 103 -265.5c0 -122.667 -35.5 -218.5 -106.5 -287.5
s-168.5 -103.5 -292.5 -103.5zM464.999 1280c-109.333 0 -164 -67.667 -164 -203c0 -138 54.667 -207 164 -207c106.667 0 160 69.667 160 209c0 134 -53.333 201 -160 201z" />
    <glyph glyph-name="guillemotright" unicode="&#xbb;" horiz-adv-x="1190" 
d="M1137 537l-328 -336h-268l333 336l-331 344h266zM651 537l-329 -336h-269l336 336l-334 344h267z" />
    <glyph glyph-name="onequarter" unicode="&#xbc;" horiz-adv-x="1950" 
d="M676 584h-563v172h176v477l-191 -41v180l406 82v-698h172v-172zM1505 1434l-891 -1434h-244l891 1434h244zM1845 176h-110v-176h-213v176h-395v141l350 533h258v-519h110v-155zM1526 678h-8c-9.33301 -24 -22.333 -49.333 -39 -76l-168 -271h211v263
c0 31.333 1.33301 59.333 4 84z" />
    <glyph glyph-name="onehalf" unicode="&#xbd;" horiz-adv-x="1977" 
d="M676 584h-563v172h176v477l-191 -41v180l406 82v-698h172v-172zM1506 1434l-891 -1434h-244l891 1434h244zM1843 0h-604v157l248 234c51.333 48.667 83.166 85.334 95.499 110.001s18.5 52 18.5 82c0 28 -9.5 51.167 -28.5 69.5s-44.167 27.5 -75.5 27.5
c-65.333 0 -135.666 -34.333 -210.999 -103v215c78.667 52 162 78 250 78c90.667 0 162.5 -22.833 215.5 -68.5s79.5 -108.834 79.5 -189.501c0 -46.667 -12.5 -93.667 -37.5 -141s-84.833 -113 -179.5 -197l-105 -92v-4h334v-178z" />
    <glyph glyph-name="threequarters" unicode="&#xbe;" horiz-adv-x="2005" 
d="M131 616v181c71.333 -45.333 145 -68 221 -68c100 0 150 34 150 102c0 68.667 -57.333 103 -172 103h-117v166h113c99.333 0 149 32 149 96c0 60 -39.667 90 -119 90c-71.333 0 -137.333 -21.667 -198 -65v176c66 38 145.667 57 239 57
c89.333 0 159.833 -20.167 211.5 -60.5s77.5 -93.833 77.5 -160.5c0 -98 -47.667 -163 -143 -195v-4c114.667 -27.333 172 -93.333 172 -198c0 -82 -32.667 -148 -98 -198s-151 -75 -257 -75c-88.667 0 -165 17.667 -229 53zM1565 1434l-891 -1434h-244l891 1434h244z
M1892 176h-110v-176h-213v176h-395v141l350 533h258v-519h110v-155zM1573 678h-8c-9.33301 -24 -22.333 -49.333 -39 -76l-168 -271h211v263c0 31.333 1.33301 59.333 4 84z" />
    <glyph glyph-name="questiondown" unicode="&#xbf;" horiz-adv-x="897" 
d="M647 611c6.66699 -17.333 11.8291 -36.833 15.4961 -58.5s5.5 -42.167 5.5 -61.5c0 -30.667 -3 -58.667 -9 -84s-15 -49.166 -27 -71.499s-27 -43.666 -45 -63.999s-39 -40.5 -63 -60.5c-24.667 -21.333 -46.667 -41.166 -66 -59.499s-35.666 -36.666 -48.999 -54.999
s-23.333 -37.333 -30 -57s-10 -41.5 -10 -65.5c0 -20.667 3.66699 -39.834 11 -57.501s17.833 -32.834 31.5 -45.501s30.334 -22.667 50.001 -30s41.5 -11 65.5 -11c52 0 106 10.833 162 32.5s109 54.5 159 98.5v-301c-51.333 -30.667 -107.333 -53.667 -168 -69
s-123.334 -23 -188.001 -23c-62 0 -119.667 6.83301 -173 20.5s-99.833 35.167 -139.5 64.5s-70.667 66.833 -93 112.5s-33.5 100.5 -33.5 164.5c0 40.667 4.66699 77.5 14 110.5s23 64.167 41 93.5s40.333 57.5 67 84.5s57.334 54.833 92.001 83.5
c23.333 19.333 43.833 37.333 61.5 54s32.334 33.167 44.001 49.5s20.5 33.666 26.5 51.999s9 39.166 9 62.499c0 16 -2.16699 32.333 -6.5 49s-10.166 30.667 -17.499 42h263zM500.995 1049c54 0 98.333 -16.002 133 -48.002c35.333 -33.333 53 -72.666 53 -117.999
c0 -46.667 -17.667 -85.667 -53 -117s-79.666 -47 -132.999 -47c-52.667 0 -96.334 15.667 -131.001 47c-34.667 30.667 -52 69.667 -52 117c0 48.667 17 88.334 51 119.001c34.667 31.333 78.667 47 132 47z" />
    <glyph glyph-name="Agrave" unicode="&#xc0;" horiz-adv-x="1440" 
d="M1425 0h-352l-102 319h-510l-101 -319h-350l522 1434h383zM897 567l-154.001 482c-11.333 36 -19.333 79 -24 129h-8c-3.33301 -42 -11.666 -83.667 -24.999 -125l-156 -486h367zM915.999 1567h-227l-314 323h281z" />
    <glyph glyph-name="Aacute" unicode="&#xc1;" horiz-adv-x="1440" 
d="M1425 0h-352l-102 319h-510l-101 -319h-350l522 1434h383zM897 567l-154.001 482c-11.333 36 -19.333 79 -24 129h-8c-3.33301 -42 -11.666 -83.667 -24.999 -125l-156 -486h367zM1036 1890l-313 -323h-228l260 323h281z" />
    <glyph glyph-name="Acircumflex" unicode="&#xc2;" horiz-adv-x="1440" 
d="M1425 0h-352l-102 319h-510l-101 -319h-350l522 1434h383zM897 567l-154.001 482c-11.333 36 -19.333 79 -24 129h-8c-3.33301 -42 -11.666 -83.667 -24.999 -125l-156 -486h367zM1078 1567h-207l-158 188l-147 -188h-207l235 325h248z" />
    <glyph glyph-name="Atilde" unicode="&#xc3;" horiz-adv-x="1440" 
d="M1425 0h-352l-102 319h-510l-101 -319h-350l522 1434h383zM897 567l-154.001 482c-11.333 36 -19.333 79 -24 129h-8c-3.33301 -42 -11.666 -83.667 -24.999 -125l-156 -486h367zM1077 1878c0 -93.333 -18.5 -165.5 -55.5 -216.5s-87.5 -76.5 -151.5 -76.5
c-57.333 0 -113.333 14.333 -168 43c-59.333 31.333 -100.333 47 -123 47c-53.333 0 -80 -36 -80 -108h-141c0 92.667 18.333 164.667 55 216s88 77 154 77c54 0 110 -16.333 168 -49c52.667 -29.333 92.667 -44 120 -44c52 0 78 37 78 111h144z" />
    <glyph glyph-name="Adieresis" unicode="&#xc4;" horiz-adv-x="1440" 
d="M1425 0h-352l-102 319h-510l-101 -319h-350l522 1434h383zM897 567l-154.001 482c-11.333 36 -19.333 79 -24 129h-8c-3.33301 -42 -11.666 -83.667 -24.999 -125l-156 -486h367zM944.999 1567c-44.667 0 -81.334 13 -110.001 39s-43 58.667 -43 98
c0 40.667 14.333 73.667 43 99s65.334 38 110.001 38s81.5 -12.833 110.5 -38.5s43.5 -58.5 43.5 -98.5s-14.333 -72.833 -43 -98.5s-65.667 -38.5 -111 -38.5zM486.999 1567c-45.333 0 -82.333 13.167 -111 39.5s-43 58.833 -43 97.5c0 40 14.667 72.833 44 98.5
s66 38.5 110 38.5c45.333 0 82.166 -12.833 110.499 -38.5s42.5 -58.5 42.5 -98.5c0 -40.667 -14.167 -73.667 -42.5 -99s-65.166 -38 -110.499 -38z" />
    <glyph glyph-name="Aring" unicode="&#xc5;" horiz-adv-x="1440" 
d="M1425 0l-352 -0.000976562l-102 319h-510l-101 -319h-350l512 1407c-35.333 36 -53 81.667 -53 137c0 70.667 24.5 127 73.5 169s109.167 63 180.5 63c76 0 137.333 -21.167 184 -63.5s70 -97.166 70 -164.499c0 -53.333 -17.667 -99 -53 -137zM719 1645
c-31.333 0 -56.333 -9.50098 -75 -28.501s-28 -42.5 -28 -70.5c0 -65.333 34.333 -98 103 -98c32 0 57.667 9.5 77 28.5s29 42.167 29 69.5c0 28.667 -9.83301 52.334 -29.5 71.001s-45.167 28 -76.5 28zM893 583.998l-151.999 465c-8.66699 26.667 -16 66.667 -22 120h-8
c-4.66699 -45.333 -12.334 -84 -23.001 -116l-153 -469h358z" />
    <glyph glyph-name="AE" unicode="&#xc6;" horiz-adv-x="1915" 
d="M1849 0h-858v319h-471l-147 -319h-375l725 1434h1094v-263h-504v-319h469v-262h-469v-328h536v-262zM991 567v604h-78l-282 -604h360z" />
    <glyph glyph-name="Ccedilla" unicode="&#xc7;" horiz-adv-x="1278" 
d="M1192 51c-104.667 -50.667 -241.332 -75.998 -409.999 -75.998c-220 0 -393 64.667 -519 194s-189 301.666 -189 516.999c0 229.333 70.833 415.333 212.5 558s325.5 214 551.5 214c140 0 258 -17.667 354 -53v-311c-96 57.333 -205.333 86 -328 86
c-134.667 0 -243.334 -42.333 -326.001 -127s-124 -199.334 -124 -344.001c0 -138.667 39 -249.167 117 -331.5s183 -123.5 315 -123.5c126 0 241.333 30.667 346 92v-295zM610.002 -450.998v137.999c23.333 -4 47.333 -6 72 -6c82 0 123 24.333 123 73c0 44 -37 66 -111 66
c-8.66699 0 -21 -0.666992 -37 -2v182h172v-82c124.667 -5.33301 187 -60.666 187 -165.999c0 -138 -106 -207 -318 -207c-30.667 0 -60 1.33301 -88 4z" />
    <glyph glyph-name="Egrave" unicode="&#xc8;" horiz-adv-x="1090" 
d="M1024 0h-860v1434h827v-263h-504v-319h469v-262h-469v-328h537v-262zM766 1567h-227l-314 323h281z" />
    <glyph glyph-name="Eacute" unicode="&#xc9;" horiz-adv-x="1090" 
d="M1024 0h-860v1434h827v-263h-504v-319h469v-262h-469v-328h537v-262zM934 1890l-313 -323h-228l260 323h281z" />
    <glyph glyph-name="Ecircumflex" unicode="&#xca;" horiz-adv-x="1090" 
d="M1024 0h-860v1434h827v-263h-504v-319h469v-262h-469v-328h537v-262zM932 1567h-207l-158 188l-147 -188h-207l235 325h248z" />
    <glyph glyph-name="Edieresis" unicode="&#xcb;" horiz-adv-x="1090" 
d="M1024 0h-860v1434h827v-263h-504v-319h469v-262h-469v-328h537v-262zM812 1567c-44.667 0 -81.334 13 -110.001 39s-43 58.667 -43 98c0 40.667 14.333 73.667 43 99s65.334 38 110.001 38s81.5 -12.833 110.5 -38.5s43.5 -58.5 43.5 -98.5s-14.333 -72.833 -43 -98.5
s-65.667 -38.5 -111 -38.5zM354 1567c-45.333 0 -82.333 13.167 -111 39.5s-43 58.833 -43 97.5c0 40 14.667 72.833 44 98.5s66 38.5 110 38.5c45.333 0 82.166 -12.833 110.499 -38.5s42.5 -58.5 42.5 -98.5c0 -40.667 -14.167 -73.667 -42.5 -99
s-65.166 -38 -110.499 -38z" />
    <glyph glyph-name="Igrave" unicode="&#xcc;" horiz-adv-x="649" 
d="M607 1434v-250h-120v-934h120v-250h-563v250h120v934h-120v250h563zM532 1567h-227l-314 323h281z" />
    <glyph glyph-name="Iacute" unicode="&#xcd;" horiz-adv-x="649" 
d="M607 1434v-250h-120v-934h120v-250h-563v250h120v934h-120v250h563zM651 1890l-313 -323h-228l260 323h281z" />
    <glyph glyph-name="Icircumflex" unicode="&#xce;" horiz-adv-x="649" 
d="M607 1434v-250h-120v-934h120v-250h-563v250h120v934h-120v250h563zM691 1567h-207l-158 188l-147 -188h-207l235 325h248z" />
    <glyph glyph-name="Idieresis" unicode="&#xcf;" horiz-adv-x="649" 
d="M607 1434v-250h-120v-934h120v-250h-563v250h120v934h-120v250h563zM559 1567c-44.667 0 -81.334 13 -110.001 39s-43 58.667 -43 98c0 40.667 14.333 73.667 43 99s65.334 38 110.001 38s81.5 -12.833 110.5 -38.5s43.5 -58.5 43.5 -98.5s-14.333 -72.833 -43 -98.5
s-65.667 -38.5 -111 -38.5zM101 1567c-45.333 0 -82.333 13.167 -111 39.5s-43 58.833 -43 97.5c0 40 14.667 72.833 44 98.5s66 38.5 110 38.5c45.333 0 82.166 -12.833 110.499 -38.5s42.5 -58.5 42.5 -98.5c0 -40.667 -14.167 -73.667 -42.5 -99
s-65.166 -38 -110.499 -38z" />
    <glyph glyph-name="Eth" unicode="&#xd0;" horiz-adv-x="1510" 
d="M164 0v585.999h-164v266h164v582h508c509.333 0 764 -233 764 -699c0 -223.333 -69.5 -401.666 -208.5 -534.999s-324.167 -200 -555.5 -200h-508zM487 1171v-319h271v-266h-271v-324h160c140 0 249.833 42 329.5 126s119.5 198.333 119.5 343
c0 136.667 -39.5 244.167 -118.5 322.5s-189.833 117.5 -332.5 117.5h-158z" />
    <glyph glyph-name="Ntilde" unicode="&#xd1;" horiz-adv-x="1618" 
d="M1454 0l-326 -0.000976562l-591 901c-34.667 52.667 -58.667 92.334 -72 119.001h-4c5.33301 -50.667 8 -128 8 -232v-788h-305v1434h348l569 -873c26 -39.333 50 -78.333 72 -117h4c-5.33301 33.333 -8 99 -8 197v793h305v-1434zM1206 1878
c0 -93.333 -18.5 -165.5 -55.5 -216.5s-87.5 -76.5 -151.5 -76.5c-57.333 0 -113.333 14.333 -168 43c-59.333 31.333 -100.333 47 -123 47c-53.333 0 -80 -36 -80 -108h-141c0 92.667 18.333 164.667 55 216s88 77 154 77c54 0 110 -16.333 168 -49
c52.667 -29.333 92.667 -44 120 -44c52 0 78 37 78 111h144z" />
    <glyph glyph-name="Ograve" unicode="&#xd2;" horiz-adv-x="1552" 
d="M770 -25c-205.333 0 -372.667 66.832 -502 200.499s-194 307.834 -194 522.501c0 226.667 65.667 410 197 550s305.333 210 522 210c204.667 0 370.167 -67 496.5 -201s189.5 -310.667 189.5 -530c0 -225.333 -65.5 -407 -196.5 -545s-301.833 -207 -512.5 -207z
M783.999 1180c-113.333 0 -203.332 -42.501 -269.999 -127.501s-100 -197.5 -100 -337.5c0 -142 33.333 -254.333 100 -337s154 -124 262 -124c111.333 0 199.666 40.167 264.999 120.5s98 191.833 98 334.5c0 148.667 -31.667 264.334 -95 347.001s-150 124 -260 124z
M971 1567h-227l-314 323h281z" />
    <glyph glyph-name="Oacute" unicode="&#xd3;" horiz-adv-x="1552" 
d="M770 -25c-205.333 0 -372.667 66.832 -502 200.499s-194 307.834 -194 522.501c0 226.667 65.667 410 197 550s305.333 210 522 210c204.667 0 370.167 -67 496.5 -201s189.5 -310.667 189.5 -530c0 -225.333 -65.5 -407 -196.5 -545s-301.833 -207 -512.5 -207z
M783.999 1180c-113.333 0 -203.332 -42.501 -269.999 -127.501s-100 -197.5 -100 -337.5c0 -142 33.333 -254.333 100 -337s154 -124 262 -124c111.333 0 199.666 40.167 264.999 120.5s98 191.833 98 334.5c0 148.667 -31.667 264.334 -95 347.001s-150 124 -260 124z
M1110 1890l-313 -323h-228l260 323h281z" />
    <glyph glyph-name="Ocircumflex" unicode="&#xd4;" horiz-adv-x="1552" 
d="M770 -25c-205.333 0 -372.667 66.832 -502 200.499s-194 307.834 -194 522.501c0 226.667 65.667 410 197 550s305.333 210 522 210c204.667 0 370.167 -67 496.5 -201s189.5 -310.667 189.5 -530c0 -225.333 -65.5 -407 -196.5 -545s-301.833 -207 -512.5 -207z
M783.999 1180c-113.333 0 -203.332 -42.501 -269.999 -127.501s-100 -197.5 -100 -337.5c0 -142 33.333 -254.333 100 -337s154 -124 262 -124c111.333 0 199.666 40.167 264.999 120.5s98 191.833 98 334.5c0 148.667 -31.667 264.334 -95 347.001s-150 124 -260 124z
M1149 1567h-207l-158 188l-147 -188h-207l235 325h248z" />
    <glyph glyph-name="Otilde" unicode="&#xd5;" horiz-adv-x="1552" 
d="M770 -25c-205.333 0 -372.667 66.832 -502 200.499s-194 307.834 -194 522.501c0 226.667 65.667 410 197 550s305.333 210 522 210c204.667 0 370.167 -67 496.5 -201s189.5 -310.667 189.5 -530c0 -225.333 -65.5 -407 -196.5 -545s-301.833 -207 -512.5 -207z
M783.999 1180c-113.333 0 -203.332 -42.501 -269.999 -127.501s-100 -197.5 -100 -337.5c0 -142 33.333 -254.333 100 -337s154 -124 262 -124c111.333 0 199.666 40.167 264.999 120.5s98 191.833 98 334.5c0 148.667 -31.667 264.334 -95 347.001s-150 124 -260 124z
M1147 1878c0 -93.333 -18.5 -165.5 -55.5 -216.5s-87.5 -76.5 -151.5 -76.5c-57.333 0 -113.333 14.333 -168 43c-59.333 31.333 -100.333 47 -123 47c-53.333 0 -80 -36 -80 -108h-141c0 92.667 18.333 164.667 55 216s88 77 154 77c54 0 110 -16.333 168 -49
c52.667 -29.333 92.667 -44 120 -44c52 0 78 37 78 111h144z" />
    <glyph glyph-name="Odieresis" unicode="&#xd6;" horiz-adv-x="1552" 
d="M770 -25c-205.333 0 -372.667 66.832 -502 200.499s-194 307.834 -194 522.501c0 226.667 65.667 410 197 550s305.333 210 522 210c204.667 0 370.167 -67 496.5 -201s189.5 -310.667 189.5 -530c0 -225.333 -65.5 -407 -196.5 -545s-301.833 -207 -512.5 -207z
M783.999 1180c-113.333 0 -203.332 -42.501 -269.999 -127.501s-100 -197.5 -100 -337.5c0 -142 33.333 -254.333 100 -337s154 -124 262 -124c111.333 0 199.666 40.167 264.999 120.5s98 191.833 98 334.5c0 148.667 -31.667 264.334 -95 347.001s-150 124 -260 124z
M1004 1567c-44.667 0 -81.334 13 -110.001 39s-43 58.667 -43 98c0 40.667 14.333 73.667 43 99s65.334 38 110.001 38s81.5 -12.833 110.5 -38.5s43.5 -58.5 43.5 -98.5s-14.333 -72.833 -43 -98.5s-65.667 -38.5 -111 -38.5zM546 1567c-45.333 0 -82.333 13.167 -111 39.5
s-43 58.833 -43 97.5c0 40 14.667 72.833 44 98.5s66 38.5 110 38.5c45.333 0 82.166 -12.833 110.499 -38.5s42.5 -58.5 42.5 -98.5c0 -40.667 -14.167 -73.667 -42.5 -99s-65.166 -38 -110.499 -38z" />
    <glyph glyph-name="multiply" unicode="&#xd7;" horiz-adv-x="1448" 
d="M1210 248l-145 -144l-338 340l-340 -340l-145 146l340 336l-340 340l141 145l344 -340l342 340l139 -151l-338 -334z" />
    <glyph glyph-name="Oslash" unicode="&#xd8;" horiz-adv-x="1553" 
d="M348 109l-143 -170l-125 104l149 176c-103.333 128 -155 287.667 -155 479c0 226.667 65.5 410 196.5 550s305.167 210 522.5 210c156 0 289.667 -39.667 401 -119l129 150l125 -103l-135 -157c110.667 -130.667 166 -298 166 -502c0 -225.333 -65.5 -407 -196.5 -545
s-301.833 -207 -512.5 -207c-160 0 -300.667 44.667 -422 134zM1016 1130c-64.667 50.667 -141.999 76 -231.999 76c-120.667 0 -216.334 -45.5 -287.001 -136.5s-106 -211.167 -106 -360.5c0 -97.333 15.667 -181.333 47 -252zM1110 995l-578 -676.001
c67.333 -61.333 148.666 -92 243.999 -92c116.667 0 210.334 42.833 281.001 128.5s106 202.834 106 351.501c0 109.333 -17.667 205.333 -53 288z" />
    <glyph glyph-name="Ugrave" unicode="&#xd9;" horiz-adv-x="1481" 
d="M1333 621c0 -430.667 -200.667 -646 -602 -646c-389.333 0 -584 210.333 -584 631v828h324v-832c0 -232 90.667 -348 272 -348c178 0 267 112 267 336v844h323v-813zM920 1567h-227l-314 323h281z" />
    <glyph glyph-name="Uacute" unicode="&#xda;" horiz-adv-x="1481" 
d="M1333 621c0 -430.667 -200.667 -646 -602 -646c-389.333 0 -584 210.333 -584 631v828h324v-832c0 -232 90.667 -348 272 -348c178 0 267 112 267 336v844h323v-813zM1088 1890l-313 -323h-228l260 323h281z" />
    <glyph glyph-name="Ucircumflex" unicode="&#xdb;" horiz-adv-x="1481" 
d="M1333 621c0 -430.667 -200.667 -646 -602 -646c-389.333 0 -584 210.333 -584 631v828h324v-832c0 -232 90.667 -348 272 -348c178 0 267 112 267 336v844h323v-813zM1099 1567h-207l-158 188l-147 -188h-207l235 325h248z" />
    <glyph glyph-name="Udieresis" unicode="&#xdc;" horiz-adv-x="1481" 
d="M1333 621c0 -430.667 -200.667 -646 -602 -646c-389.333 0 -584 210.333 -584 631v828h324v-832c0 -232 90.667 -348 272 -348c178 0 267 112 267 336v844h323v-813zM969 1567c-44.667 0 -81.334 13 -110.001 39s-43 58.667 -43 98c0 40.667 14.333 73.667 43 99
s65.334 38 110.001 38s81.5 -12.833 110.5 -38.5s43.5 -58.5 43.5 -98.5s-14.333 -72.833 -43 -98.5s-65.667 -38.5 -111 -38.5zM511 1567c-45.333 0 -82.333 13.167 -111 39.5s-43 58.833 -43 97.5c0 40 14.667 72.833 44 98.5s66 38.5 110 38.5
c45.333 0 82.166 -12.833 110.499 -38.5s42.5 -58.5 42.5 -98.5c0 -40.667 -14.167 -73.667 -42.5 -99s-65.166 -38 -110.499 -38z" />
    <glyph glyph-name="Yacute" unicode="&#xdd;" horiz-adv-x="1243" 
d="M1245 1434l-467 -924v-510h-323v504l-455 930h369l231 -535c4 -10 15 -49 33 -117h4c8.66699 48 19 85.667 31 113l235 539h342zM903 1857l-313 -323h-228l260 323h281z" />
    <glyph glyph-name="Thorn" unicode="&#xde;" horiz-adv-x="1258" 
d="M487 281v-281h-323v1434h323v-211h183c361.333 0 542 -152.333 542 -457c0 -144 -51.833 -260.833 -155.5 -350.5s-242.167 -134.5 -415.5 -134.5h-154zM487 975v-447h127c172 0 258 75.333 258 226c0 147.333 -86 221 -258 221h-127z" />
    <glyph glyph-name="germandbls" unicode="&#xdf;" horiz-adv-x="1286" 
d="M545 8v261.999c55.333 -35.333 114 -53 176 -53c55.333 0 99.5 17.5 132.5 52.5s49.5 83.167 49.5 144.5c0 77.333 -29.667 138.5 -89 183.5s-143 69.167 -251 72.5v221c74 5.33301 131.5 28 172.5 68s61.5 93 61.5 159c0 56 -14.833 100 -44.5 132s-69.5 48 -119.5 48
c-122.667 0 -184 -81.667 -184 -245v-1053h-316v1049c0 148.667 45.667 267.667 137 357s218.333 134 381 134c144.667 0 259 -36.5 343 -109.5s126 -166.833 126 -281.5c0 -81.333 -23.833 -152.666 -71.5 -213.999s-109.167 -103.333 -184.5 -126v-4
c242 -46 363 -179 363 -399c0 -120 -42.167 -221.833 -126.5 -305.5s-198.5 -125.5 -342.5 -125.5c-70 0 -141 11 -213 33z" />
    <glyph glyph-name="agrave" unicode="&#xe0;" horiz-adv-x="1102" 
d="M985 0l-298.999 -0.000976562v147h-4c-68.667 -114.667 -170.334 -172 -305.001 -172c-99.333 0 -177.5 28.167 -234.5 84.5s-85.5 131.5 -85.5 225.5c0 198.667 117.667 313.334 353 344.001l278 37c0 112 -60.667 168 -182 168c-122 0 -238 -36.333 -348 -109v238
c44 22.667 104.167 42.667 180.5 60s145.833 26 208.5 26c292 0 438 -145.667 438 -437v-612zM688.001 415.999l0.000976562 68.999l-186 -24c-102.667 -13.333 -154 -59.666 -154 -138.999c0 -36 12.5 -65.5 37.5 -88.5s58.833 -34.5 101.5 -34.5
c59.333 0 107.666 20.5 144.999 61.5s56 92.833 56 155.5zM775.002 1186h-227l-314 323h281z" />
    <glyph glyph-name="aacute" unicode="&#xe1;" horiz-adv-x="1102" 
d="M985 0l-298.999 -0.000976562v147h-4c-68.667 -114.667 -170.334 -172 -305.001 -172c-99.333 0 -177.5 28.167 -234.5 84.5s-85.5 131.5 -85.5 225.5c0 198.667 117.667 313.334 353 344.001l278 37c0 112 -60.667 168 -182 168c-122 0 -238 -36.333 -348 -109v238
c44 22.667 104.167 42.667 180.5 60s145.833 26 208.5 26c292 0 438 -145.667 438 -437v-612zM688.001 415.999l0.000976562 68.999l-186 -24c-102.667 -13.333 -154 -59.666 -154 -138.999c0 -36 12.5 -65.5 37.5 -88.5s58.833 -34.5 101.5 -34.5
c59.333 0 107.666 20.5 144.999 61.5s56 92.833 56 155.5zM891.002 1509l-313 -323h-228l260 323h281z" />
    <glyph glyph-name="acircumflex" unicode="&#xe2;" horiz-adv-x="1102" 
d="M985 0l-298.999 -0.000976562v147h-4c-68.667 -114.667 -170.334 -172 -305.001 -172c-99.333 0 -177.5 28.167 -234.5 84.5s-85.5 131.5 -85.5 225.5c0 198.667 117.667 313.334 353 344.001l278 37c0 112 -60.667 168 -182 168c-122 0 -238 -36.333 -348 -109v238
c44 22.667 104.167 42.667 180.5 60s145.833 26 208.5 26c292 0 438 -145.667 438 -437v-612zM688.001 415.999l0.000976562 68.999l-186 -24c-102.667 -13.333 -154 -59.666 -154 -138.999c0 -36 12.5 -65.5 37.5 -88.5s58.833 -34.5 101.5 -34.5
c59.333 0 107.666 20.5 144.999 61.5s56 92.833 56 155.5zM914.002 1186h-207l-158 188l-147 -188h-207l235 325h248z" />
    <glyph glyph-name="atilde" unicode="&#xe3;" horiz-adv-x="1102" 
d="M985 0l-298.999 -0.000976562v147h-4c-68.667 -114.667 -170.334 -172 -305.001 -172c-99.333 0 -177.5 28.167 -234.5 84.5s-85.5 131.5 -85.5 225.5c0 198.667 117.667 313.334 353 344.001l278 37c0 112 -60.667 168 -182 168c-122 0 -238 -36.333 -348 -109v238
c44 22.667 104.167 42.667 180.5 60s145.833 26 208.5 26c292 0 438 -145.667 438 -437v-612zM688.001 415.999l0.000976562 68.999l-186 -24c-102.667 -13.333 -154 -59.666 -154 -138.999c0 -36 12.5 -65.5 37.5 -88.5s58.833 -34.5 101.5 -34.5
c59.333 0 107.666 20.5 144.999 61.5s56 92.833 56 155.5zM907.002 1497c0 -93.333 -18.5 -165.5 -55.5 -216.5s-87.5 -76.5 -151.5 -76.5c-57.333 0 -113.333 14.333 -168 43c-59.333 31.333 -100.333 47 -123 47c-53.333 0 -80 -36 -80 -108h-141
c0 92.667 18.333 164.667 55 216s88 77 154 77c54 0 110 -16.333 168 -49c52.667 -29.333 92.667 -44 120 -44c52 0 78 37 78 111h144z" />
    <glyph glyph-name="adieresis" unicode="&#xe4;" horiz-adv-x="1102" 
d="M985 0l-298.999 -0.000976562v147h-4c-68.667 -114.667 -170.334 -172 -305.001 -172c-99.333 0 -177.5 28.167 -234.5 84.5s-85.5 131.5 -85.5 225.5c0 198.667 117.667 313.334 353 344.001l278 37c0 112 -60.667 168 -182 168c-122 0 -238 -36.333 -348 -109v238
c44 22.667 104.167 42.667 180.5 60s145.833 26 208.5 26c292 0 438 -145.667 438 -437v-612zM688.001 415.999l0.000976562 68.999l-186 -24c-102.667 -13.333 -154 -59.666 -154 -138.999c0 -36 12.5 -65.5 37.5 -88.5s58.833 -34.5 101.5 -34.5
c59.333 0 107.666 20.5 144.999 61.5s56 92.833 56 155.5zM787.002 1186c-44.667 0 -81.334 13 -110.001 39s-43 58.667 -43 98c0 40.667 14.333 73.667 43 99s65.334 38 110.001 38s81.5 -12.833 110.5 -38.5s43.5 -58.5 43.5 -98.5s-14.333 -72.833 -43 -98.5
s-65.667 -38.5 -111 -38.5zM329.002 1186c-45.333 0 -82.333 13.167 -111 39.5s-43 58.833 -43 97.5c0 40 14.667 72.833 44 98.5s66 38.5 110 38.5c45.333 0 82.166 -12.833 110.499 -38.5s42.5 -58.5 42.5 -98.5c0 -40.667 -14.167 -73.667 -42.5 -99
s-65.166 -38 -110.499 -38z" />
    <glyph glyph-name="aring" unicode="&#xe5;" horiz-adv-x="1102" 
d="M985 0l-298.999 -0.000976562v147h-4c-68.667 -114.667 -170.334 -172 -305.001 -172c-99.333 0 -177.5 28.167 -234.5 84.5s-85.5 131.5 -85.5 225.5c0 198.667 117.667 313.334 353 344.001l278 37c0 112 -60.667 168 -182 168c-122 0 -238 -36.333 -348 -109v238
c44 22.667 104.167 42.667 180.5 60s145.833 26 208.5 26c292 0 438 -145.667 438 -437v-612zM688.001 415.999l0.000976562 68.999l-186 -24c-102.667 -13.333 -154 -59.666 -154 -138.999c0 -36 12.5 -65.5 37.5 -88.5s58.833 -34.5 101.5 -34.5
c59.333 0 107.666 20.5 144.999 61.5s56 92.833 56 155.5zM573.002 1186c-68 0 -124.166 19.833 -168.499 59.5s-66.5 91.5 -66.5 155.5c0 67.333 23.167 121 69.5 161s103.166 60 170.499 60c71.333 0 129 -19.833 173 -59.5s66 -91.5 66 -155.5
c0 -65.333 -23.833 -118.5 -71.5 -159.5s-105.167 -61.5 -172.5 -61.5zM573.003 1499c-64 0 -96 -31.333 -96 -94s32 -94 96 -94c30 0 54.667 9.16699 74 27.5s29 40.5 29 66.5c0 27.333 -9.5 49.833 -28.5 67.5s-43.833 26.5 -74.5 26.5z" />
    <glyph glyph-name="ae" unicode="&#xe6;" horiz-adv-x="1696" 
d="M1640 422l-667 0.000976562c13.333 -148.667 107.333 -223 282 -223c106.667 0 205.667 26.667 297 80v-226c-104 -52 -230 -78 -378 -78c-179.333 0 -312 59.667 -398 179h-4c-94 -119.333 -214.667 -179 -362 -179c-110.667 0 -197.167 27.5 -259.5 82.5
s-93.5 131.5 -93.5 229.5c0 97.333 32.167 175.333 96.5 234s156.5 92.667 276.5 102l256 20c0 127.333 -61.333 191 -184 191c-116 0 -230.667 -35.667 -344 -107v236c124.667 57.333 248 86 370 86c156 0 264 -44.667 324 -134h4c88 89.333 196.667 134 326 134
c142.667 0 254.667 -44.333 336 -133s122 -210.334 122 -365.001v-129zM1348 616.001c0 146.667 -58.999 220 -176.999 220c-50 0 -93.833 -20.667 -131.5 -62s-59.834 -94 -66.501 -158h375zM686.001 414.001v45l-156 -13c-122.667 -10 -184 -53.667 -184 -131
c0 -33.333 13 -61 39 -83s60 -33 102 -33c57.333 0 104.833 19.833 142.5 59.5s56.5 91.5 56.5 155.5z" />
    <glyph glyph-name="ccedilla" unicode="&#xe7;" horiz-adv-x="983" 
d="M909 37c-71.333 -41.333 -174.335 -61.999 -309.002 -61.999c-157.333 0 -284.666 47.667 -381.999 143s-146 218.333 -146 369c0 174 52.167 311.167 156.5 411.5s243.833 150.5 418.5 150.5c120.667 0 208 -16 262 -48v-268c-66 49.333 -139.667 74 -221 74
c-90.667 0 -162.5 -26.5 -215.5 -79.5s-79.5 -126.167 -79.5 -219.5c0 -90.667 25.333 -161.834 76 -213.501s120.334 -77.5 209.001 -77.5c78.667 0 155.667 24.667 231 74v-254zM425.998 -450.999v137.999c23.333 -4 47.333 -6 72 -6c82 0 123 24.333 123 73
c0 44 -37 66 -111 66c-8.66699 0 -21 -0.666992 -37 -2v182h172v-82c124.667 -5.33301 187 -60.666 187 -165.999c0 -138 -106 -207 -318 -207c-30.667 0 -60 1.33301 -88 4z" />
    <glyph glyph-name="egrave" unicode="&#xe8;" horiz-adv-x="1108" 
d="M1053 422h-668.002c10.667 -148.667 104.334 -223 281.001 -223c112.667 0 211.667 26.667 297 80v-228c-94.667 -50.667 -217.667 -76 -369 -76c-165.333 0 -293.666 45.833 -384.999 137.5s-137 219.5 -137 383.5c0 170 49.333 304.667 148 404s220 149 364 149
c149.333 0 264.833 -44.333 346.5 -133s122.5 -209 122.5 -361v-133zM759.998 616c0 146.667 -59.333 220 -178 220c-50.667 0 -94.5 -21 -131.5 -63s-59.5 -94.333 -67.5 -157h377zM794.998 1186h-227l-314 323h281z" />
    <glyph glyph-name="eacute" unicode="&#xe9;" horiz-adv-x="1108" 
d="M1053 422h-668.002c10.667 -148.667 104.334 -223 281.001 -223c112.667 0 211.667 26.667 297 80v-228c-94.667 -50.667 -217.667 -76 -369 -76c-165.333 0 -293.666 45.833 -384.999 137.5s-137 219.5 -137 383.5c0 170 49.333 304.667 148 404s220 149 364 149
c149.333 0 264.833 -44.333 346.5 -133s122.5 -209 122.5 -361v-133zM759.998 616c0 146.667 -59.333 220 -178 220c-50.667 0 -94.5 -21 -131.5 -63s-59.5 -94.333 -67.5 -157h377zM920.998 1509l-313 -323h-228l260 323h281z" />
    <glyph glyph-name="ecircumflex" unicode="&#xea;" horiz-adv-x="1108" 
d="M1053 422h-668.002c10.667 -148.667 104.334 -223 281.001 -223c112.667 0 211.667 26.667 297 80v-228c-94.667 -50.667 -217.667 -76 -369 -76c-165.333 0 -293.666 45.833 -384.999 137.5s-137 219.5 -137 383.5c0 170 49.333 304.667 148 404s220 149 364 149
c149.333 0 264.833 -44.333 346.5 -133s122.5 -209 122.5 -361v-133zM759.998 616c0 146.667 -59.333 220 -178 220c-50.667 0 -94.5 -21 -131.5 -63s-59.5 -94.333 -67.5 -157h377zM948.998 1186h-207l-158 188l-147 -188h-207l235 325h248z" />
    <glyph glyph-name="edieresis" unicode="&#xeb;" horiz-adv-x="1108" 
d="M1053 422h-668.002c10.667 -148.667 104.334 -223 281.001 -223c112.667 0 211.667 26.667 297 80v-228c-94.667 -50.667 -217.667 -76 -369 -76c-165.333 0 -293.666 45.833 -384.999 137.5s-137 219.5 -137 383.5c0 170 49.333 304.667 148 404s220 149 364 149
c149.333 0 264.833 -44.333 346.5 -133s122.5 -209 122.5 -361v-133zM759.998 616c0 146.667 -59.333 220 -178 220c-50.667 0 -94.5 -21 -131.5 -63s-59.5 -94.333 -67.5 -157h377zM807.998 1186c-44.667 0 -81.334 13 -110.001 39s-43 58.667 -43 98
c0 40.667 14.333 73.667 43 99s65.334 38 110.001 38s81.5 -12.833 110.5 -38.5s43.5 -58.5 43.5 -98.5s-14.333 -72.833 -43 -98.5s-65.667 -38.5 -111 -38.5zM349.998 1186c-45.333 0 -82.333 13.167 -111 39.5s-43 58.833 -43 97.5c0 40 14.667 72.833 44 98.5
s66 38.5 110 38.5c45.333 0 82.166 -12.833 110.499 -38.5s42.5 -58.5 42.5 -98.5c0 -40.667 -14.167 -73.667 -42.5 -99s-65.166 -38 -110.499 -38z" />
    <glyph glyph-name="igrave" unicode="&#xec;" horiz-adv-x="582" 
d="M449 0h-316v1024h316v-1024zM514 1186h-227l-314 323h281z" />
    <glyph glyph-name="iacute" unicode="&#xed;" horiz-adv-x="582" 
d="M449 0h-316v1024h316v-1024zM612 1509l-313 -323h-228l260 323h281z" />
    <glyph glyph-name="icircumflex" unicode="&#xee;" horiz-adv-x="582" 
d="M449 0h-316v1024h316v-1024zM657 1186h-207l-158 188l-147 -188h-207l235 325h248z" />
    <glyph glyph-name="idieresis" unicode="&#xef;" horiz-adv-x="582" 
d="M449 0h-316v1024h316v-1024zM526 1186c-44.667 0 -81.334 13 -110.001 39s-43 58.667 -43 98c0 40.667 14.333 73.667 43 99s65.334 38 110.001 38s81.5 -12.833 110.5 -38.5s43.5 -58.5 43.5 -98.5s-14.333 -72.833 -43 -98.5s-65.667 -38.5 -111 -38.5zM68 1186
c-45.333 0 -82.333 13.167 -111 39.5s-43 58.833 -43 97.5c0 40 14.667 72.833 44 98.5s66 38.5 110 38.5c45.333 0 82.166 -12.833 110.499 -38.5s42.5 -58.5 42.5 -98.5c0 -40.667 -14.167 -73.667 -42.5 -99s-65.166 -38 -110.499 -38z" />
    <glyph glyph-name="eth" unicode="&#xf0;" horiz-adv-x="1215" 
d="M756 965l4 2c-56 98 -121 177 -195 237l-291 -143l-81 141l241 115c-104.667 83.333 -194.667 149.666 -270 198.999h352c7.33301 -4 51 -36.333 131 -97l273 133l77 -137l-215 -104c240.667 -194 361 -443.333 361 -748c0 -173.333 -50 -314.666 -150 -423.999
s-231.667 -164 -395 -164c-165.333 0 -294.333 48.167 -387 144.5s-139 227.833 -139 394.5c0 154 44.167 280.167 132.5 378.5s203.833 147.5 346.5 147.5c78 0 146.333 -25 205 -75zM612 807c-68.667 0 -122.332 -26.167 -160.999 -78.5s-58 -123.833 -58 -214.5
c0 -93.333 19 -166.166 57 -218.499s90.667 -78.5 158 -78.5c65.333 0 117.166 27.167 155.499 81.5s57.5 128.166 57.5 221.499c0 191.333 -69.667 287 -209 287z" />
    <glyph glyph-name="ntilde" unicode="&#xf1;" horiz-adv-x="1239" 
d="M1122 0h-315v569c0 158.667 -56.667 238 -170 238c-54.667 0 -99.667 -21 -135 -63s-53 -95.333 -53 -160v-584h-316v1024h316v-162h4c75.333 124.667 185 187 329 187c226.667 0 340 -140.667 340 -422v-627zM982 1497c0 -93.333 -18.5 -165.5 -55.5 -216.5
s-87.5 -76.5 -151.5 -76.5c-57.333 0 -113.333 14.333 -168 43c-59.333 31.333 -100.333 47 -123 47c-53.333 0 -80 -36 -80 -108h-141c0 92.667 18.333 164.667 55 216s88 77 154 77c54 0 110 -16.333 168 -49c52.667 -29.333 92.667 -44 120 -44c52 0 78 37 78 111h144z
" />
    <glyph glyph-name="ograve" unicode="&#xf2;" horiz-adv-x="1251" 
d="M621 -25c-170.667 0 -304.833 47.833 -402.5 143.5s-146.5 225.5 -146.5 389.5c0 169.333 50.667 301.833 152 397.5s238.333 143.5 411 143.5c170 0 303.333 -47.833 400 -143.5s145 -222.167 145 -379.5c0 -170 -49.833 -304.333 -149.5 -403
s-236.167 -148 -409.5 -148zM629.001 807c-74.667 0 -132.667 -25.667 -174 -77s-62 -124 -62 -218c0 -196.667 79.333 -295 238 -295c151.333 0 227 101 227 303c0 191.333 -76.333 287 -229 287zM852.001 1186h-227l-314 323h281z" />
    <glyph glyph-name="oacute" unicode="&#xf3;" horiz-adv-x="1251" 
d="M621 -25c-170.667 0 -304.833 47.833 -402.5 143.5s-146.5 225.5 -146.5 389.5c0 169.333 50.667 301.833 152 397.5s238.333 143.5 411 143.5c170 0 303.333 -47.833 400 -143.5s145 -222.167 145 -379.5c0 -170 -49.833 -304.333 -149.5 -403
s-236.167 -148 -409.5 -148zM629.001 807c-74.667 0 -132.667 -25.667 -174 -77s-62 -124 -62 -218c0 -196.667 79.333 -295 238 -295c151.333 0 227 101 227 303c0 191.333 -76.333 287 -229 287zM968.001 1509l-313 -323h-228l260 323h281z" />
    <glyph glyph-name="ocircumflex" unicode="&#xf4;" horiz-adv-x="1251" 
d="M621 -25c-170.667 0 -304.833 47.833 -402.5 143.5s-146.5 225.5 -146.5 389.5c0 169.333 50.667 301.833 152 397.5s238.333 143.5 411 143.5c170 0 303.333 -47.833 400 -143.5s145 -222.167 145 -379.5c0 -170 -49.833 -304.333 -149.5 -403
s-236.167 -148 -409.5 -148zM629.001 807c-74.667 0 -132.667 -25.667 -174 -77s-62 -124 -62 -218c0 -196.667 79.333 -295 238 -295c151.333 0 227 101 227 303c0 191.333 -76.333 287 -229 287zM988.001 1186h-207l-158 188l-147 -188h-207l235 325h248z" />
    <glyph glyph-name="otilde" unicode="&#xf5;" horiz-adv-x="1251" 
d="M621 -25c-170.667 0 -304.833 47.833 -402.5 143.5s-146.5 225.5 -146.5 389.5c0 169.333 50.667 301.833 152 397.5s238.333 143.5 411 143.5c170 0 303.333 -47.833 400 -143.5s145 -222.167 145 -379.5c0 -170 -49.833 -304.333 -149.5 -403
s-236.167 -148 -409.5 -148zM629.001 807c-74.667 0 -132.667 -25.667 -174 -77s-62 -124 -62 -218c0 -196.667 79.333 -295 238 -295c151.333 0 227 101 227 303c0 191.333 -76.333 287 -229 287zM985.001 1497c0 -93.333 -18.5 -165.5 -55.5 -216.5
s-87.5 -76.5 -151.5 -76.5c-57.333 0 -113.333 14.333 -168 43c-59.333 31.333 -100.333 47 -123 47c-53.333 0 -80 -36 -80 -108h-141c0 92.667 18.333 164.667 55 216s88 77 154 77c54 0 110 -16.333 168 -49c52.667 -29.333 92.667 -44 120 -44c52 0 78 37 78 111h144z
" />
    <glyph glyph-name="odieresis" unicode="&#xf6;" horiz-adv-x="1251" 
d="M621 -25c-170.667 0 -304.833 47.833 -402.5 143.5s-146.5 225.5 -146.5 389.5c0 169.333 50.667 301.833 152 397.5s238.333 143.5 411 143.5c170 0 303.333 -47.833 400 -143.5s145 -222.167 145 -379.5c0 -170 -49.833 -304.333 -149.5 -403
s-236.167 -148 -409.5 -148zM629.001 807c-74.667 0 -132.667 -25.667 -174 -77s-62 -124 -62 -218c0 -196.667 79.333 -295 238 -295c151.333 0 227 101 227 303c0 191.333 -76.333 287 -229 287zM859.001 1186c-44.667 0 -81.334 13 -110.001 39s-43 58.667 -43 98
c0 40.667 14.333 73.667 43 99s65.334 38 110.001 38s81.5 -12.833 110.5 -38.5s43.5 -58.5 43.5 -98.5s-14.333 -72.833 -43 -98.5s-65.667 -38.5 -111 -38.5zM401.001 1186c-45.333 0 -82.333 13.167 -111 39.5s-43 58.833 -43 97.5c0 40 14.667 72.833 44 98.5
s66 38.5 110 38.5c45.333 0 82.166 -12.833 110.499 -38.5s42.5 -58.5 42.5 -98.5c0 -40.667 -14.167 -73.667 -42.5 -99s-65.166 -38 -110.499 -38z" />
    <glyph glyph-name="divide" unicode="&#xf7;" horiz-adv-x="1448" 
d="M731 846c-39.333 0 -72.666 13.333 -99.999 40s-41 59 -41 97c0 41.333 13.167 75.833 39.5 103.5s60.166 41.5 101.499 41.5s74.5 -13.333 99.5 -40s37.5 -61 37.5 -103c0 -40.667 -13.5 -74 -40.5 -100s-59.167 -39 -96.5 -39zM1212 485h-974v203h974v-203zM727 47
c-39.333 0 -72.666 13 -99.999 39s-41 58 -41 96c0 41.333 13.167 76 39.5 104s60.166 42 101.499 42s74.5 -13.5 99.5 -40.5s37.5 -61.5 37.5 -103.5c0 -40.667 -13.333 -73.667 -40 -99s-59 -38 -97 -38z" />
    <glyph glyph-name="oslash" unicode="&#xf8;" horiz-adv-x="1252" 
d="M1206 1010l-139 -145.999c75.333 -95.333 113 -208 113 -338c0 -172.667 -49.333 -307.334 -148 -404.001s-235.667 -145 -411 -145c-132 0 -241.333 28.667 -328 86l-135 -141l-119 107l137 143c-69.333 94 -104 206.667 -104 338c0 168.667 50.833 301 152.5 397
s239.167 144 412.5 144c119.333 0 223 -27.333 311 -82l139 147zM772 791.001c-37.333 26.667 -84.333 40 -141 40c-172 0 -258 -105.667 -258 -317c0 -48.667 6 -89 18 -121zM862 651.001l-393 -409c40.667 -30 94 -45 160 -45c168 0 252 107.667 252 323
c0 49.333 -6.33301 93 -19 131z" />
    <glyph glyph-name="ugrave" unicode="&#xf9;" horiz-adv-x="1239" 
d="M1106 0h-315v156h-5c-78 -120.667 -182.333 -181 -313 -181c-237.333 0 -356 143.667 -356 431v618h315v-590c0 -144.667 57.333 -217 172 -217c56.667 0 102 19.833 136 59.5s51 93.5 51 161.5v586h315v-1024zM784 1186h-227l-314 323h281z" />
    <glyph glyph-name="uacute" unicode="&#xfa;" horiz-adv-x="1239" 
d="M1106 0h-315v156h-5c-78 -120.667 -182.333 -181 -313 -181c-237.333 0 -356 143.667 -356 431v618h315v-590c0 -144.667 57.333 -217 172 -217c56.667 0 102 19.833 136 59.5s51 93.5 51 161.5v586h315v-1024zM977 1509l-313 -323h-228l260 323h281z" />
    <glyph glyph-name="ucircumflex" unicode="&#xfb;" horiz-adv-x="1239" 
d="M1106 0h-315v156h-5c-78 -120.667 -182.333 -181 -313 -181c-237.333 0 -356 143.667 -356 431v618h315v-590c0 -144.667 57.333 -217 172 -217c56.667 0 102 19.833 136 59.5s51 93.5 51 161.5v586h315v-1024zM970 1186h-207l-158 188l-147 -188h-207l235 325h248z" />
    <glyph glyph-name="udieresis" unicode="&#xfc;" horiz-adv-x="1239" 
d="M1106 0h-315v156h-5c-78 -120.667 -182.333 -181 -313 -181c-237.333 0 -356 143.667 -356 431v618h315v-590c0 -144.667 57.333 -217 172 -217c56.667 0 102 19.833 136 59.5s51 93.5 51 161.5v586h315v-1024zM844 1186c-44.667 0 -81.334 13 -110.001 39
s-43 58.667 -43 98c0 40.667 14.333 73.667 43 99s65.334 38 110.001 38s81.5 -12.833 110.5 -38.5s43.5 -58.5 43.5 -98.5s-14.333 -72.833 -43 -98.5s-65.667 -38.5 -111 -38.5zM386 1186c-45.333 0 -82.333 13.167 -111 39.5s-43 58.833 -43 97.5
c0 40 14.667 72.833 44 98.5s66 38.5 110 38.5c45.333 0 82.166 -12.833 110.499 -38.5s42.5 -58.5 42.5 -98.5c0 -40.667 -14.167 -73.667 -42.5 -99s-65.166 -38 -110.499 -38z" />
    <glyph glyph-name="yacute" unicode="&#xfd;" horiz-adv-x="1102" 
d="M1108 1024l-416 -1106c-100 -266 -250.667 -399 -452 -399c-76.667 0 -139.667 8.66699 -189 26v252c42 -24.667 87.667 -37 137 -37c81.333 0 138 38.333 170 115l54 127l-416 1022h350l191 -623c12 -38.667 21.333 -84.334 28 -137.001h4c6 38.667 17 83.667 33 135
l193 625h313zM834 1509l-313 -323h-228l260 323h281z" />
    <glyph glyph-name="thorn" unicode="&#xfe;" horiz-adv-x="1270" 
d="M453 119h-4v-590h-316v1987h316v-646h4c78 119.333 187.667 179 329 179c132.667 0 235.167 -45.5 307.5 -136.5s108.5 -214.833 108.5 -371.5c0 -170.667 -42.167 -307.667 -126.5 -411s-196.5 -155 -336.5 -155c-123.333 0 -217.333 48 -282 144zM444 539v-81.999
c0 -70.667 18.667 -128.334 56 -173.001s86.333 -67 147 -67c72 0 127.833 27.833 167.5 83.5s59.5 134.5 59.5 236.5c0 180 -70 270 -210 270c-64.667 0 -117.5 -24.5 -158.5 -73.5s-61.5 -113.833 -61.5 -194.5z" />
    <glyph glyph-name="ydieresis" unicode="&#xff;" horiz-adv-x="1102" 
d="M1108 1024l-416 -1106c-100 -266 -250.667 -399 -452 -399c-76.667 0 -139.667 8.66699 -189 26v252c42 -24.667 87.667 -37 137 -37c81.333 0 138 38.333 170 115l54 127l-416 1022h350l191 -623c12 -38.667 21.333 -84.334 28 -137.001h4c6 38.667 17 83.667 33 135
l193 625h313zM793 1186c-44.667 0 -81.334 13 -110.001 39s-43 58.667 -43 98c0 40.667 14.333 73.667 43 99s65.334 38 110.001 38s81.5 -12.833 110.5 -38.5s43.5 -58.5 43.5 -98.5s-14.333 -72.833 -43 -98.5s-65.667 -38.5 -111 -38.5zM335 1186
c-45.333 0 -82.333 13.167 -111 39.5s-43 58.833 -43 97.5c0 40 14.667 72.833 44 98.5s66 38.5 110 38.5c45.333 0 82.166 -12.833 110.499 -38.5s42.5 -58.5 42.5 -98.5c0 -40.667 -14.167 -73.667 -42.5 -99s-65.166 -38 -110.499 -38z" />
    <glyph glyph-name="dotlessi" unicode="&#x131;" horiz-adv-x="582" 
d="M449 0h-316v1024h316v-1024z" />
    <glyph glyph-name="OE" unicode="&#x152;" horiz-adv-x="1925" 
d="M1860 0l-827.998 0.000976562c-17.333 0 -56.333 -4 -117 -12c-60 -8.66699 -112.333 -13 -157 -13c-204.667 0 -369.834 67.667 -495.501 203s-188.5 308.666 -188.5 519.999c0 228 64.667 411.667 194 551s301.333 209 516 209c42 0 92.333 -4 151 -12
c59.333 -8 95.666 -12 108.999 -12h783v-263h-504v-323h469v-264h-469v-322h537v-262zM991.002 305.001v823c-57.333 34.667 -127 52 -209 52c-112 0 -201 -43.167 -267 -129.5s-99 -199.5 -99 -339.5c0 -138.667 33.667 -249.5 101 -332.5s154.333 -124.5 261 -124.5
c77.333 0 148.333 17 213 51z" />
    <glyph glyph-name="oe" unicode="&#x153;" horiz-adv-x="1893" 
d="M1837 422l-669.998 0.000976562c9.33301 -148.667 103.666 -223 282.999 -223c111.333 0 209.666 26.667 294.999 80v-228c-94.667 -50.667 -210 -76 -346 -76c-168 0 -298.333 63 -391 189h-4c-91.333 -124.667 -227.333 -187 -408 -187
c-156 0 -282.333 47.667 -379 143s-145 224.666 -145 387.999c0 167.333 49 299.666 147 396.999s227.667 146 389 146c89.333 0 168.833 -16.5 238.5 -49.5s121.167 -75.5 154.5 -127.5h5c78.667 116.667 204 175 376 175c142 0 253.333 -44.667 334 -134
s121 -208.666 121 -357.999v-135zM1542 616.001c0 146.667 -58 220 -174 220c-53.333 0 -98.333 -21.167 -135 -63.5s-58.667 -94.5 -66 -156.5h375zM631.002 807.001c-75.333 0 -133.833 -25.833 -175.5 -77.5s-62.5 -124.167 -62.5 -217.5
c0 -195.333 78.667 -293 236 -293c152.667 0 229 99 229 297c0 92 -19.833 163.5 -59.5 214.5s-95.5 76.5 -167.5 76.5z" />
    <glyph glyph-name="Scaron" unicode="&#x160;" horiz-adv-x="1148" 
d="M98 55v319.998c58 -48.667 121 -85.167 189 -109.5s136.667 -36.5 206 -36.5c40.667 0 76.167 3.66699 106.5 11s55.666 17.5 75.999 30.5s35.5 28.333 45.5 46s15 36.834 15 57.501c0 28 -8 53 -24 75s-37.833 42.333 -65.5 61s-60.5 36.667 -98.5 54s-79 35 -123 53
c-112 46.667 -195.5 103.667 -250.5 171s-82.5 148.666 -82.5 243.999c0 74.667 15 138.834 45 192.501s70.833 97.834 122.5 132.501s111.5 60.167 179.5 76.5s140 24.5 216 24.5c74.667 0 140.834 -4.5 198.501 -13.5s110.834 -22.833 159.501 -41.5v-299
c-24 16.667 -50.167 31.334 -78.5 44.001s-57.5 23.167 -87.5 31.5s-59.833 14.5 -89.5 18.5s-57.834 6 -84.501 6c-36.667 0 -70 -3.5 -100 -10.5s-55.333 -16.833 -76 -29.5s-36.667 -27.834 -48 -45.501s-17 -37.5 -17 -59.5c0 -24 6.33301 -45.5 19 -64.5
s30.667 -37 54 -54s51.666 -33.667 84.999 -50s71 -33.166 113 -50.499c57.333 -24 108.833 -49.5 154.5 -76.5s84.834 -57.5 117.501 -91.5s57.667 -72.833 75 -116.5s26 -94.5 26 -152.5c0 -80 -15.167 -147.167 -45.5 -201.5s-71.5 -98.333 -123.5 -132
s-112.5 -57.834 -181.5 -72.501s-141.833 -22 -218.5 -22c-78.667 0 -153.5 6.66699 -224.5 20s-132.5 33.333 -184.5 60zM973 1861l-238 -325h-248l-235 325h205l155 -188l156 188h205z" />
    <glyph glyph-name="scaron" unicode="&#x161;" horiz-adv-x="901" 
d="M66 27l-0.00195312 256.001c52 -31.333 103.833 -54.666 155.5 -69.999s100.5 -23 146.5 -23c56 0 100.167 7.66699 132.5 23s48.5 38.666 48.5 69.999c0 20 -7.33301 36.667 -22 50s-33.5 25 -56.5 35s-48.167 19 -75.5 27s-53.666 17 -78.999 27
c-40.667 15.333 -76.5 31.833 -107.5 49.5s-57 38.167 -78 61.5s-37 50.333 -48 81s-16.5 67 -16.5 109c0 57.333 12.5 106.666 37.5 147.999s58.333 75.166 100 101.499s89.334 45.666 143.001 57.999s109.5 18.5 167.5 18.5c45.333 0 91.333 -3.5 138 -10.5
s92.667 -17.167 138 -30.5v-244c-40 23.333 -82.833 40.833 -128.5 52.5s-90.5 17.5 -134.5 17.5c-20.667 0 -40.167 -1.83301 -58.5 -5.5s-34.5 -9 -48.5 -16s-25 -16 -33 -27s-12 -23.5 -12 -37.5c0 -18.667 6 -34.667 18 -48s27.667 -24.833 47 -34.5
s40.833 -18.334 64.5 -26.001l70.5 -23.5c42 -14.667 80 -30.667 114 -48s63.167 -37.666 87.5 -60.999s43 -50.666 56 -81.999s19.5 -68.666 19.5 -111.999c0 -60.667 -13.167 -112.5 -39.5 -155.5s-61.333 -78 -105 -105s-94 -46.667 -151 -59
s-116.167 -18.5 -177.5 -18.5c-112.667 0 -217 17.333 -313 52zM810.998 1511l-238 -325h-248l-235 325h205l155 -188l156 188h205z" />
    <glyph glyph-name="Ydieresis" unicode="&#x178;" horiz-adv-x="1243" 
d="M1245 1434l-467 -924v-510h-323v504l-455 930h369l231 -535c4 -10 15 -49 33 -117h4c8.66699 48 19 85.667 31 113l235 539h342zM858 1567c-44.667 0 -81.334 13 -110.001 39s-43 58.667 -43 98c0 40.667 14.333 73.667 43 99s65.334 38 110.001 38
s81.5 -12.833 110.5 -38.5s43.5 -58.5 43.5 -98.5s-14.333 -72.833 -43 -98.5s-65.667 -38.5 -111 -38.5zM400 1567c-45.333 0 -82.333 13.167 -111 39.5s-43 58.833 -43 97.5c0 40 14.667 72.833 44 98.5s66 38.5 110 38.5c45.333 0 82.166 -12.833 110.499 -38.5
s42.5 -58.5 42.5 -98.5c0 -40.667 -14.167 -73.667 -42.5 -99s-65.166 -38 -110.499 -38z" />
    <glyph glyph-name="Zcaron" unicode="&#x17d;" horiz-adv-x="1243" 
d="M1196 0h-1155v186l735 985h-682v263h1100v-181l-719 -991h721v-262zM990 1858l-238 -325h-248l-235 325h205l155 -188l156 188h205z" />
    <glyph glyph-name="zcaron" unicode="&#x17e;" horiz-adv-x="981" 
d="M944 0h-919v131l514 660h-463v233h864v-156l-487 -635h491v-233zM872 1511l-238 -325h-248l-235 325h205l155 -188l156 188h205z" />
    <glyph glyph-name="florin" unicode="&#x192;" 
d="M1044 1174c-42.667 20 -87.002 30.001 -133.002 30.001c-82.667 0 -131.667 -45.667 -147 -137l-23 -137h158v-215h-192l-91 -594c-20 -130.667 -66.667 -234.334 -140 -311.001s-165.666 -115 -276.999 -115c-33.333 0 -73.666 6.66699 -120.999 20v242
c26 -13.333 56.667 -20 92 -20c82 0 133.333 67.333 154 202l88 576h-105v215h142l22 149c16.667 111.333 61.667 200.333 135 267s166.333 100 279 100c54.667 0 107.667 -7.66699 159 -23v-249z" />
    <glyph glyph-name="circumflex" unicode="&#x2c6;" horiz-adv-x="785" 
d="M750 1186h-207l-158 188l-147 -188h-207l235 325h248z" />
    <glyph glyph-name="caron" unicode="&#x2c7;" horiz-adv-x="785" 
d="M754 1511l-238 -325h-248l-235 325h205l155 -188l156 188h205z" />
    <glyph glyph-name="ring" unicode="&#x2da;" horiz-adv-x="555" 
d="M274 1186c-68 0 -124.166 19.833 -168.499 59.5s-66.5 91.5 -66.5 155.5c0 67.333 23.167 121 69.5 161s103.166 60 170.499 60c71.333 0 129 -19.833 173 -59.5s66 -91.5 66 -155.5c0 -65.333 -23.833 -118.5 -71.5 -159.5s-105.167 -61.5 -172.5 -61.5zM274.001 1499
c-64 0 -96 -31.333 -96 -94s32 -94 96 -94c30 0 54.667 9.16699 74 27.5s29 40.5 29 66.5c0 27.333 -9.5 49.833 -28.5 67.5s-43.833 26.5 -74.5 26.5z" />
    <glyph glyph-name="tilde" unicode="&#x2dc;" horiz-adv-x="785" 
d="M754 1497c0 -93.333 -18.5 -165.5 -55.5 -216.5s-87.5 -76.5 -151.5 -76.5c-57.333 0 -113.333 14.333 -168 43c-59.333 31.333 -100.333 47 -123 47c-53.333 0 -80 -36 -80 -108h-141c0 92.667 18.333 164.667 55 216s88 77 154 77c54 0 110 -16.333 168 -49
c52.667 -29.333 92.667 -44 120 -44c52 0 78 37 78 111h144z" />
    <glyph glyph-name="uni1980" unicode="&#x1980;" horiz-adv-x="1761" 
d="M932 504c0 -78.667 -12.3252 -150.503 -36.9922 -215.503s-59.334 -120.833 -104.001 -167.5s-98.5 -82.667 -161.5 -108s-132.833 -38 -209.5 -38c-66.667 0 -127.834 4.66699 -183.501 14s-110.5 27.333 -164.5 54v250c47.333 -30 93.666 -50.833 138.999 -62.5
s89.666 -17.5 132.999 -17.5c44.667 0 83.334 7.16699 116.001 21.5s59.667 34.333 81 60s37.166 56.334 47.499 92.001s15.5 74.834 15.5 117.501c0 43.333 -4.83301 83.833 -14.5 121.5s-25 70.167 -46 97.5s-48 48.833 -81 64.5s-72.5 23.5 -118.5 23.5
c-51.333 0 -99.333 -7.16699 -144 -21.5s-84 -33.166 -118 -56.499v258c40 18.667 85.333 33 136 43s109 15 175 15c84.667 0 161.834 -13.167 231.501 -39.5s127.167 -65.166 172.5 -116.499c44 47.333 96.833 84.833 158.5 112.5s133.5 41.5 215.5 41.5
c83.333 0 157.166 -11.167 221.499 -33.5s118.166 -53.833 161.499 -94.5s76.166 -89.667 98.499 -147s33.5 -120.666 33.5 -189.999c0 -54 -5.66699 -102.833 -17 -146.5s-26.5 -82.334 -45.5 -116.001s-41.167 -62.167 -66.5 -85.5s-52 -42 -80 -56
c43.333 -15.333 80 -37.333 110 -66s54.667 -61.5 74 -98.5s33.333 -76.833 42 -119.5s13 -86 13 -130c0 -177.333 -46.333 -312.333 -139 -405s-230.667 -139 -414 -139c-155.333 0 -287 20.333 -395 61v262c60.667 -28 122 -49.333 184 -64s128.333 -22 199 -22
c72.667 0 130 25.5 172 76.5s63 125.167 63 222.5c0 102 -16.5 177.667 -49.5 227s-88.167 74 -165.5 74h-36v240h10c34 0 64.167 7.16699 90.5 21.5s48.833 33.666 67.5 57.999s32.834 53 42.501 86s14.5 68.5 14.5 106.5c0 74 -16.5 132.833 -49.5 176.5
s-82.833 65.5 -149.5 65.5c-40.667 0 -75.334 -7.66699 -104.001 -23s-52.334 -36.833 -71.001 -64.5s-32.334 -60.167 -41.001 -97.5s-13 -78 -13 -122z" />
    <glyph glyph-name="uni1981" unicode="&#x1981;" horiz-adv-x="1761" 
d="M932 504c0 -78.667 -12.3252 -150.503 -36.9922 -215.503s-59.334 -120.833 -104.001 -167.5s-98.5 -82.667 -161.5 -108s-132.833 -38 -209.5 -38c-66.667 0 -127.834 4.66699 -183.501 14s-110.5 27.333 -164.5 54v250c47.333 -30 93.666 -50.833 138.999 -62.5
s89.666 -17.5 132.999 -17.5c44.667 0 83.334 7.16699 116.001 21.5s59.667 34.333 81 60s37.166 56.334 47.499 92.001s15.5 74.834 15.5 117.501c0 43.333 -4.83301 83.833 -14.5 121.5s-25 70.167 -46 97.5s-48 48.833 -81 64.5s-72.5 23.5 -118.5 23.5
c-51.333 0 -99.333 -7.16699 -144 -21.5s-84 -33.166 -118 -56.499v258c40 18.667 85.333 33 136 43s109 15 175 15c84.667 0 161.834 -13.167 231.501 -39.5s127.167 -65.166 172.5 -116.499c44 47.333 96.833 84.833 158.5 112.5s133.5 41.5 215.5 41.5
c83.333 0 157.166 -11.167 221.499 -33.5s118.166 -53.833 161.499 -94.5s76.166 -89.667 98.499 -147s33.5 -120.666 33.5 -189.999c0 -54 -5.66699 -102.833 -17 -146.5s-26.5 -82.334 -45.5 -116.001s-41.167 -62.167 -66.5 -85.5s-52 -42 -80 -56
c43.333 -15.333 80 -37.333 110 -66s54.667 -61.5 74 -98.5s33.333 -76.833 42 -119.5s13 -86 13 -130c0 -177.333 -46.333 -312.333 -139 -405s-230.667 -139 -414 -139c-155.333 0 -287 20.333 -395 61v262c60.667 -28 122 -49.333 184 -64s128.333 -22 199 -22
c72.667 0 130 25.5 172 76.5s63 125.167 63 222.5c0 102 -16.5 177.667 -49.5 227s-88.167 74 -165.5 74h-36v240h10c34 0 64.167 7.16699 90.5 21.5s48.833 33.666 67.5 57.999s32.834 53 42.501 86s14.5 68.5 14.5 106.5c0 74 -16.5 132.833 -49.5 176.5
s-82.833 65.5 -149.5 65.5c-40.667 0 -75.334 -7.66699 -104.001 -23s-52.334 -36.833 -71.001 -64.5s-32.334 -60.167 -41.001 -97.5s-13 -78 -13 -122zM1256.01 1186h-207l-158 188l-147 -188h-207l235 325h248z" />
    <glyph glyph-name="uni1982" unicode="&#x1982;" horiz-adv-x="1855" 
d="M928 874c13.333 24.667 30.501 47.834 51.501 69.501s46.833 40.5 77.5 56.5s66.5 28.5 107.5 37.5s87.833 13.5 140.5 13.5c76 0 143.667 -12 203 -36s109.5 -59.333 150.5 -106s72.167 -104 93.5 -172s32 -145.667 32 -233c0 -82.667 -10.333 -156.834 -31 -222.501
s-50.5 -121.167 -89.5 -166.5s-86.333 -80 -142 -104s-118.5 -36 -188.5 -36c-66 0 -121.833 5.33301 -167.5 16s-86.167 24.667 -121.5 42v241c17.333 -8.66699 34.5 -16.834 51.5 -24.501s35 -14.334 54 -20.001s39 -10.167 60 -13.5s43.833 -5 68.5 -5
c23.333 0 46 4.83301 68 14.5s41.5 26 58.5 49s30.5 53.167 40.5 90.5s15 83.666 15 138.999c0 101.333 -16 178.5 -48 231.5s-83.667 79.5 -155 79.5c-24.667 0 -47.834 -4.66699 -69.501 -14s-40.667 -24 -57 -44s-29.333 -45.333 -39 -76s-14.5 -67.334 -14.5 -110.001
h-299c0 42.667 -4.83301 79.334 -14.5 110.001s-22.667 56 -39 76s-35.333 34.667 -57 44s-44.834 14 -69.501 14c-70.667 0 -122.167 -26.5 -154.5 -79.5s-48.5 -130.167 -48.5 -231.5c0 -55.333 5 -101.666 15 -138.999s23.5 -67.5 40.5 -90.5s36.5 -39.333 58.5 -49
s45 -14.5 69 -14.5c24.667 0 47.5 1.66699 68.5 5s40.833 7.83301 59.5 13.5s36.667 12.334 54 20.001s34.333 15.834 51 24.501v-241c-35.333 -17.333 -75.833 -31.333 -121.5 -42s-101.5 -16 -167.5 -16c-69.333 0 -131.833 12 -187.5 36s-103 58.667 -142 104
s-68.833 100.833 -89.5 166.5s-31 139.834 -31 222.501c0 87.333 10.833 165 32.5 233s53.334 125.333 95.001 172s93 82 154 106s130.833 36 209.5 36c50 0 94.5 -4.5 133.5 -13.5s73.5 -21.5 103.5 -37.5s55.5 -34.833 76.5 -56.5s38.167 -44.834 51.5 -69.501z" />
    <glyph glyph-name="uni1983" unicode="&#x1983;" horiz-adv-x="1057" 
d="M332 -545c8 -1.33301 16.1729 -2 24.5059 -2h24.5c48.667 0 90.167 7.66699 124.5 23s62.5 37.333 84.5 66s38 63.5 48 104.5s15 87.167 15 138.5c0 55.333 -3 100.833 -9 136.5s-13 67.167 -21 94.5c-40.667 -33.333 -82.167 -57.666 -124.5 -72.999
s-91.166 -23 -146.499 -23c-34.667 0 -67.834 4.83301 -99.501 14.5s-59.5 25.667 -83.5 48s-43.167 51.5 -57.5 87.5s-21.5 80.333 -21.5 133c0 57.333 9 104.333 27 141s40.667 65.667 68 87s57.166 36 89.499 44s62.5 12 90.5 12c49.333 0 94.666 -6.83301 135.999 -20.5
s79 -31.834 113 -54.501c12.667 24.667 22 51.334 28 80.001s9 58.667 9 90c0 32 -5 62.167 -15 90.5s-25.5 53.166 -46.5 74.499s-47.167 38.333 -78.5 51s-68.666 19 -111.999 19c-36 0 -69.167 -2 -99.5 -6s-58.5 -9.5 -84.5 -16.5s-50.333 -15.167 -73 -24.5
s-44.667 -19.666 -66 -30.999v254c25.333 8 50.666 15.5 75.999 22.5s52.333 13 81 18s59.5 8.83301 92.5 11.5s69.833 4 110.5 4c89.333 0 168.166 -10.333 236.499 -31s125.666 -50.834 171.999 -90.501s81.333 -88.167 105 -145.5s35.5 -122.666 35.5 -195.999
c0 -48 -4.16699 -91.167 -12.5 -129.5s-19.333 -72.833 -33 -103.5s-28.834 -57.834 -45.501 -81.501s-33.334 -45.167 -50.001 -64.5c15.333 -20.667 31 -44.834 47 -72.501s30.5 -59.167 43.5 -94.5s23.667 -74.666 32 -117.999s12.5 -91 12.5 -143
c0 -88 -11.833 -166.667 -35.5 -236s-58.667 -127.833 -105 -175.5s-103.5 -84.167 -171.5 -109.5s-146.333 -38 -235 -38c-36.667 0 -70 2 -100 6v229zM381.006 137c9.33301 0 19.9971 1.66895 31.9971 5.00195s24.5 8.16602 37.5 14.499s25.5 13.833 37.5 22.5
s22.667 18 32 28c-21.333 18.667 -43.666 34.5 -66.999 47.5s-46.666 19.5 -69.999 19.5s-41.166 -6.83301 -53.499 -20.5s-18.5 -29.834 -18.5 -48.501s5.33301 -34.667 16 -48s28.667 -20 54 -20z" />
    <glyph glyph-name="uni1984" unicode="&#x1984;" horiz-adv-x="1876" 
d="M1032 373c-42 -70 -82.667 -130.003 -122 -180.003s-79.833 -91.167 -121.5 -123.5s-85.834 -56.166 -132.501 -71.499s-98.667 -23 -156 -23s-112 11.167 -164 33.5s-97.5 55.5 -136.5 99.5s-70 98.5 -93 163.5s-34.5 139.833 -34.5 224.5c0 82 10.833 157 32.5 225
s52.834 126.333 93.501 175s89.667 86.334 147 113.001s122 40 194 40c38.667 0 76.334 -3.83301 113.001 -11.5s68.667 -18.167 96 -31.5v-232c-20.667 10.667 -45.667 19.834 -75 27.501s-61 11.5 -95 11.5c-30 0 -56.5 -7.66699 -79.5 -23s-42.167 -36.666 -57.5 -63.999
s-26.833 -59.666 -34.5 -96.999s-11.5 -78.333 -11.5 -123c0 -49.333 3 -91.666 9 -126.999s14.167 -64.166 24.5 -86.499s22.5 -38.833 36.5 -49.5s29 -16 45 -16s31.667 4.33301 47 13s31.833 22.667 49.5 42s37.167 44.833 58.5 76.5s46 70.5 74 116.5l105 172
c42 70 82.667 130.167 122 180.5s79.833 92 121.5 125s85.834 57.333 132.501 73s98.667 23.5 156 23.5s112 -11.167 164 -33.5s97.5 -55.5 136.5 -99.5s70 -98.333 93 -163s34.5 -139.667 34.5 -225c0 -82 -10.833 -157 -32.5 -225s-52.834 -126.333 -93.501 -175
s-89.667 -86.334 -147 -113.001s-122 -40 -194 -40c-38.667 0 -76.334 3.83301 -113.001 11.5s-68.667 18.167 -96 31.5v232c20.667 -10.667 45.667 -19.834 75 -27.501s61 -11.5 95 -11.5c30 0 56.5 7.66699 79.5 23s42.167 36.666 57.5 63.999s26.833 59.666 34.5 96.999
s11.5 78.333 11.5 123c0 49.333 -3 91.666 -9 126.999s-14.167 64.166 -24.5 86.499s-22.5 38.833 -36.5 49.5s-29 16 -45 16s-31.167 -4.16699 -45.5 -12.5s-30 -22.166 -47 -41.499s-35.833 -44.666 -56.5 -75.999l-74 -116zM1621 -416.003
c0 -60 -12.6641 -112.666 -37.9971 -157.999s-66 -83.166 -122 -113.499s-128.667 -53.333 -218 -69s-197.666 -23.5 -324.999 -23.5c-78 0 -146.667 1 -206 3s-112 4.83301 -158 8.5s-86.167 8.16699 -120.5 13.5s-65.166 11.333 -92.499 18v153
c27.333 -9.33301 60.666 -17.166 99.999 -23.499s83.5 -11.333 132.5 -15s102.333 -6.33398 160 -8.00098s118.5 -2.5 182.5 -2.5c151.333 0 265.333 16 342 48s115 85.667 115 161c0 34 -9 62.5 -27 85.5s-45.333 41.5 -82 55.5s-82.834 24 -138.501 30s-121.5 9 -197.5 9
c-86 0 -156.5 -2.5 -211.5 -7.5s-98.167 -11.833 -129.5 -20.5s-53 -19.167 -65 -31.5s-18 -25.833 -18 -40.5c0 -18.667 5.5 -33.167 16.5 -43.5s26.833 -15.5 47.5 -15.5c35.333 0 68.5 4.83301 99.5 14.5s63.333 20.5 97 32.5s69.834 22.833 108.501 32.5
s83 14.5 133 14.5c32 0 59.333 -4 82 -12s41.167 -19 55.5 -33s24.666 -30.167 30.999 -48.5s9.5 -37.833 9.5 -58.5c0 -10.667 -0.666992 -21.667 -2 -33s-3 -22.166 -5 -32.499s-4.33301 -19.833 -7 -28.5s-5.33398 -15.334 -8.00098 -20.001h-207
c4 8 7.66699 18.167 11 30.5s5 25.166 5 38.499c0 12.667 -3.16699 22.334 -9.5 29.001s-14.833 10 -25.5 10c-18.667 0 -40.334 -4.83301 -65.001 -14.5l-83 -31.5c-30.667 -11.333 -64.5 -21.833 -101.5 -31.5s-77.167 -14.5 -120.5 -14.5
c-42.667 0 -82.667 4.33301 -120 13s-69.833 21.834 -97.5 39.501s-49.5 40.167 -65.5 67.5s-24 59.666 -24 96.999c0 46.667 14 85.667 42 117s69.833 56.5 125.5 75.5s125.334 32.667 209.001 41s181.167 12.5 292.5 12.5c120 0 223.667 -5.83301 311 -17.5
s159.166 -30.334 215.499 -56.001s98.166 -58.834 125.499 -99.501s41 -89.667 41 -147z" />
    <glyph glyph-name="uni1985" unicode="&#x1985;" horiz-adv-x="1300" 
d="M651 811c-50 0 -91.332 -8.33398 -123.999 -25.001s-58.667 -38.834 -78 -66.501s-32.833 -59.667 -40.5 -96s-11.5 -74.166 -11.5 -113.499c0 -50 3.83301 -93 11.5 -129s18.167 -65.667 31.5 -89s29.166 -41.333 47.499 -54s38.166 -21 59.499 -25v-256
c-90.667 9.33301 -166.5 28.166 -227.5 56.499s-109.833 65.666 -146.5 111.999s-62.667 101.333 -78 165s-23 134.834 -23 213.501s11 151.334 33 218.001s56.333 124.167 103 172.5s106.667 86.166 180 113.499s161 41 263 41c102.667 0 190.5 -13.5 263.5 -40.5
s132.833 -64.667 179.5 -113s80.834 -105.833 102.501 -172.5s32.5 -139.667 32.5 -219c0 -78.667 -8.5 -149.834 -25.5 -213.501s-44.333 -118.667 -82 -165s-86.667 -83.666 -147 -111.999s-133.833 -47.166 -220.5 -56.499v256c22 4 42.167 12.333 60.5 25
s34 30.834 47 54.501s23.167 53.5 30.5 89.5s11 79.333 11 130c0 42 -4.16699 81.167 -12.5 117.5s-22.333 68 -42 95s-45.5 48.167 -77.5 63.5s-72 23 -120 23z" />
    <glyph glyph-name="uni1986" unicode="&#x1986;" horiz-adv-x="1321" 
d="M748 1655c-46 0 -85.9941 -7.5 -119.994 -22.5s-63.167 -36 -87.5 -63s-44.5 -58.667 -60.5 -95s-28.5 -76 -37.5 -119s-15.333 -88.167 -19 -135.5s-5.5 -95 -5.5 -143v-67c36 12 74.833 21.5 116.5 28.5s87.5 10.5 137.5 10.5c102 0 189.5 -13.5 262.5 -40.5
s132.833 -64.667 179.5 -113s80.834 -105.833 102.501 -172.5s32.5 -139.667 32.5 -219c0 -78.667 -8.5 -149.834 -25.5 -213.501s-44.333 -118.667 -82 -165s-86.667 -83.666 -147 -111.999s-133.833 -47.166 -220.5 -56.499v256c22 4 42.167 12.333 60.5 25
s34.166 30.834 47.499 54.501s23.666 53.5 30.999 89.5s11 79.333 11 130c0 42 -4.16699 81.167 -12.5 117.5s-22.333 68 -42 95s-45.667 48.167 -78 63.5s-72.166 23 -119.499 23c-50 0 -91.5 -8.33301 -124.5 -25s-59 -38.834 -78 -66.501s-32.333 -59.667 -40 -96
s-11.5 -74.166 -11.5 -113.499c0 -50 3.66699 -93 11 -129s17.666 -65.667 30.999 -89s29.166 -41.333 47.499 -54s38.166 -21 59.499 -25v-256c-90.667 9.33301 -166.334 28.166 -227.001 56.499s-109.334 65.666 -146.001 111.999s-62.834 101.333 -78.501 165
s-23.5 134.834 -23.5 213.501v467c0 141.333 10.667 268.666 32 381.999s57 209.833 107 289.5s116.5 140.834 199.5 183.501s186.5 64 310.5 64c82.667 0 157.667 -7.5 225 -22.5s122 -36.167 164 -63.5v-254c-46 31.333 -102 56.666 -168 75.999s-137.333 29 -214 29z" />
    <glyph glyph-name="uni1987" unicode="&#x1987;" horiz-adv-x="1395" 
d="M395 -23c-48 0 -91.833 7.66602 -131.5 22.999s-73.667 40.666 -102 75.999s-50.333 81.666 -66 138.999s-23.5 127.666 -23.5 210.999c0 87.333 10.5 168.833 31.5 244.5s55.667 141.5 104 197.5s111.666 100.167 189.999 132.5s174.5 48.5 288.5 48.5
c123.333 0 226 -18.167 308 -54.5s147.333 -89.166 196 -158.499s83 -153.833 103 -253.5s30 -213.167 30 -340.5c0 -153.333 -10.5 -292.833 -31.5 -418.5s-56.5 -233.167 -106.5 -322.5s-116.333 -158.5 -199 -207.5s-186 -73.5 -310 -73.5
c-85.333 0 -164.833 7 -238.5 21s-138.834 35.667 -195.501 65v256c27.333 -17.333 55.5 -32.666 84.5 -45.999s60.333 -24.5 94 -33.5s69.834 -15.833 108.501 -20.5s81.334 -7 128.001 -7c70.667 0 128.167 20.5 172.5 61.5s78.833 97.5 103.5 169.5
s41.5 156.833 50.5 254.5s13.5 203.5 13.5 317.5c0 96 -5 179 -15 249s-26.833 128 -50.5 174s-55 80.167 -94 102.5s-87.5 33.5 -145.5 33.5c-57.333 0 -105.333 -9.5 -144 -28.5s-69.834 -45.667 -93.501 -80s-40.5 -75.833 -50.5 -124.5s-15 -102.667 -15 -162
c0 -148.667 24.667 -223 74 -223c8.66699 0 17.834 4.66699 27.501 14s20.334 21 32.001 35l38.5 46c14 16.667 29.5 32 46.5 46s35.667 25.667 56 35s42.833 14 67.5 14c58 0 103.167 -22.333 135.5 -67s48.5 -111.667 48.5 -201c0 -11.333 -0.333008 -23.5 -1 -36.5
s-1.5 -25.667 -2.5 -38s-2.33301 -24.166 -4 -35.499s-3.16699 -21 -4.5 -29h-211c3.33301 17.333 5.83301 35.666 7.5 54.999s2.5 35.666 2.5 48.999c0 28.667 -2.33301 49.5 -7 62.5s-11.667 19.5 -21 19.5c-8 0 -16.5 -4.66699 -25.5 -14s-19.167 -21.166 -30.5 -35.499
l-37.5 -46c-13.667 -16.333 -29.5 -31.666 -47.5 -45.999s-38.333 -26.166 -61 -35.499s-48.334 -14 -77.001 -14z" />
    <glyph glyph-name="uni1988" unicode="&#x1988;" horiz-adv-x="1288" 
d="M152 609.5c-36 34.333 -54 82.501 -54 144.501c0 48 12.667 90.333 38 127s61.333 67.5 108 92.5s102.5 43.833 167.5 56.5s136.833 19 215.5 19c92 0 174.5 -11.5 247.5 -34.5s134.833 -56.667 185.5 -101s89.5 -98.833 116.5 -163.5s40.5 -138.667 40.5 -222
c0 -88 -13.667 -166.333 -41 -235s-66.666 -126.5 -117.999 -173.5s-113.833 -82.833 -187.5 -107.5s-156.834 -37 -249.501 -37c-86.667 0 -164 6.5 -232 19.5s-125.5 32.833 -172.5 59.5s-82.833 59.834 -107.5 99.501s-37 86.167 -37 139.5c0 58 19.5 107.667 58.5 149
s98.5 70.666 178.5 87.999v5c-68.667 15.333 -121 40.166 -157 74.499zM606 428.001c-46 0 -83.166 -3.16797 -111.499 -9.50098s-50.333 -14.5 -66 -24.5s-26.167 -21.333 -31.5 -34s-8 -25.334 -8 -38.001c0 -40 19 -71.167 57 -93.5s93.333 -33.5 166 -33.5
c54 0 99.167 7.83301 135.5 23.5s65.5 37.834 87.5 66.501s37.5 63.167 46.5 103.5s13.5 84.833 13.5 133.5c0 44 -4 85 -12 123s-22.167 71 -42.5 99s-47.666 50 -81.999 66s-77.5 24 -129.5 24c-39.333 0 -72.833 -3 -100.5 -9s-50.334 -14 -68.001 -24
s-30.5 -21.667 -38.5 -35s-12 -27.666 -12 -42.999c0 -20 5.66699 -36.167 17 -48.5s26.666 -21.833 45.999 -28.5s41.833 -11.167 67.5 -13.5s53.167 -3.5 82.5 -3.5h22v-201h-39z" />
    <glyph glyph-name="uni1989" unicode="&#x1989;" horiz-adv-x="1855" 
d="M819 154c-45.333 -56.667 -101.83 -100.667 -169.497 -132s-144.167 -47 -229.5 -47c-66.667 0 -127.834 4.66699 -183.501 14s-110.5 27.333 -164.5 54v250c47.333 -30 93.666 -50.833 138.999 -62.5s89.666 -17.5 132.999 -17.5c44.667 0 83.334 7.16699 116.001 21.5
s59.667 34.333 81 60s37.166 56.334 47.499 92.001s15.5 74.834 15.5 117.501c0 43.333 -4.83301 83.833 -14.5 121.5s-25 70.167 -46 97.5s-48 48.833 -81 64.5s-72.5 23.5 -118.5 23.5c-51.333 0 -99.333 -7.16699 -144 -21.5s-84 -33.166 -118 -56.499v258
c40 18.667 85.333 33 136 43s109 15 175 15c81.333 0 155.166 -12.167 221.499 -36.5s123 -59.333 170 -105s83.333 -101.667 109 -168s38.5 -141.5 38.5 -225.5c0 -46.667 8.33301 -88.5 25 -125.5s38.667 -68.5 66 -94.5s58.833 -46 94.5 -60s72.834 -21 111.501 -21
c36.667 0 69.167 7.16699 97.5 21.5s52 34.666 71 60.999s33.5 58.166 43.5 95.499s15 79 15 125c0 43.333 -4.5 83.166 -13.5 119.499s-22.833 67.5 -41.5 93.5s-42.334 46.167 -71.001 60.5s-62.334 21.5 -101.001 21.5c-48 0 -92.5 -7.16699 -133.5 -21.5
s-78.5 -33.166 -112.5 -56.499v258c36 19.333 75.167 33.833 117.5 43.5s90.5 14.5 144.5 14.5c81.333 0 155.166 -12.167 221.499 -36.5s123 -59.333 170 -105s83.333 -101.667 109 -168s38.5 -141.5 38.5 -225.5c0 -85.333 -12.333 -161.5 -37 -228.5
s-59.667 -123.5 -105 -169.5s-100.166 -81 -164.499 -105s-136.166 -36 -215.499 -36c-53.333 0 -102 4 -146 12s-84 19.667 -120 35s-68.667 34.166 -98 56.499s-55.666 47.5 -78.999 75.5z" />
    <glyph glyph-name="uni198A" unicode="&#x198a;" horiz-adv-x="1343" 
d="M1368 1659c-26 0 -47.665 -4.33398 -64.998 -13.001s-31.166 -21.334 -41.499 -38.001s-17.666 -37.167 -21.999 -61.5s-6.5 -52.5 -6.5 -84.5v-970c0 -80 -11.833 -152 -35.5 -216s-60.667 -118.167 -111 -162.5s-114.666 -78.5 -192.999 -102.5
s-172.166 -36 -281.499 -36c-82.667 0 -157.334 6.5 -224.001 19.5s-123.334 32.833 -170.001 59.5s-82.667 59.834 -108 99.501s-38 86.167 -38 139.5c0 58 19.5 107.667 58.5 149s98.5 70.666 178.5 87.999v5c-72.667 14 -126 39.833 -160 77.5s-51 84.834 -51 141.501
c0 38.667 7.33301 72.834 22 102.501s34.334 55.5 59.001 77.5s53.167 40.333 85.5 55s66.166 26.5 101.499 35.5s71 15.333 107 19s70 5.5 102 5.5c57.333 0 104.5 -3 141.5 -9s71.167 -14 102.5 -24v-225c-26.667 14 -56.834 24.667 -90.501 32s-77.834 11 -132.501 11
c-34 0 -62.833 -2.5 -86.5 -7.5s-42.834 -11.833 -57.501 -20.5s-25.334 -19.167 -32.001 -31.5s-10 -26.166 -10 -41.499c0 -18 3.33301 -33.5 10 -46.5s18.334 -23.667 35.001 -32s38.667 -14.666 66 -18.999s61.333 -6.5 102 -6.5h22v-201h-39
c-46.667 0 -84.334 -3.33301 -113.001 -10s-50.667 -15.334 -66 -26.001s-25.5 -22.5 -30.5 -35.5s-7.5 -26.167 -7.5 -39.5c0 -38 17.5 -67.833 52.5 -89.5s91.833 -32.5 170.5 -32.5c64.667 0 117 8.5 157 25.5s71 42 93 75s36.833 73.833 44.5 122.5
s11.5 104.667 11.5 168v923c0 125.333 28.5 220.166 85.5 284.499s147.833 96.5 272.5 96.5c22.667 0 42.834 -0.5 60.501 -1.5s33.5 -2.33301 47.5 -4s26.667 -3.5 38 -5.5s22 -4.33301 32 -7v-225c-26.667 8 -55.334 12 -86.001 12z" />
    <glyph glyph-name="uni198B" unicode="&#x198b;" horiz-adv-x="1300" 
d="M754 213c22 4 42.1631 12.334 60.4961 25.001s34 30.834 47 54.501s23.167 53.5 30.5 89.5s11 79.333 11 130c0 42 -4.16699 81.167 -12.5 117.5s-22.333 68 -42 95s-45.5 48.167 -77.5 63.5s-72 23 -120 23c-50 0 -91.333 -8.33301 -124 -25
s-58.667 -38.834 -78 -66.501s-32.833 -59.667 -40.5 -96s-11.5 -74.166 -11.5 -113.499c0 -50 3.83301 -93 11.5 -129s18.167 -65.667 31.5 -89s29.166 -41.333 47.499 -54s38.166 -21 59.499 -25v-256c-90.667 9.33301 -166.5 28.166 -227.5 56.499
s-109.833 65.666 -146.5 111.999s-62.667 101.333 -78 165s-23 134.834 -23 213.501s11 151.334 33 218.001s56.333 124.167 103 172.5s106.667 86.166 180 113.499s161 41 263 41c102.667 0 190.5 -13.5 263.5 -40.5s132.833 -64.667 179.5 -113
s80.834 -105.833 102.501 -172.5s32.5 -139.667 32.5 -219c0 -46.667 -3.33301 -91.167 -10 -133.5s-17.167 -81.666 -31.5 -117.999s-32.5 -69.166 -54.5 -98.499s-48 -54.666 -78 -75.999c26.667 -15.333 50.5 -34.833 71.5 -58.5s39 -50.334 54 -80.001
s26.5 -61.834 34.5 -96.501s12 -71 12 -109c0 -84.667 -14.333 -159 -43 -223s-69.5 -117.5 -122.5 -160.5s-117.333 -75.5 -193 -97.5s-160.5 -33 -254.5 -33c-84.667 0 -160.5 5.16699 -227.5 15.5s-130.167 26.166 -189.5 47.499v264c60.667 -28 126.834 -50 198.501 -66
s143.834 -24 216.501 -24c48.667 0 90.834 6.83301 126.501 20.5s65.334 32.834 89.001 57.501s41.167 54 52.5 88s17 71.667 17 113c0 24.667 -1.33301 50.667 -4 78s-8.5 52.666 -17.5 75.999s-22.167 42.666 -39.5 57.999s-40.666 23 -69.999 23h-12v242z" />
    <glyph glyph-name="uni198C" unicode="&#x198c;" horiz-adv-x="1321" 
d="M1077 78c26.667 -15.333 50.667 -34.8281 72 -58.4951s39.333 -50.334 54 -80.001s26 -61.834 34 -96.501s12 -71 12 -109c0 -84.667 -14.167 -159 -42.5 -223s-69 -117.5 -122 -160.5s-117.333 -75.5 -193 -97.5s-160.5 -33 -254.5 -33
c-84.667 0 -160.5 5.16699 -227.5 15.5s-130.5 26.166 -190.5 47.499v264c60.667 -28 126.834 -50 198.501 -66s144.167 -24 217.5 -24c48.667 0 90.834 6.83301 126.501 20.5s65.334 32.834 89.001 57.501s41.167 54 52.5 88s17 71.667 17 113
c0 24.667 -1.33301 50.667 -4 78s-8.66699 52.666 -18 75.999s-22.666 42.666 -39.999 57.999s-40.666 23 -69.999 23h-14v242c22 4 42.167 12.333 60.5 25s34.166 30.834 47.499 54.501s23.666 53.5 30.999 89.5s11 79.333 11 130c0 42 -4.16699 81.167 -12.5 117.5
s-22.333 68 -42 95s-45.667 48.167 -78 63.5s-72.166 23 -119.499 23c-50 0 -91.5 -8.33301 -124.5 -25s-59 -38.834 -78 -66.501s-32.333 -59.667 -40 -96s-11.5 -74.166 -11.5 -113.499c0 -50 3.66699 -93 11 -129s17.666 -65.667 30.999 -89s29.166 -41.333 47.499 -54
s38.166 -21 59.499 -25v-256c-90.667 9.33301 -166.334 28.166 -227.001 56.499s-109.334 65.666 -146.001 111.999s-62.834 101.333 -78.501 165s-23.5 134.834 -23.5 213.501v467c0 141.333 10.667 268.666 32 381.999s57 209.833 107 289.5s116.5 140.834 199.5 183.501
s186.5 64 310.5 64c143.333 0 273 -28 389 -84v-252c-32.667 15.333 -64.167 29.166 -94.5 41.499s-60.833 22.833 -91.5 31.5s-62.167 15.167 -94.5 19.5s-67.166 6.5 -104.499 6.5c-45.333 0 -85 -7.5 -119 -22.5s-63.167 -35.833 -87.5 -62.5s-44.333 -58.167 -60 -94.5
s-28 -75.833 -37 -118.5s-15.167 -87.667 -18.5 -135s-5 -95 -5 -143v-67c36 12 74.833 21.5 116.5 28.5s87.5 10.5 137.5 10.5c102 0 189.5 -13.5 262.5 -40.5s132.833 -64.667 179.5 -113s80.834 -105.833 102.501 -172.5s32.5 -139.667 32.5 -219
c0 -94 -14.167 -177 -42.5 -249s-71.5 -131 -129.5 -177z" />
    <glyph glyph-name="uni198D" unicode="&#x198d;" horiz-adv-x="1855" 
d="M928 152c-13.333 -24.667 -30.5 -47.8369 -51.5 -69.5039s-46.5 -40.5 -76.5 -56.5s-64.5 -28.5 -103.5 -37.5s-83.5 -13.5 -133.5 -13.5c-78.667 0 -148.5 12.167 -209.5 36.5s-112.333 59.666 -154 105.999s-73.334 103.5 -95.001 171.5s-32.5 145.667 -32.5 233
c0 83.333 10.333 157.666 31 222.999s50.5 120.666 89.5 165.999s86.333 80 142 104s118.167 36 187.5 36c66 0 121.833 -5.33301 167.5 -16s86.167 -24.667 121.5 -42v-241c-16.667 8.66699 -33.667 16.834 -51 24.501s-35.333 14.334 -54 20.001s-38.5 10.167 -59.5 13.5
s-43.833 5 -68.5 5c-24 0 -47 -4.83301 -69 -14.5s-41.5 -26 -58.5 -49s-30.5 -53.167 -40.5 -90.5s-15 -83.666 -15 -138.999c0 -100.667 16.167 -177.667 48.5 -231s83.833 -80 154.5 -80c24.667 0 47.834 4.66699 69.501 14s40.667 24 57 44s29.333 45.333 39 76
s14.5 67.334 14.5 110.001h299c0 -42.667 4.83301 -79.334 14.5 -110.001s22.667 -56 39 -76s35.333 -34.667 57 -44s44.834 -14 69.501 -14c71.333 0 123 26.667 155 80s48 130.333 48 231c0 55.333 -5 101.666 -15 138.999s-23.5 67.5 -40.5 90.5s-36.5 39.333 -58.5 49
s-44.667 14.5 -68 14.5c-48.667 0 -91.334 -6.16699 -128.001 -18.5s-72 -27.166 -106 -44.499v241c35.333 17.333 75.833 31.333 121.5 42s101.5 16 167.5 16c70 0 132.833 -12 188.5 -36s103 -58.667 142 -104s68.833 -100.666 89.5 -165.999s31 -139.666 31 -222.999
c0 -87.333 -10.667 -165 -32 -233s-52.5 -125.167 -93.5 -171.5s-91.167 -81.666 -150.5 -105.999s-127 -36.5 -203 -36.5c-52.667 0 -99.5 4.5 -140.5 13.5s-76.833 21.5 -107.5 37.5s-56.5 34.833 -77.5 56.5s-38.167 44.834 -51.5 69.501z" />
    <glyph glyph-name="uni198E" unicode="&#x198e;" horiz-adv-x="2103" 
d="M621 -25c-84.667 0 -160.835 12.3359 -228.502 37.0029s-125.167 60 -172.5 106s-83.833 101.833 -109.5 167.5s-38.5 139.834 -38.5 222.501c0 85.333 13.333 161.5 40 228.5s64.667 123.667 114 170s108.666 81.666 177.999 105.999s146.333 36.5 231 36.5
c94.667 0 178.167 -15.667 250.5 -47s132.166 -75.333 179.499 -132c47.333 56.667 106.5 100.667 177.5 132s159.833 47 266.5 47c79.333 0 151.333 -12 216 -36s119.667 -59 165 -105s80.333 -102.5 105 -169.5s37 -143.167 37 -228.5
c0 -84 -12.833 -159.167 -38.5 -225.5s-62 -122.333 -109 -168s-103.667 -80.667 -170 -105s-140.166 -36.5 -221.499 -36.5c-54.667 0 -103 4.83301 -145 14.5s-81 24.167 -117 43.5v258c34 -23.333 71.333 -42.166 112 -56.499s85.334 -21.5 134.001 -21.5
c38.667 0 72.334 7.16699 101.001 21.5s52.334 34.5 71.001 60.5s32.5 57.167 41.5 93.5s13.5 76.166 13.5 119.499c0 46 -5 87.667 -15 125s-24.5 69.166 -43.5 95.499s-42.667 46.666 -71 60.999s-60.833 21.5 -97.5 21.5c-37.333 0 -73.5 -6.66699 -108.5 -20
s-66.333 -32.5 -94 -57.5s-50 -55.167 -67 -90.5s-26.167 -75 -27.5 -119c0 -84.667 -12.833 -160.834 -38.5 -228.501s-62.667 -125.167 -111 -172.5s-107 -83.833 -176 -109.5s-146.833 -38.5 -233.5 -38.5zM628.999 807.003c-75.333 0 -133.5 -25.5 -174.5 -76.5
s-61.5 -123.833 -61.5 -218.5c0 -196.667 79.333 -295 238 -295c151.333 0 227 101 227 303c0 191.333 -76.333 287 -229 287z" />
    <glyph glyph-name="uni198F" unicode="&#x198f;" horiz-adv-x="1323" 
d="M905 256c0 94 -3.33398 176.835 -10.001 248.502s-19.834 132 -39.501 181s-47.5 86 -83.5 111s-83 37.5 -141 37.5c-76.667 0 -132.667 -8.33301 -168 -25s-53 -42 -53 -76c0 -22 5.66699 -39.833 17 -53.5s26.666 -24.167 45.999 -31.5s41.833 -12.333 67.5 -15
s53.167 -4 82.5 -4h22v-201h-39c-76 0 -131.167 -9.66699 -165.5 -29s-51.5 -46.666 -51.5 -81.999c0 -24 6.5 -43.833 19.5 -59.5s29.667 -28.167 50 -37.5s42.833 -15.833 67.5 -19.5s48.667 -5.5 72 -5.5c47.333 0 87.166 3.16699 119.499 9.5s60.833 15.166 85.5 26.499
v-225c-18.667 -5.33301 -36.5 -9.83301 -53.5 -13.5s-34.833 -6.83398 -53.5 -9.50098s-39.167 -4.66699 -61.5 -6s-48.166 -2 -77.499 -2c-58 0 -115.833 6 -173.5 18s-109.5 30.667 -155.5 56s-83.5 58.166 -112.5 98.499s-43.5 88.833 -43.5 145.5
c0 27.333 4.83301 53.5 14.5 78.5s24.334 47.833 44.001 68.5s44.334 38.5 74.001 53.5s64.5 26.5 104.5 34.5v4c-68.667 16.667 -121 43.167 -157 79.5s-54 86.5 -54 150.5c0 50 13.333 93 40 129s63.834 65.667 111.501 89s104 40.666 169 51.999s135.833 17 212.5 17
c110.667 0 204.167 -16 280.5 -48s138.166 -81 185.499 -147s81.5 -149.667 102.5 -251s31.5 -221 31.5 -359c0 -154 -10.5 -293.833 -31.5 -419.5s-56.5 -233.334 -106.5 -323.001s-116.333 -159 -199 -208s-186 -73.5 -310 -73.5c-85.333 0 -164.833 7 -238.5 21
s-138.834 35.667 -195.501 65v256c27.333 -17.333 55.5 -32.666 84.5 -45.999s60.333 -24.5 94 -33.5s69.834 -15.833 108.501 -20.5s81.334 -7 128.001 -7c70.667 0 128.167 20.5 172.5 61.5s78.833 97.333 103.5 169s41.5 156.334 50.5 254.001s13.5 203.167 13.5 316.5z
" />
    <glyph glyph-name="uni1990" unicode="&#x1990;" horiz-adv-x="1876" 
d="M1032 373c-42 -70 -82.667 -130.003 -122 -180.003s-79.833 -91.167 -121.5 -123.5s-85.834 -56.166 -132.501 -71.499s-98.667 -23 -156 -23s-112 11.167 -164 33.5s-97.5 55.5 -136.5 99.5s-70 98.5 -93 163.5s-34.5 139.833 -34.5 224.5c0 82 10.833 157 32.5 225
s52.834 126.333 93.501 175s89.667 86.334 147 113.001s122 40 194 40c38.667 0 76.334 -3.83301 113.001 -11.5s68.667 -18.167 96 -31.5v-232c-20.667 10.667 -45.667 19.834 -75 27.501s-61 11.5 -95 11.5c-30 0 -56.5 -7.66699 -79.5 -23s-42.167 -36.666 -57.5 -63.999
s-26.833 -59.666 -34.5 -96.999s-11.5 -78.333 -11.5 -123c0 -49.333 3 -91.666 9 -126.999s14.167 -64.166 24.5 -86.499s22.5 -38.833 36.5 -49.5s29 -16 45 -16s31.667 4.33301 47 13s31.833 22.667 49.5 42s37.167 44.833 58.5 76.5s46 70.5 74 116.5l105 172
c42 70 82.667 130.167 122 180.5s79.833 92 121.5 125s85.834 57.333 132.501 73s98.667 23.5 156 23.5s112 -11.167 164 -33.5s97.5 -55.5 136.5 -99.5s70 -98.333 93 -163s34.5 -139.667 34.5 -225c0 -82 -10.833 -157 -32.5 -225s-52.834 -126.333 -93.501 -175
s-89.667 -86.334 -147 -113.001s-122 -40 -194 -40c-38.667 0 -76.334 3.83301 -113.001 11.5s-68.667 18.167 -96 31.5v232c20.667 -10.667 45.667 -19.834 75 -27.501s61 -11.5 95 -11.5c30 0 56.5 7.66699 79.5 23s42.167 36.666 57.5 63.999s26.833 59.666 34.5 96.999
s11.5 78.333 11.5 123c0 49.333 -3 91.666 -9 126.999s-14.167 64.166 -24.5 86.499s-22.5 38.833 -36.5 49.5s-29 16 -45 16s-31.167 -4.16699 -45.5 -12.5s-30 -22.166 -47 -41.499s-35.833 -44.666 -56.5 -75.999l-74 -116zM1393 -121.003
c60.667 -1.33301 115.169 -8.5 163.502 -21.5s89.5 -31.667 123.5 -56s60.167 -54.166 78.5 -89.499s27.5 -76 27.5 -122c0 -55.333 -12.667 -105.666 -38 -150.999s-64.166 -84.333 -116.499 -117s-118.333 -57.834 -198 -75.501s-173.834 -26.5 -282.501 -26.5
c-43.333 0 -88 1.83301 -134 5.5s-90.333 8.66699 -133 15s-81.834 13.5 -117.501 21.5s-65.167 16.333 -88.5 25v256c30 -12.667 64.5 -24.5 103.5 -35.5s79.833 -20.5 122.5 -28.5s86 -14.333 130 -19s85.333 -7 124 -7c56 0 103.167 4.33301 141.5 13
s69.166 20.167 92.499 34.5s40 31 50 50s15 39.167 15 60.5c0 39.333 -17.167 70.666 -51.5 93.999s-88.833 35 -163.5 35h-113l80 260h221z" />
    <glyph glyph-name="uni1991" unicode="&#x1991;" horiz-adv-x="1376" 
d="M780 834c-50 0 -92.9971 -3.66992 -128.997 -11.0029s-67.333 -18 -94 -32v225c38 11.333 80.667 19.666 128 24.999s103 8 167 8c50.667 0 101.334 -5.83301 152.001 -17.5s96.334 -29.167 137.001 -52.5s73.667 -52.333 99 -87s38 -75.334 38 -122.001
c0 -62 -18 -112.833 -54 -152.5s-88.333 -67.167 -157 -82.5v-5c80.667 -17.333 140.5 -46.666 179.5 -87.999s58.5 -91 58.5 -149c0 -53.333 -12 -99.833 -36 -139.5s-58.833 -72.834 -104.5 -99.501s-101.5 -46.5 -167.5 -59.5s-141 -19.5 -225 -19.5
c-226.667 0 -395.667 79.333 -507 238s-169 396.334 -173 713.001c-2 160.667 13.167 301.334 45.5 422.001s80.166 221.167 143.499 301.5s141.5 140.5 234.5 180.5s199.167 60 318.5 60c82 0 152.667 -7.5 212 -22.5s110 -36.167 152 -63.5v-254
c-46 31.333 -98.333 56.666 -157 75.999s-126.334 29 -203.001 29c-144.667 0 -250.834 -62.167 -318.501 -186.5s-101.5 -307.166 -101.5 -548.499c0 -135.333 7.66699 -248.166 23 -338.499s38.166 -162.666 68.499 -216.999s68 -92.833 113 -115.5s96.833 -34 155.5 -34
c43.333 0 78.5 3.16699 105.5 9.5s48.167 14.666 63.5 24.999s25.833 22.166 31.5 35.499s8.5 27 8.5 41c0 10.667 -2 22 -6 34s-13.833 23 -29.5 33s-38.667 18.333 -69 25s-71.833 10 -124.5 10h-37v199h16c37.333 0 70.166 1.33301 98.499 4s52.333 7.83398 72 15.501
s34.5 18.334 44.5 32.001s15 31.834 15 54.501c0 12 -2.83301 24 -8.5 36s-15.5 22.833 -29.5 32.5s-33 17.5 -57 23.5s-54.667 9 -92 9z" />
    <glyph glyph-name="uni1992" unicode="&#x1992;" horiz-adv-x="1550" 
d="M1479 457c0 -74 -9.00098 -140.5 -27.001 -199.5s-44 -109.333 -78 -151s-75.833 -73.667 -125.5 -96s-106.167 -33.5 -169.5 -33.5c-68.667 0 -128 16.5 -178 49.5s-91 81.5 -123 145.5h-6c-34 -64 -76 -112.5 -126 -145.5s-109 -49.5 -177 -49.5
c-62 0 -117.5 11.167 -166.5 33.5s-90.667 54.333 -125 96s-60.5 92 -78.5 151s-27 125.5 -27 199.5c0 80.667 12.333 157 37 229s64.334 135 119.001 189s125.5 96.833 212.5 128.5s192.833 47.5 317.5 47.5c129.333 0 239.666 -15.833 330.999 -47.5
s165.833 -74.5 223.5 -128.5s99.834 -117 126.501 -189s40 -148.333 40 -229zM1157 465c0 46 -7.16602 91.002 -21.499 135.002s-37.5 83 -69.5 117s-73.5 61.5 -124.5 82.5s-112.833 31.5 -185.5 31.5c-70 0 -128.5 -10.5 -175.5 -31.5s-84.833 -48.5 -113.5 -82.5
s-49.167 -73 -61.5 -117s-18.5 -89 -18.5 -135c0 -86.667 11 -152.334 33 -197.001s52.667 -67 92 -67c41.333 0 74.166 20.333 98.499 61s36.5 107.667 36.5 201v59h256v-59c0 -93.333 9 -160.333 27 -201s49.333 -61 94 -61c41.333 0 73.833 22.667 97.5 68
s35.5 110.666 35.5 195.999z" />
    <glyph glyph-name="uni1993" unicode="&#x1993;" horiz-adv-x="1094" 
d="M1094 -256c0 -81.333 -11.668 -154.499 -35.001 -219.499s-58.166 -120 -104.499 -165s-104 -79.5 -173 -103.5s-149.167 -36 -240.5 -36c-79.333 0 -151.5 5 -216.5 15s-124.833 25.333 -179.5 46v262c60.667 -28 122 -49.333 184 -64s128.333 -22 199 -22
c36.667 0 69.5 6.83301 98.5 20.5s53.667 32.834 74 57.501s36 53.834 47 87.501s16.5 70.167 16.5 109.5c0 33.333 -2.66699 64.666 -8 93.999s-14.833 55 -28.5 77s-32.5 39.5 -56.5 52.5s-55 19.5 -93 19.5c-48 0 -93 0.833008 -135 2.5s-80.667 6.33398 -116 14.001
s-66.833 19.167 -94.5 34.5s-51.167 36.333 -70.5 63s-34.166 60.167 -44.499 100.5s-15.5 89.166 -15.5 146.499v272c0 85.333 11.5 156.333 34.5 213s56.667 101.834 101 135.501s98.666 57.5 162.999 71.5s137.833 21 220.5 21c29.333 0 58.666 -1.33301 87.999 -4
s57.666 -6.66699 84.999 -12s53.5 -12 78.5 -20s47.5 -17.333 67.5 -28v-264c-40.667 27.333 -84.667 48.5 -132 63.5s-103.666 22.5 -168.999 22.5c-39.333 0 -72.666 -4 -99.999 -12s-49.5 -21 -66.5 -39s-29.333 -41.333 -37 -70s-11.5 -63.334 -11.5 -104.001v-199
c0 -38.667 5.16699 -69 15.5 -91s26.5 -38.5 48.5 -49.5s50.5 -18 85.5 -21s77.167 -4.5 126.5 -4.5c58.667 0 112.167 -9.5 160.5 -28.5s89.833 -47.833 124.5 -86.5s61.5 -87.834 80.5 -147.501s28.5 -129.834 28.5 -210.501z" />
    <glyph glyph-name="uni1994" unicode="&#x1994;" horiz-adv-x="1321" 
d="M883 1509c0 125.333 28.5 220.17 85.5 284.503s147.833 96.5 272.5 96.5c37.333 0 71.5 -1.66699 102.5 -5s56.167 -7.66602 75.5 -12.999v-225c-13.333 4 -27.333 7 -42 9s-29.334 3 -44.001 3c-26 0 -47.667 -4.33301 -65 -13s-31.166 -21.334 -41.499 -38.001
s-17.666 -37.167 -21.999 -61.5s-6.5 -52.5 -6.5 -84.5v-942c0 -82.667 -9.33301 -157.667 -28 -225s-49.334 -124.666 -92.001 -171.999s-98.834 -83.833 -168.501 -109.5s-155.834 -38.5 -258.501 -38.5c-102 0 -189.667 13.667 -263 41s-133.333 65.166 -180 113.499
s-81 105.833 -103 172.5s-33 139.334 -33 218.001c0 79.333 7.66699 150.666 23 213.999s41.333 118.166 78 164.499s85.5 83.666 146.5 111.999s136.833 47.166 227.5 56.499v-256c-21.333 -4 -41.166 -12.333 -59.499 -25s-34.166 -30.667 -47.499 -54
s-23.833 -53 -31.5 -89s-11.5 -79 -11.5 -129c0 -39.333 3.83301 -77.166 11.5 -113.499s21.167 -68.333 40.5 -96s45.333 -49.834 78 -66.501s74 -25 124 -25c48 0 87 7.66699 117 23s53.5 36.5 70.5 63.5s28.667 58.667 35 95s9.5 75.5 9.5 117.5v997z" />
    <glyph glyph-name="uni1995" unicode="&#x1995;" horiz-adv-x="1874" 
d="M612 -25c-82.667 0 -157.325 6.49609 -223.992 19.4961s-123.334 32.833 -170.001 59.5s-82.667 59.834 -108 99.501s-38 86.167 -38 139.5c0 58 19.5 107.667 58.5 149s98.5 70.666 178.5 87.999v5c-72.667 14 -126 39.833 -160 77.5s-51 84.834 -51 141.501
c0 38.667 7.33301 72.834 22 102.501s34.334 55.5 59.001 77.5s53.167 40.333 85.5 55s66.166 26.5 101.499 35.5s71 15.333 107 19s70 5.5 102 5.5c57.333 0 104.5 -3 141.5 -9s71.167 -14 102.5 -24v-225c-26.667 14 -56.834 24.667 -90.501 32s-77.834 11 -132.501 11
c-34 0 -62.833 -2.5 -86.5 -7.5s-42.834 -11.833 -57.501 -20.5s-25.334 -19.167 -32.001 -31.5s-10 -26.166 -10 -41.499c0 -18 3.33301 -33.5 10 -46.5s18.334 -23.667 35.001 -32s38.667 -14.666 66 -18.999s61.333 -6.5 102 -6.5h22v-201h-39
c-46.667 0 -84.334 -3.33301 -113.001 -10s-50.667 -15.334 -66 -26.001s-25.5 -22.5 -30.5 -35.5s-7.5 -26.167 -7.5 -39.5c0 -38 17.5 -67.833 52.5 -89.5s91.833 -32.5 170.5 -32.5c71.333 0 143.666 6 216.999 18s143 30.333 209 55c-24.667 32 -46.667 64.833 -66 98.5
s-35.333 67.334 -48 101.001s-22.334 66.5 -29.001 98.5s-10 62.333 -10 91c0 50 7 98.667 21 146s37 89.166 69 125.499s74.333 65.5 127 87.5s118 33 196 33c70 0 130.667 -9.5 182 -28.5s93.833 -45.5 127.5 -79.5s58.834 -74.333 75.501 -121s25 -98 25 -154
c0 -40.667 -5.83301 -80.5 -17.5 -119.5s-28.334 -76.833 -50.001 -113.5s-47.834 -71.5 -78.501 -104.5s-64.667 -63.833 -102 -92.5c53.333 -27.333 113.333 -41 180 -41c48.667 0 90.667 5.66699 126 17s68 25.333 98 42v-213
c-10 -7.33301 -23.167 -14.666 -39.5 -21.999s-35 -13.833 -56 -19.5s-43.333 -10.334 -67 -14.001s-47.5 -5.5 -71.5 -5.5c-81.333 0 -156 10.833 -224 32.5s-129.667 50.834 -185 87.501c-93.333 -40 -191.833 -70.833 -295.5 -92.5s-208.167 -32.5 -313.5 -32.5z
M1190.01 656.996c0 -43.333 7.33301 -87.166 22 -131.499s35.334 -86.5 62.001 -126.5c42 31.333 74 69.333 96 114s33 96.334 33 155.001c0 28.667 -3 53.667 -9 75s-13.833 39.166 -23.5 53.499s-21 25.166 -34 32.499s-26.5 11 -40.5 11s-27.5 -3.5 -40.5 -10.5
s-24.333 -17.833 -34 -32.5s-17.334 -33.667 -23.001 -57s-8.5 -51 -8.5 -83z" />
    <glyph glyph-name="uni1996" unicode="&#x1996;" horiz-adv-x="1876" 
d="M1032 373c-42 -70 -82.667 -130.003 -122 -180.003s-79.833 -91.167 -121.5 -123.5s-85.834 -56.166 -132.501 -71.499s-98.667 -23 -156 -23s-112 11.167 -164 33.5s-97.5 55.5 -136.5 99.5s-70 98.5 -93 163.5s-34.5 139.833 -34.5 224.5c0 82 10.833 157 32.5 225
s52.834 126.333 93.501 175s89.667 86.334 147 113.001s122 40 194 40c38.667 0 76.334 -3.83301 113.001 -11.5s68.667 -18.167 96 -31.5v-232c-20.667 10.667 -45.667 19.834 -75 27.501s-61 11.5 -95 11.5c-30 0 -56.5 -7.66699 -79.5 -23s-42.167 -36.666 -57.5 -63.999
s-26.833 -59.666 -34.5 -96.999s-11.5 -78.333 -11.5 -123c0 -49.333 3 -91.666 9 -126.999s14.167 -64.166 24.5 -86.499s22.5 -38.833 36.5 -49.5s29 -16 45 -16s31.667 4.33301 47 13s31.833 22.667 49.5 42s37.167 44.833 58.5 76.5s46 70.5 74 116.5l105 172
c42 70 82.667 130.167 122 180.5s79.833 92 121.5 125s85.834 57.333 132.501 73s98.667 23.5 156 23.5s112 -11.167 164 -33.5s97.5 -55.5 136.5 -99.5s70 -98.333 93 -163s34.5 -139.667 34.5 -225c0 -82 -10.833 -157 -32.5 -225s-52.834 -126.333 -93.501 -175
s-89.667 -86.334 -147 -113.001s-122 -40 -194 -40c-38.667 0 -76.334 3.83301 -113.001 11.5s-68.667 18.167 -96 31.5v232c20.667 -10.667 45.667 -19.834 75 -27.501s61 -11.5 95 -11.5c30 0 56.5 7.66699 79.5 23s42.167 36.666 57.5 63.999s26.833 59.666 34.5 96.999
s11.5 78.333 11.5 123c0 49.333 -3 91.666 -9 126.999s-14.167 64.166 -24.5 86.499s-22.5 38.833 -36.5 49.5s-29 16 -45 16s-31.167 -4.16699 -45.5 -12.5s-30 -22.166 -47 -41.499s-35.833 -44.666 -56.5 -75.999l-74 -116zM1184 40.9971h224.999l49 -301h-133
c-74.667 0 -129.167 -11.667 -163.5 -35s-51.5 -54.666 -51.5 -93.999c0 -21.333 5 -41.5 15 -60.5s26.667 -35.667 50 -50s54.166 -25.833 92.499 -34.5s85.5 -13 141.5 -13c39.333 0 80.833 2.33301 124.5 7s86.834 11 129.501 19s83.5 17.5 122.5 28.5
s73.167 22.833 102.5 35.5v-256c-22.667 -8.66699 -52 -17 -88 -25s-75.167 -15.167 -117.5 -21.5s-86.666 -11.333 -132.999 -15s-91.166 -5.5 -134.499 -5.5c-108.667 0 -202.834 8.83301 -282.501 26.5s-145.667 42.834 -198 75.501s-91.166 71.667 -116.499 117
s-38 95.666 -38 150.999c0 46 11 86.667 33 122s52.167 65.166 90.5 89.499s83.666 43 135.999 56s108.5 20.167 168.5 21.5z" />
    <glyph glyph-name="uni1997" unicode="&#x1997;" horiz-adv-x="1876" 
d="M928 874c13.333 24.667 30.498 47.8311 51.498 69.498s46.833 40.5 77.5 56.5s66.5 28.5 107.5 37.5s87.833 13.5 140.5 13.5c76 0 143.667 -12 203 -36s109.5 -59.333 150.5 -106s72.167 -104 93.5 -172s32 -145.667 32 -233v-627c0 -100 -15.667 -190.5 -47 -271.5
s-79.5 -150 -144.5 -207s-147.667 -101 -248 -132s-219.5 -46.5 -357.5 -46.5c-200 0 -350.667 28.167 -452 84.5s-152 139.5 -152 249.5c0 54 12.667 101.333 38 142s61 74.334 107 101.001s100.833 46.667 164.5 60s133.834 20 210.501 20
c79.333 0 147.333 -5.33301 204 -16s102.834 -25.334 138.501 -44.001s61.834 -40.5 78.501 -65.5s24.667 -51.5 24 -79.5c-0.666992 -27.333 -8.33398 -52.5 -23.001 -75.5s-37.167 -43 -67.5 -60s-69 -30.333 -116 -40s-103.167 -14.5 -168.5 -14.5
c-52 0 -96.167 2.66699 -132.5 8s-70.166 13.666 -101.499 24.999v137c33.333 -15.333 69.166 -26.333 107.499 -33s76.5 -10 114.5 -10c48 0 83.167 6.5 105.5 19.5s33.5 28.167 33.5 45.5c0 10 -3.16699 19.333 -9.5 28s-17 16.167 -32 22.5s-35 11.5 -60 15.5
s-56.167 6 -93.5 6c-44 0 -82.833 -5.16699 -116.5 -15.5s-62 -24.166 -85 -41.499s-40.5 -37.666 -52.5 -60.999s-18 -48 -18 -74c0 -25.333 6.33301 -49.333 19 -72s33 -42.5 61 -59.5s64.667 -30.5 110 -40.5s100.666 -15 165.999 -15c66 0 127.5 7.83301 184.5 23.5
s106.667 40.334 149 74.001s75.5 77.167 99.5 130.5s36 118 36 194v203c-19.333 -5.33301 -39.666 -9.5 -60.999 -12.5s-42.666 -4.5 -63.999 -4.5c-66 0 -121.833 5.33301 -167.5 16s-86.167 24.667 -121.5 42v241c17.333 -8.66699 34.5 -16.834 51.5 -24.501
s35 -14.334 54 -20.001s39 -10.167 60 -13.5s43.833 -5 68.5 -5c23.333 0 46 4.83301 68 14.5s41.5 26 58.5 49s30.5 53.167 40.5 90.5s15 83.666 15 138.999c0 101.333 -16 178.5 -48 231.5s-83.667 79.5 -155 79.5c-24.667 0 -47.834 -4.66699 -69.501 -14
s-40.667 -24 -57 -44s-29.333 -45.333 -39 -76s-14.5 -67.334 -14.5 -110.001h-299c0 42.667 -4.83301 79.334 -14.5 110.001s-22.667 56 -39 76s-35.333 34.667 -57 44s-44.834 14 -69.501 14c-70.667 0 -122.167 -26.5 -154.5 -79.5s-48.5 -130.167 -48.5 -231.5
c0 -55.333 5 -101.666 15 -138.999s23.5 -67.5 40.5 -90.5s36.5 -39.333 58.5 -49s45 -14.5 69 -14.5c24.667 0 47.5 1.66699 68.5 5s40.833 7.83301 59.5 13.5s36.667 12.334 54 20.001s34.333 15.834 51 24.501v-241c-35.333 -17.333 -75.833 -31.333 -121.5 -42
s-101.5 -16 -167.5 -16c-69.333 0 -131.833 12 -187.5 36s-103 58.667 -142 104s-68.833 100.833 -89.5 166.5s-31 139.834 -31 222.501c0 87.333 10.833 165 32.5 233s53.334 125.333 95.001 172s93 82 154 106s130.833 36 209.5 36c50 0 94.5 -4.5 133.5 -13.5
s73.5 -21.5 103.5 -37.5s55.5 -34.833 76.5 -56.5s38.167 -44.834 51.5 -69.501z" />
    <glyph glyph-name="uni1998" unicode="&#x1998;" horiz-adv-x="1855" 
d="M420 -25c-66.667 0 -127.829 4.66797 -183.496 14.001s-110.5 27.333 -164.5 54v250c47.333 -30 93.666 -50.833 138.999 -62.5s89.666 -17.5 132.999 -17.5c44.667 0 83.334 7.16699 116.001 21.5s59.667 34.333 81 60s37.166 56.334 47.499 92.001
s15.5 74.834 15.5 117.501c0 43.333 -4.83301 83.833 -14.5 121.5s-25 70.167 -46 97.5s-48 48.833 -81 64.5s-72.5 23.5 -118.5 23.5c-51.333 0 -99.333 -7.16699 -144 -21.5s-84 -33.166 -118 -56.499v258c40 18.667 85.333 33 136 43s109 15 175 15
c94 0 176.167 -15.333 246.5 -46s130.166 -75 179.499 -133c23.333 28 49.666 53.167 78.999 75.5s62 41.166 98 56.499s76 27 120 35s92.667 12 146 12c79.333 0 151.166 -12 215.499 -36s119.166 -59 164.499 -105s80.333 -102.5 105 -169.5s37 -143.167 37 -228.5
c0 -84 -12.833 -159.167 -38.5 -225.5s-62 -122.333 -109 -168s-103.667 -80.667 -170 -105s-140.166 -36.5 -221.499 -36.5c-54 0 -102.167 4.83301 -144.5 14.5s-81.5 24.167 -117.5 43.5v258c34 -23.333 71.5 -42.166 112.5 -56.499s85.5 -21.5 133.5 -21.5
c38.667 0 72.334 7.16699 101.001 21.5s52.334 34.5 71.001 60.5s32.5 57.167 41.5 93.5s13.5 76.166 13.5 119.499c0 46 -5 87.667 -15 125s-24.5 69.166 -43.5 95.499s-42.667 46.666 -71 60.999s-60.833 21.5 -97.5 21.5c-38.667 0 -75.834 -7 -111.501 -21
s-67.167 -33.833 -94.5 -59.5s-49.333 -57 -66 -94s-25 -78.5 -25 -124.5c0 -85.333 -12.5 -161.333 -37.5 -228s-60.167 -122.834 -105.5 -168.501s-99.333 -80.5 -162 -104.5s-131.667 -36 -207 -36z" />
    <glyph glyph-name="uni1999" unicode="&#x1999;" horiz-adv-x="1300" 
d="M651 213c35.333 0 67.333 5.66699 96 17s51.334 24 68.001 38c-4.66699 10 -11.834 20 -21.501 30s-21.167 19.167 -34.5 27.5s-28.666 15.166 -45.999 20.499s-36.666 8 -57.999 8c-19.333 0 -38.333 -2.16699 -57 -6.5s-36.334 -10.166 -53.001 -17.499
s-32 -16 -46 -26s-26 -20.667 -36 -32c8.66699 -8 20.167 -15.5 34.5 -22.5s30 -13.333 47 -19s34.667 -10 53 -13s36.166 -4.5 53.499 -4.5zM610 -543c48 0 90.5 9.83203 127.5 29.499s68 47.5 93 83.5s44 79.5 57 130.5s19.5 107.833 19.5 170.5c0 40 -2 72 -6 96
s-8 42.667 -12 56c-31.333 -13.333 -67.833 -24.666 -109.5 -33.999s-84.5 -14 -128.5 -14c-102 0 -189.667 13.667 -263 41s-133.333 65.166 -180 113.499s-81 105.833 -103 172.5s-33 139.334 -33 218.001c0 79.333 7.66699 150.666 23 213.999s41.333 118.166 78 164.499
s85.5 83.666 146.5 111.999s136.833 47.166 227.5 56.499v-256c-21.333 -4 -41.166 -12.333 -59.499 -25s-34.166 -30.667 -47.499 -54s-23.833 -53 -31.5 -89s-11.5 -79 -11.5 -129v-31c15.333 13.333 33 25.333 53 36s41.5 19.834 64.5 27.501s46.667 13.667 71 18
s48.166 6.5 71.499 6.5c50.667 0 97.167 -6.33301 139.5 -19s77.833 -29.334 106.5 -50.001v10c0 50.667 -3.66699 94 -11 130s-17.5 65.833 -30.5 89.5s-28.667 41.834 -47 54.501s-38.5 21 -60.5 25v256c86.667 -9.33301 160.167 -28.166 220.5 -56.499
s109.333 -65.666 147 -111.999s65 -101.166 82 -164.499s25.5 -134.666 25.5 -213.999c0 -60.667 -6.66699 -118 -20 -172s-31.333 -99.667 -54 -137c9.33301 -20.667 18.166 -42 26.499 -64s15.833 -46.333 22.5 -73s11.834 -56 15.501 -88s5.5 -68.333 5.5 -109
c0 -105.333 -15.333 -198.833 -46 -280.5s-73.334 -150.334 -128.001 -206.001s-119.667 -98 -195 -127s-157.333 -43.5 -246 -43.5c-155.333 0 -287 20.333 -395 61v262c60.667 -28 124 -49.333 190 -64s134.333 -22 205 -22z" />
    <glyph glyph-name="uni199A" unicode="&#x199a;" horiz-adv-x="1311" 
d="M918 692c0 73.333 -0.99707 135.668 -2.99707 187.001s-5.16699 97.5 -9.5 138.5s-9.83301 80 -16.5 117l-23 122.5c-17.333 -3.33301 -37.666 -7 -60.999 -11s-48.666 -7.66699 -75.999 -11s-56.166 -6.16602 -86.499 -8.49902s-60.833 -3.5 -91.5 -3.5
c-68.667 0 -127.5 8.66699 -176.5 26s-89.333 41.166 -121 71.499s-54.834 66.333 -69.501 108s-22 86.5 -22 134.5c0 45.333 8.16699 88 24.5 128s42.833 74.667 79.5 104s84.5 52.5 143.5 69.5s130.833 25.5 215.5 25.5c22.667 0 46.5 -0.666992 71.5 -2s49.667 -3 74 -5
s47.166 -4.33301 68.499 -7s39.333 -5.33398 54 -8.00098v-234c-16.667 6 -35.834 11.667 -57.501 17s-43.834 10 -66.501 14s-45 7 -67 9s-42.333 3 -61 3c-76 0 -130.5 -8.83301 -163.5 -26.5s-49.5 -47.5 -49.5 -89.5c0 -45.333 13.833 -76.833 41.5 -94.5
s65.834 -26.5 114.501 -26.5c36 0 75.167 1.83301 117.5 5.5s85.666 9 129.999 16s89 15.833 134 26.5s88.5 22.667 130.5 36c41.333 -122.667 72.166 -251 92.499 -385s30.5 -278.667 30.5 -434c0 -114 -10.333 -216 -31 -306s-54.834 -166.5 -102.501 -229.5
s-110.167 -111.167 -187.5 -144.5s-172.666 -50 -285.999 -50c-86.667 0 -163.5 5.16699 -230.5 15.5s-123.5 27.5 -169.5 51.5s-80.833 55.333 -104.5 94s-35.5 86.334 -35.5 143.001c0 61.333 19.5 112.166 58.5 152.499s98.5 69.833 178.5 88.5v4
c-36 8 -67.333 19.5 -94 34.5s-48.667 33.167 -66 54.5s-30.166 45 -38.499 71s-12.5 54 -12.5 84c0 41.333 6.33301 77 19 107s29.667 55.333 51 76s46.166 37.167 74.499 49.5s58.333 22 90 29s64 11.667 97 14s64.5 3.5 94.5 3.5c54 0 101.833 -3.66699 143.5 -11
s78.5 -16 110.5 -26v-222c-28.667 12.667 -61 23 -97 31s-78 12 -126 12c-53.333 0 -90.833 -6.83301 -112.5 -20.5s-32.5 -35.5 -32.5 -65.5c0 -16.667 3.33301 -31 10 -43s18.334 -21.667 35.001 -29s38.667 -12.833 66 -16.5s61.333 -5.5 102 -5.5h22v-221h-39
c-46.667 0 -84.334 -4.16699 -113.001 -12.5s-50.667 -18.5 -66 -30.5s-25.5 -25 -30.5 -39s-7.5 -27 -7.5 -39c0 -18 3.66699 -34 11 -48s19.166 -25.833 35.499 -35.5s38 -17.167 65 -22.5s60.167 -8 99.5 -8c64.667 0 117.5 9.16699 158.5 27.5s73.333 47.333 97 87
s40 91 49 154s13.5 139.167 13.5 228.5z" />
    <glyph glyph-name="uni199B" unicode="&#x199b;" horiz-adv-x="1876" 
d="M1032 373c-42 -70 -82.667 -130.003 -122 -180.003s-79.833 -91.167 -121.5 -123.5s-85.834 -56.166 -132.501 -71.499s-98.667 -23 -156 -23s-112 11.167 -164 33.5s-97.5 55.5 -136.5 99.5s-70 98.5 -93 163.5s-34.5 139.833 -34.5 224.5c0 82 10.833 157 32.5 225
s52.834 126.333 93.501 175s89.667 86.334 147 113.001s122 40 194 40c38.667 0 76.334 -3.83301 113.001 -11.5s68.667 -18.167 96 -31.5v-232c-20.667 10.667 -45.667 19.834 -75 27.501s-61 11.5 -95 11.5c-30 0 -56.5 -7.66699 -79.5 -23s-42.167 -36.666 -57.5 -63.999
s-26.833 -59.666 -34.5 -96.999s-11.5 -78.333 -11.5 -123c0 -49.333 3 -91.666 9 -126.999s14.167 -64.166 24.5 -86.499s22.5 -38.833 36.5 -49.5s29 -16 45 -16s31.667 4.33301 47 13s31.833 22.667 49.5 42s37.167 44.833 58.5 76.5s46 70.5 74 116.5l105 172
c42 70 82.667 130.167 122 180.5s79.833 92 121.5 125s85.834 57.333 132.501 73s98.667 23.5 156 23.5s112 -11.167 164 -33.5s97.5 -55.5 136.5 -99.5s70 -98.333 93 -163s34.5 -139.667 34.5 -225c0 -82 -10.833 -157 -32.5 -225s-52.834 -126.333 -93.501 -175
s-89.667 -86.334 -147 -113.001s-122 -40 -194 -40c-38.667 0 -76.334 3.83301 -113.001 11.5s-68.667 18.167 -96 31.5v232c20.667 -10.667 45.667 -19.834 75 -27.501s61 -11.5 95 -11.5c30 0 56.5 7.66699 79.5 23s42.167 36.666 57.5 63.999s26.833 59.666 34.5 96.999
s11.5 78.333 11.5 123c0 49.333 -3 91.666 -9 126.999s-14.167 64.166 -24.5 86.499s-22.5 38.833 -36.5 49.5s-29 16 -45 16s-31.167 -4.16699 -45.5 -12.5s-30 -22.166 -47 -41.499s-35.833 -44.666 -56.5 -75.999l-74 -116zM364 -436.003c0 52 13 99.167 39 141.5
s63.667 78.666 113 108.999s109.5 53.833 180.5 70.5s151.5 25 241.5 25c89.333 0 169.5 -8.33301 240.5 -25s131.167 -40.167 180.5 -70.5s87 -66.666 113 -108.999s39 -89.5 39 -141.5c0 -51.333 -13 -98.166 -39 -140.499s-63.667 -78.5 -113 -108.5
s-109.5 -53.333 -180.5 -70s-151.167 -25 -240.5 -25c-90 0 -170.5 8.33301 -241.5 25s-131.167 40 -180.5 70s-87 66.167 -113 108.5s-39 89.166 -39 140.499zM635 -430.003c0 -66.667 24.999 -116.5 74.999 -149.5s124.667 -49.5 224 -49.5s175.666 16.5 228.999 49.5
s80 82.833 80 149.5c0 34 -6.83301 63 -20.5 87s-33.667 43.5 -60 58.5s-58.666 25.833 -96.999 32.5s-82.166 10 -131.499 10c-99.333 0 -174 -14.167 -224 -42.5s-75 -76.833 -75 -145.5z" />
    <glyph glyph-name="uni199C" unicode="&#x199c;" horiz-adv-x="1876" 
d="M1032 373c-42 -70 -82.667 -130.003 -122 -180.003s-79.833 -91.167 -121.5 -123.5s-85.834 -56.166 -132.501 -71.499s-98.667 -23 -156 -23s-112 11.167 -164 33.5s-97.5 55.5 -136.5 99.5s-70 98.5 -93 163.5s-34.5 139.833 -34.5 224.5c0 82 10.833 157 32.5 225
s52.834 126.333 93.501 175s89.667 86.334 147 113.001s122 40 194 40c38.667 0 76.334 -3.83301 113.001 -11.5s68.667 -18.167 96 -31.5v-232c-20.667 10.667 -45.667 19.834 -75 27.501s-61 11.5 -95 11.5c-30 0 -56.5 -7.66699 -79.5 -23s-42.167 -36.666 -57.5 -63.999
s-26.833 -59.666 -34.5 -96.999s-11.5 -78.333 -11.5 -123c0 -49.333 3 -91.666 9 -126.999s14.167 -64.166 24.5 -86.499s22.5 -38.833 36.5 -49.5s29 -16 45 -16s31.667 4.33301 47 13s31.833 22.667 49.5 42s37.167 44.833 58.5 76.5s46 70.5 74 116.5l105 172
c42 70 82.667 130.167 122 180.5s79.833 92 121.5 125s85.834 57.333 132.501 73s98.667 23.5 156 23.5s112 -11.167 164 -33.5s97.5 -55.5 136.5 -99.5s70 -98.333 93 -163s34.5 -139.667 34.5 -225c0 -82 -10.833 -157 -32.5 -225s-52.834 -126.333 -93.501 -175
s-89.667 -86.334 -147 -113.001s-122 -40 -194 -40c-38.667 0 -76.334 3.83301 -113.001 11.5s-68.667 18.167 -96 31.5v232c20.667 -10.667 45.667 -19.834 75 -27.501s61 -11.5 95 -11.5c30 0 56.5 7.66699 79.5 23s42.167 36.666 57.5 63.999s26.833 59.666 34.5 96.999
s11.5 78.333 11.5 123c0 49.333 -3 91.666 -9 126.999s-14.167 64.166 -24.5 86.499s-22.5 38.833 -36.5 49.5s-29 16 -45 16s-31.167 -4.16699 -45.5 -12.5s-30 -22.166 -47 -41.499s-35.833 -44.666 -56.5 -75.999l-74 -116zM1353 54.9971l246.005 0.00488281v-530
c0 -40 -3.33301 -78.333 -10 -115s-18.667 -68.834 -36 -96.501s-40.5 -49.834 -69.5 -66.501s-66.167 -25 -111.5 -25c-40 0 -81.5 9 -124.5 27s-86.333 40.667 -130 68s-87.334 56.666 -131.001 87.999l-126.5 88c-40.667 27.333 -79.334 50 -116.001 68
s-70.334 27 -101.001 27c-25.333 0 -46.333 -7 -63 -21s-25 -37 -25 -69s7.66699 -56.667 23 -74s45 -26 89 -26c17.333 0 34.333 1 51 3s32.334 4.33301 47.001 7s27.667 5.66699 39 9s19.666 6 24.999 8v-181c-4 -1.33301 -11.833 -3.33301 -23.5 -6
s-25.5 -5.33398 -41.5 -8.00098s-33.833 -5 -53.5 -7s-39.5 -3 -59.5 -3c-72 0 -131.833 7.66699 -179.5 23s-85.5 36 -113.5 62s-47.667 56.333 -59 91s-17 71.334 -17 110.001c0 38 6 73.667 18 107s31 62.5 57 87.5s59.5 44.667 100.5 59s90.5 21.5 148.5 21.5
c46 0 92.167 -8.33301 138.5 -25s91.666 -37.334 135.999 -62.001s87 -51.667 128 -81l114.5 -81c35.333 -24.667 67.166 -45.334 95.499 -62.001s52.166 -25 71.499 -25c22.667 0 38.834 11.5 48.501 34.5s14.5 54.5 14.5 94.5v481z" />
    <glyph glyph-name="uni199D" unicode="&#x199d;" horiz-adv-x="1876" 
d="M418 1028c24.667 7.33301 50.6709 13.0049 78.0039 17.0049s56.666 6 87.999 6c49.333 0 93.666 -4.5 132.999 -13.5s73.833 -21.5 103.5 -37.5s55 -34.833 76 -56.5s38.167 -44.834 51.5 -69.501c13.333 24.667 30.5 47.834 51.5 69.501s46.833 40.5 77.5 56.5
s66.5 28.5 107.5 37.5s87.833 13.5 140.5 13.5c76 0 143.667 -12 203 -36s109.5 -59.333 150.5 -106s72.167 -104 93.5 -172s32 -145.667 32 -233c0 -82.667 -10.333 -156.834 -31 -222.501s-50.5 -121.167 -89.5 -166.5s-86.333 -80 -142 -104s-118.167 -36 -187.5 -36
c-66 0 -121.833 5.33301 -167.5 16s-86.167 24.667 -121.5 42v241c17.333 -8.66699 34.5 -16.834 51.5 -24.501s34.833 -14.334 53.5 -20.001s38.5 -10.167 59.5 -13.5s43.833 -5 68.5 -5c24 0 47 4.83301 69 14.5s41.5 26 58.5 49s30.5 53.167 40.5 90.5
s15 83.666 15 138.999c0 101.333 -16.167 178.5 -48.5 231.5s-83.833 79.5 -154.5 79.5c-24.667 0 -47.834 -4.66699 -69.501 -14s-40.667 -24 -57 -44s-29.333 -45.333 -39 -76s-14.5 -67.334 -14.5 -110.001h-299c0 42.667 -4.83301 79.334 -14.5 110.001
s-22.667 56 -39 76s-35.5 34.667 -57.5 44s-45.333 14 -70 14c-70.667 0 -122 -26.5 -154 -79.5s-48 -130.167 -48 -231.5c0 -55.333 5 -101.666 15 -138.999s23.5 -67.5 40.5 -90.5s36.5 -39.333 58.5 -49s44.667 -14.5 68 -14.5c49.333 0 92 6.16699 128 18.5
s71 27.166 105 44.499v-241c-34.667 -17.333 -74.834 -31.333 -120.501 -42s-101.5 -16 -167.5 -16c-70 0 -132.833 12 -188.5 36s-103 58.667 -142 104s-68.833 100.833 -89.5 166.5s-31 139.834 -31 222.501v432c0 111.333 9.16699 211.666 27.5 300.999
s50.333 165.333 96 228s107 110.667 184 144s174.5 50 292.5 50c66.667 0 134 -6.5 202 -19.5s129.667 -31.833 185 -56.5v-258c-60.667 30.667 -123 54.667 -187 72s-130 26 -198 26c-49.333 0 -91.5 -8.16699 -126.5 -24.5s-63.5 -38.833 -85.5 -67.5
s-38.167 -62.334 -48.5 -101.001s-15.5 -80.667 -15.5 -126v-76z" />
    <glyph glyph-name="uni199E" unicode="&#x199e;" horiz-adv-x="1252" 
d="M621 -25c-170.667 0 -304.833 47.833 -402.5 143.5s-146.5 225.5 -146.5 389.5c0 169.333 50.667 301.833 152 397.5s238.333 143.5 411 143.5c170 0 303.333 -47.833 400 -143.5s145 -222.167 145 -379.5c0 -170 -49.833 -304.333 -149.5 -403
s-236.167 -148 -409.5 -148zM629.001 807c-74.667 0 -132.667 -25.667 -174 -77s-62 -124 -62 -218c0 -196.667 79.333 -295 238 -295c151.333 0 227 101 227 303c0 191.333 -76.333 287 -229 287z" />
    <glyph glyph-name="uni199F" unicode="&#x199f;" horiz-adv-x="1876" 
d="M733 551l-74.5 116.003c-21 31.333 -39.833 56.666 -56.5 75.999s-32.167 33.166 -46.5 41.499s-29.5 12.5 -45.5 12.5s-31 -5.33301 -45 -16s-26.167 -27.167 -36.5 -49.5s-18.5 -51.166 -24.5 -86.499s-9 -77.666 -9 -126.999c0 -44.667 3.83301 -85.667 11.5 -123
s19.167 -69.666 34.5 -96.999s34.5 -48.666 57.5 -63.999s49.5 -23 79.5 -23c34 0 65.667 3.83301 95 11.5s54.333 16.834 75 27.501v-232c-27.333 -13.333 -59.333 -23.833 -96 -31.5s-74.334 -11.5 -113.001 -11.5c-72 0 -136.667 13.333 -194 40
s-106.333 64.334 -147 113.001s-71.834 107 -93.501 175s-32.5 143 -32.5 225c0 85.333 11.5 160.333 34.5 225s54 119 93 163s84.5 77.167 136.5 99.5s106.667 33.5 164 33.5s109.333 -7.83301 156 -23.5s90.834 -40 132.501 -73s82.167 -74.667 121.5 -125
s80 -110.5 122 -180.5l105 -172c28 -46 52.667 -84.833 74 -116.5s40.833 -57.167 58.5 -76.5s34.167 -33.333 49.5 -42s31 -13 47 -13s31 5.33301 45 16s26.167 27.167 36.5 49.5s18.5 51.166 24.5 86.499s9 77.666 9 126.999c0 44.667 -3.83301 85.667 -11.5 123
s-19.167 69.666 -34.5 96.999s-34.5 48.666 -57.5 63.999s-49.5 23 -79.5 23c-34 0 -65.667 -3.83301 -95 -11.5s-54.333 -16.834 -75 -27.501v232c27.333 13.333 59.333 23.833 96 31.5s74.334 11.5 113.001 11.5c72 0 136.667 -13.333 194 -40
s106.333 -64.334 147 -113.001s71.834 -107 93.501 -175s32.5 -143 32.5 -225c0 -84.667 -11.5 -159.5 -34.5 -224.5s-54 -119.5 -93 -163.5s-84.5 -77.167 -136.5 -99.5s-106.667 -33.5 -164 -33.5s-109.333 7.66699 -156 23s-90.834 39.166 -132.501 71.499
s-82.167 73.5 -121.5 123.5s-80 110 -122 180z" />
    <glyph glyph-name="uni19A0" unicode="&#x19a0;" horiz-adv-x="1876" 
d="M1032 373c-42 -70 -82.667 -130.003 -122 -180.003s-79.833 -91.167 -121.5 -123.5s-85.834 -56.166 -132.501 -71.499s-98.667 -23 -156 -23s-112 11.167 -164 33.5s-97.5 55.5 -136.5 99.5s-70 98.5 -93 163.5s-34.5 139.833 -34.5 224.5c0 82 10.833 157 32.5 225
s52.834 126.333 93.501 175s89.667 86.334 147 113.001s122 40 194 40c38.667 0 76.334 -3.83301 113.001 -11.5s68.667 -18.167 96 -31.5v-232c-20.667 10.667 -45.667 19.834 -75 27.501s-61 11.5 -95 11.5c-30 0 -56.5 -7.66699 -79.5 -23s-42.167 -36.666 -57.5 -63.999
s-26.833 -59.666 -34.5 -96.999s-11.5 -78.333 -11.5 -123c0 -49.333 3 -91.666 9 -126.999s14.167 -64.166 24.5 -86.499s22.5 -38.833 36.5 -49.5s29 -16 45 -16s31.667 4.33301 47 13s31.833 22.667 49.5 42s37.167 44.833 58.5 76.5s46 70.5 74 116.5l105 172
c42 70 82.667 130.167 122 180.5s79.833 92 121.5 125s85.834 57.333 132.501 73s98.667 23.5 156 23.5s112 -11.167 164 -33.5s97.5 -55.5 136.5 -99.5s70 -98.333 93 -163s34.5 -139.667 34.5 -225c0 -82 -10.833 -157 -32.5 -225s-52.834 -126.333 -93.501 -175
s-89.667 -86.334 -147 -113.001s-122 -40 -194 -40c-38.667 0 -76.334 3.83301 -113.001 11.5s-68.667 18.167 -96 31.5v232c20.667 -10.667 45.667 -19.834 75 -27.501s61 -11.5 95 -11.5c30 0 56.5 7.66699 79.5 23s42.167 36.666 57.5 63.999s26.833 59.666 34.5 96.999
s11.5 78.333 11.5 123c0 49.333 -3 91.666 -9 126.999s-14.167 64.166 -24.5 86.499s-22.5 38.833 -36.5 49.5s-29 16 -45 16s-31.167 -4.16699 -45.5 -12.5s-30 -22.166 -47 -41.499s-35.833 -44.666 -56.5 -75.999l-74 -116z" />
    <glyph glyph-name="uni19A1" unicode="&#x19a1;" horiz-adv-x="1001" 
d="M379 811c-36.667 0 -70.334 -2.66797 -101.001 -8.00098s-58.5 -12.166 -83.5 -20.499s-47.167 -17.5 -66.5 -27.5s-36 -20 -50 -30v242c36 23.333 82.833 42.5 140.5 57.5s126.167 22.5 205.5 22.5c160.667 0 284.5 -38.333 371.5 -115s130.5 -191.334 130.5 -344.001
c0 -48 -6 -91 -18 -129s-27.833 -71.167 -47.5 -99.5s-42.5 -52.666 -68.5 -72.999s-53 -37.166 -81 -50.499c43.333 -16 80.333 -38.5 111 -67.5s56 -62.667 76 -101s34.667 -80.666 44 -126.999s14 -94.833 14 -145.5c0 -185.333 -45.333 -327.5 -136 -426.5
s-224.667 -148.5 -402 -148.5c-84 0 -157.833 5 -221.5 15s-121.5 25.333 -173.5 46v262c60.667 -28 121.834 -49.333 183.501 -64s128.167 -22 199.5 -22c31.333 0 60.333 6.5 87 19.5s50 33.333 70 61s35.667 62.834 47 105.501s17 94 17 154
c0 35.333 -2.33301 71.666 -7 108.999s-14.667 71.166 -30 101.499s-37 55.166 -65 74.499s-65.667 29 -113 29h-37v237h10c38.667 0 71.5 5.33301 98.5 16s49.167 25.667 66.5 45s30 43 38 71s12 59 12 93c0 35.333 -4.16699 67.5 -12.5 96.5s-21.5 54 -39.5 75
s-40.833 37.333 -68.5 49s-61.167 17.5 -100.5 17.5z" />
    <glyph glyph-name="uni19A2" unicode="&#x19a2;" horiz-adv-x="1300" 
d="M651 213c48 0 87.999 7.66602 119.999 22.999s57.833 36.5 77.5 63.5s33.667 58.667 42 95s12.5 75.5 12.5 117.5c0 50.667 -3.66699 94 -11 130s-17.5 65.833 -30.5 89.5s-28.667 41.834 -47 54.501s-38.5 21 -60.5 25v256
c86.667 -9.33301 160.167 -28.166 220.5 -56.499s109.333 -65.666 147 -111.999s65 -101.166 82 -164.499s25.5 -134.666 25.5 -213.999s-10.833 -152.333 -32.5 -219s-55.834 -124.167 -102.501 -172.5s-106.5 -86 -179.5 -113s-160.833 -40.5 -263.5 -40.5
c-102 0 -189.667 13.667 -263 41s-133.333 65.166 -180 113.499s-81 105.833 -103 172.5s-33 139.334 -33 218.001c0 79.333 7.66699 150.666 23 213.999s41.333 118.166 78 164.499s85.5 83.666 146.5 111.999s136.833 47.166 227.5 56.499v-256
c-21.333 -4 -41.166 -12.333 -59.499 -25s-34.166 -30.667 -47.499 -54s-23.833 -53 -31.5 -89s-11.5 -79 -11.5 -129c0 -39.333 3.83301 -77.166 11.5 -113.499s21.167 -68.333 40.5 -96s45.333 -49.834 78 -66.501s74 -25 124 -25z" />
    <glyph glyph-name="uni19A3" unicode="&#x19a3;" horiz-adv-x="1360" 
d="M1327 72c0 -83.333 -5.00781 -164.996 -15.0078 -244.996s-24.5 -156.5 -43.5 -229.5s-41.833 -141.5 -68.5 -205.5s-56.667 -121.333 -90 -172h-340c32 50.667 62.333 105.667 91 165s53.834 123 75.501 191s38.667 140.167 51 216.5s18.5 156.5 18.5 240.5
c0 106.667 -9 200.334 -27 281.001s-41.333 150.334 -70 209.001s-61 107.5 -97 146.5s-72.333 70 -109 93s-71.834 39.167 -105.501 48.5s-62.167 14 -85.5 14c-42 0 -73.667 -6.83301 -95 -20.5s-32 -31.167 -32 -52.5c0 -18.667 9.66699 -35.834 29 -51.501
s43.333 -31.834 72 -48.501l93.5 -55c33.667 -20 64.834 -43.667 93.501 -71s52.667 -59.333 72 -96s29 -80.334 29 -131.001c0 -51.333 -9 -97 -27 -137s-43.5 -73.667 -76.5 -101s-73 -48.166 -120 -62.499s-99.5 -21.5 -157.5 -21.5c-60.667 0 -113.5 4 -158.5 12
s-81.5 19.333 -109.5 34v233c10.667 -6.66699 23.834 -13.334 39.501 -20.001s32.5 -12.834 50.5 -18.501s36.5 -10.167 55.5 -13.5s36.833 -5 53.5 -5c34 0 60.5 10.167 79.5 30.5s28.5 44.833 28.5 73.5c0 28 -9.16699 51.833 -27.5 71.5s-41.166 37.667 -68.499 54
s-57.166 33 -89.499 50s-62.166 37 -89.499 60s-50.166 50.667 -68.499 83s-27.5 72.166 -27.5 119.499c0 54 11.333 100.333 34 139s54 70.5 94 95.5s87.667 43.5 143 55.5s115.333 18 180 18c70.667 0 140 -10.5 208 -31.5s132.167 -51.167 192.5 -90.5
s115.833 -87.5 166.5 -144.5s94.334 -121.667 131.001 -194s65.334 -151.833 86.001 -238.5s31 -179.334 31 -278.001z" />
    <glyph glyph-name="uni19A4" unicode="&#x19a4;" horiz-adv-x="1001" 
d="M379 811c-36.667 0 -70.334 -2.66797 -101.001 -8.00098s-58.5 -12.166 -83.5 -20.499s-47.167 -17.5 -66.5 -27.5s-36 -20 -50 -30v242c36 23.333 82.833 42.5 140.5 57.5s126.167 22.5 205.5 22.5c160.667 0 284.5 -38.333 371.5 -115s130.5 -191.334 130.5 -344.001
c0 -48 -6 -91 -18 -129s-27.833 -71.167 -47.5 -99.5s-42.5 -52.666 -68.5 -72.999s-53 -37.166 -81 -50.499c43.333 -16 80.333 -38.5 111 -67.5s56 -62.667 76 -101s34.667 -80.666 44 -126.999s14 -94.833 14 -145.5c0 -185.333 -45.333 -327.5 -136 -426.5
s-224.667 -148.5 -402 -148.5c-84 0 -157.833 5 -221.5 15s-121.5 25.333 -173.5 46v262c60.667 -28 121.834 -49.333 183.501 -64s128.167 -22 199.5 -22c31.333 0 60.333 6.5 87 19.5s50 33.333 70 61s35.667 62.834 47 105.501s17 94 17 154
c0 35.333 -2.33301 71.666 -7 108.999s-14.667 71.166 -30 101.499s-37 55.166 -65 74.499s-65.667 29 -113 29h-37v237h10c38.667 0 71.5 5.33301 98.5 16s49.167 25.667 66.5 45s30 43 38 71s12 59 12 93c0 35.333 -4.16699 67.5 -12.5 96.5s-21.5 54 -39.5 75
s-40.833 37.333 -68.5 49s-61.167 17.5 -100.5 17.5zM826 1186h-207l-158 188l-147 -188h-207l235 325h248z" />
    <glyph glyph-name="uni19A5" unicode="&#x19a5;" horiz-adv-x="1300" 
d="M651 213c48 0 87.999 7.66602 119.999 22.999s57.833 36.5 77.5 63.5s33.667 58.667 42 95s12.5 75.5 12.5 117.5c0 50.667 -3.66699 94 -11 130s-17.5 65.833 -30.5 89.5s-28.667 41.834 -47 54.501s-38.5 21 -60.5 25v256
c86.667 -9.33301 160.167 -28.166 220.5 -56.499s109.333 -65.666 147 -111.999s65 -101.166 82 -164.499s25.5 -134.666 25.5 -213.999s-10.833 -152.333 -32.5 -219s-55.834 -124.167 -102.501 -172.5s-106.5 -86 -179.5 -113s-160.833 -40.5 -263.5 -40.5
c-102 0 -189.667 13.667 -263 41s-133.333 65.166 -180 113.499s-81 105.833 -103 172.5s-33 139.334 -33 218.001c0 79.333 7.66699 150.666 23 213.999s41.333 118.166 78 164.499s85.5 83.666 146.5 111.999s136.833 47.166 227.5 56.499v-256
c-21.333 -4 -41.166 -12.333 -59.499 -25s-34.166 -30.667 -47.499 -54s-23.833 -53 -31.5 -89s-11.5 -79 -11.5 -129c0 -39.333 3.83301 -77.166 11.5 -113.499s21.167 -68.333 40.5 -96s45.333 -49.834 78 -66.501s74 -25 124 -25zM1010 1186h-207l-158 188l-147 -188
h-207l235 325h248z" />
    <glyph glyph-name="uni19A6" unicode="&#x19a6;" horiz-adv-x="1855" 
d="M928 874c13.333 24.667 30.501 47.834 51.501 69.501s46.833 40.5 77.5 56.5s66.5 28.5 107.5 37.5s87.833 13.5 140.5 13.5c76 0 143.667 -12 203 -36s109.5 -59.333 150.5 -106s72.167 -104 93.5 -172s32 -145.667 32 -233c0 -82.667 -10.333 -156.834 -31 -222.501
s-50.5 -121.167 -89.5 -166.5s-86.333 -80 -142 -104s-118.5 -36 -188.5 -36c-66 0 -121.833 5.33301 -167.5 16s-86.167 24.667 -121.5 42v241c17.333 -8.66699 34.5 -16.834 51.5 -24.501s35 -14.334 54 -20.001s39 -10.167 60 -13.5s43.833 -5 68.5 -5
c23.333 0 46 4.83301 68 14.5s41.5 26 58.5 49s30.5 53.167 40.5 90.5s15 83.666 15 138.999c0 101.333 -16 178.5 -48 231.5s-83.667 79.5 -155 79.5c-24.667 0 -47.834 -4.66699 -69.501 -14s-40.667 -24 -57 -44s-29.333 -45.333 -39 -76s-14.5 -67.334 -14.5 -110.001
h-299c0 42.667 -4.83301 79.334 -14.5 110.001s-22.667 56 -39 76s-35.333 34.667 -57 44s-44.834 14 -69.501 14c-70.667 0 -122.167 -26.5 -154.5 -79.5s-48.5 -130.167 -48.5 -231.5c0 -55.333 5 -101.666 15 -138.999s23.5 -67.5 40.5 -90.5s36.5 -39.333 58.5 -49
s45 -14.5 69 -14.5c24.667 0 47.5 1.66699 68.5 5s40.833 7.83301 59.5 13.5s36.667 12.334 54 20.001s34.333 15.834 51 24.501v-241c-35.333 -17.333 -75.833 -31.333 -121.5 -42s-101.5 -16 -167.5 -16c-69.333 0 -131.833 12 -187.5 36s-103 58.667 -142 104
s-68.833 100.833 -89.5 166.5s-31 139.834 -31 222.501c0 87.333 10.833 165 32.5 233s53.334 125.333 95.001 172s93 82 154 106s130.833 36 209.5 36c50 0 94.5 -4.5 133.5 -13.5s73.5 -21.5 103.5 -37.5s55.5 -34.833 76.5 -56.5s38.167 -44.834 51.5 -69.501z
M354.001 -436c0 52 13 99.167 39 141.5s63.667 78.666 113 108.999s109.5 53.833 180.5 70.5s151.5 25 241.5 25c89.333 0 169.5 -8.33301 240.5 -25s131.167 -40.167 180.5 -70.5s87 -66.666 113 -108.999s39 -89.5 39 -141.5c0 -51.333 -13 -98.166 -39 -140.499
s-63.667 -78.5 -113 -108.5s-109.5 -53.333 -180.5 -70s-151.167 -25 -240.5 -25c-90 0 -170.5 8.33301 -241.5 25s-131.167 40 -180.5 70s-87 66.167 -113 108.5s-39 89.166 -39 140.499zM625.001 -430c0 -66.667 24.999 -116.5 74.999 -149.5s124.667 -49.5 224 -49.5
s175.666 16.5 228.999 49.5s80 82.833 80 149.5c0 34 -6.83301 63 -20.5 87s-33.667 43.5 -60 58.5s-58.666 25.833 -96.999 32.5s-82.166 10 -131.499 10c-99.333 0 -174 -14.167 -224 -42.5s-75 -76.833 -75 -145.5z" />
    <glyph glyph-name="uni19A7" unicode="&#x19a7;" horiz-adv-x="1065" 
d="M903 297c39.333 -44 70.6689 -90.8301 94.002 -140.497s42.666 -101.834 57.999 -156.501h-326c-3.33301 17.333 -7.33301 33.166 -12 47.499s-12.334 31.166 -23.001 50.499c-22 -17.333 -44.333 -33 -67 -47s-47.167 -26 -73.5 -36s-55 -17.667 -86 -23
s-66.167 -8 -105.5 -8c-37.333 0 -74.333 6 -111 18s-69.5 30 -98.5 54s-52.5 54 -70.5 90s-27 78 -27 126c0 50 9.5 93.167 28.5 129.5s43.667 66.5 74 90.5s64.5 41.833 102.5 53.5s76.333 17.5 115 17.5c56.667 0 107.667 -6 153 -18s86.333 -32.667 123 -62
c3.33301 12.667 6 25.5 8 38.5s3 30.167 3 51.5c0 33.333 -5.16699 64.833 -15.5 94.5s-26.166 55.5 -47.499 77.5s-48.5 39.5 -81.5 52.5s-72.5 19.5 -118.5 19.5c-62.667 0 -119.667 -7.33301 -171 -22s-98.666 -33.334 -141.999 -56.001v254
c25.333 8 50.666 15.5 75.999 22.5s52.333 13 81 18s59.667 8.83301 93 11.5s70 4 110 4c93.333 0 174.333 -12 243 -36s125.667 -57 171 -99s79.166 -91.667 101.499 -149s33.5 -119.666 33.5 -186.999c0 -36.667 -2.83301 -69.5 -8.5 -98.5s-13 -54.833 -22 -77.5
s-19 -42.667 -30 -60s-21.5 -32.333 -31.5 -45zM383.003 170.003c19.333 0 38.332 3.5 56.999 10.5s36.334 15.833 53.001 26.5s31.834 22.5 45.501 35.5s25.167 25.833 34.5 38.5c-26.667 24.667 -54.834 45.5 -84.501 62.5s-64.167 25.5 -103.5 25.5
c-30.667 0 -56.5 -8.83301 -77.5 -26.5s-31.5 -42.5 -31.5 -74.5c0 -15.333 2.83301 -29 8.5 -41s13.5 -22.333 23.5 -31s21.5 -15.167 34.5 -19.5s26.5 -6.5 40.5 -6.5zM102.002 -435.997c0 52 10.333 99.167 31 141.5s50 78.666 88 108.999s83.333 53.833 136 70.5
s111 25 175 25s122.5 -8.33301 175.5 -25s98.333 -40.167 136 -70.5s67 -66.666 88 -108.999s31.5 -89.5 31.5 -141.5c0 -51.333 -10.5 -98.166 -31.5 -140.499s-50.333 -78.5 -88 -108.5s-83 -53.333 -136 -70s-111.5 -25 -175.5 -25s-122.333 8.33301 -175 25
s-98 40 -136 70s-67.333 66.167 -88 108.5s-31 89.166 -31 140.499zM334.002 -435.997c0 -67.333 17.333 -116.333 52 -147s82 -46 142 -46c62.667 0 112.5 15.333 149.5 46s55.5 79.667 55.5 147c0 35.333 -4.83301 65.333 -14.5 90s-23.334 44.667 -41.001 60
s-39.167 26.5 -64.5 33.5s-53.666 10.5 -84.999 10.5c-30 0 -57 -3.5 -81 -10.5s-44.333 -18.167 -61 -33.5s-29.5 -35.333 -38.5 -60s-13.5 -54.667 -13.5 -90z" />
    <glyph glyph-name="uni19A8" unicode="&#x19a8;" horiz-adv-x="1300" 
d="M651 811c-50 0 -91.332 -8.33398 -123.999 -25.001s-58.667 -38.834 -78 -66.501s-32.833 -59.667 -40.5 -96s-11.5 -74.166 -11.5 -113.499c0 -50 3.83301 -93 11.5 -129s18.167 -65.667 31.5 -89s29.166 -41.333 47.499 -54s38.166 -21 59.499 -25v-256
c-90.667 9.33301 -166.5 28.166 -227.5 56.499s-109.833 65.666 -146.5 111.999s-62.667 101.333 -78 165s-23 134.834 -23 213.501s11 151.334 33 218.001s56.333 124.167 103 172.5s106.667 86.166 180 113.499s161 41 263 41c102.667 0 190.5 -13.5 263.5 -40.5
s132.833 -64.667 179.5 -113s80.834 -105.833 102.501 -172.5s32.5 -139.667 32.5 -219c0 -78.667 -8.5 -149.834 -25.5 -213.501s-44.333 -118.667 -82 -165s-86.667 -83.666 -147 -111.999s-133.833 -47.166 -220.5 -56.499v256c22 4 42.167 12.333 60.5 25
s34 30.834 47 54.501s23.167 53.5 30.5 89.5s11 79.333 11 130c0 42 -4.16699 81.167 -12.5 117.5s-22.333 68 -42 95s-45.5 48.167 -77.5 63.5s-72 23 -120 23zM220.001 -436.001c0 52 10.333 99.167 31 141.5s50 78.666 88 108.999s83.333 53.833 136 70.5s111 25 175 25
s122.333 -8.33301 175 -25s98 -40.167 136 -70.5s67.333 -66.666 88 -108.999s31 -89.5 31 -141.5c0 -51.333 -10.333 -98.166 -31 -140.499s-50 -78.5 -88 -108.5s-83.333 -53.333 -136 -70s-111 -25 -175 -25s-122.333 8.33301 -175 25s-98 40 -136 70
s-67.333 66.167 -88 108.5s-31 89.166 -31 140.499zM451.001 -436.001c0 -67.333 17.332 -116.333 51.999 -147s82.334 -46 143.001 -46c62.667 0 112.5 15.333 149.5 46s55.5 79.667 55.5 147c0 35.333 -4.83301 65.333 -14.5 90s-23.334 44.667 -41.001 60
s-39.167 26.5 -64.5 33.5s-53.666 10.5 -84.999 10.5c-30 0 -57.167 -3.5 -81.5 -10.5s-44.833 -18.167 -61.5 -33.5s-29.5 -35.333 -38.5 -60s-13.5 -54.667 -13.5 -90z" />
    <glyph glyph-name="uni19A9" unicode="&#x19a9;" horiz-adv-x="1321" 
d="M748 1655c-46 0 -85.9941 -7.5 -119.994 -22.5s-63.167 -36 -87.5 -63s-44.5 -58.667 -60.5 -95s-28.5 -76 -37.5 -119s-15.333 -88.167 -19 -135.5s-5.5 -95 -5.5 -143v-67c36 12 74.833 21.5 116.5 28.5s87.5 10.5 137.5 10.5c102 0 189.5 -13.5 262.5 -40.5
s132.833 -64.667 179.5 -113s80.834 -105.833 102.501 -172.5s32.5 -139.667 32.5 -219c0 -78.667 -8.5 -149.834 -25.5 -213.501s-44.333 -118.667 -82 -165s-86.667 -83.666 -147 -111.999s-133.833 -47.166 -220.5 -56.499v256c22 4 42.167 12.333 60.5 25
s34.166 30.834 47.499 54.501s23.666 53.5 30.999 89.5s11 79.333 11 130c0 42 -4.16699 81.167 -12.5 117.5s-22.333 68 -42 95s-45.667 48.167 -78 63.5s-72.166 23 -119.499 23c-50 0 -91.5 -8.33301 -124.5 -25s-59 -38.834 -78 -66.501s-32.333 -59.667 -40 -96
s-11.5 -74.166 -11.5 -113.499c0 -50 3.66699 -93 11 -129s17.666 -65.667 30.999 -89s29.166 -41.333 47.499 -54s38.166 -21 59.499 -25v-256c-90.667 9.33301 -166.334 28.166 -227.001 56.499s-109.334 65.666 -146.001 111.999s-62.834 101.333 -78.501 165
s-23.5 134.834 -23.5 213.501v467c0 141.333 10.667 268.666 32 381.999s57 209.833 107 289.5s116.5 140.834 199.5 183.501s186.5 64 310.5 64c82.667 0 157.667 -7.5 225 -22.5s122 -36.167 164 -63.5v-254c-46 31.333 -102 56.666 -168 75.999s-137.333 29 -214 29z
M231.006 -436c0 52 10.333 99.167 31 141.5s50 78.666 88 108.999s83.333 53.833 136 70.5s111 25 175 25s122.333 -8.33301 175 -25s98 -40.167 136 -70.5s67.333 -66.666 88 -108.999s31 -89.5 31 -141.5c0 -51.333 -10.333 -98.166 -31 -140.499s-50 -78.5 -88 -108.5
s-83.333 -53.333 -136 -70s-111 -25 -175 -25s-122.333 8.33301 -175 25s-98 40 -136 70s-67.333 66.167 -88 108.5s-31 89.166 -31 140.499zM462.006 -436c0 -67.333 17.332 -116.333 51.999 -147s82.334 -46 143.001 -46c62.667 0 112.5 15.333 149.5 46
s55.5 79.667 55.5 147c0 35.333 -4.83301 65.333 -14.5 90s-23.334 44.667 -41.001 60s-39.167 26.5 -64.5 33.5s-53.666 10.5 -84.999 10.5c-30 0 -57.167 -3.5 -81.5 -10.5s-44.833 -18.167 -61.5 -33.5s-29.5 -35.333 -38.5 -60s-13.5 -54.667 -13.5 -90z" />
    <glyph glyph-name="uni19AA" unicode="&#x19aa;" horiz-adv-x="1855" 
d="M819 154c-45.333 -56.667 -101.83 -100.667 -169.497 -132s-144.167 -47 -229.5 -47c-66.667 0 -127.834 4.66699 -183.501 14s-110.5 27.333 -164.5 54v250c47.333 -30 93.666 -50.833 138.999 -62.5s89.666 -17.5 132.999 -17.5c44.667 0 83.334 7.16699 116.001 21.5
s59.667 34.333 81 60s37.166 56.334 47.499 92.001s15.5 74.834 15.5 117.501c0 43.333 -4.83301 83.833 -14.5 121.5s-25 70.167 -46 97.5s-48 48.833 -81 64.5s-72.5 23.5 -118.5 23.5c-51.333 0 -99.333 -7.16699 -144 -21.5s-84 -33.166 -118 -56.499v258
c40 18.667 85.333 33 136 43s109 15 175 15c81.333 0 155.166 -12.167 221.499 -36.5s123 -59.333 170 -105s83.333 -101.667 109 -168s38.5 -141.5 38.5 -225.5c0 -46.667 8.33301 -88.5 25 -125.5s38.667 -68.5 66 -94.5s58.833 -46 94.5 -60s72.834 -21 111.501 -21
c36.667 0 69.167 7.16699 97.5 21.5s52 34.666 71 60.999s33.5 58.166 43.5 95.499s15 79 15 125c0 43.333 -4.5 83.166 -13.5 119.499s-22.833 67.5 -41.5 93.5s-42.334 46.167 -71.001 60.5s-62.334 21.5 -101.001 21.5c-48 0 -92.5 -7.16699 -133.5 -21.5
s-78.5 -33.166 -112.5 -56.499v258c36 19.333 75.167 33.833 117.5 43.5s90.5 14.5 144.5 14.5c81.333 0 155.166 -12.167 221.499 -36.5s123 -59.333 170 -105s83.333 -101.667 109 -168s38.5 -141.5 38.5 -225.5c0 -85.333 -12.333 -161.5 -37 -228.5
s-59.667 -123.5 -105 -169.5s-100.166 -81 -164.499 -105s-136.166 -36 -215.499 -36c-53.333 0 -102 4 -146 12s-84 19.667 -120 35s-68.667 34.166 -98 56.499s-55.666 47.5 -78.999 75.5zM354.003 -436c0 52 13 99.167 39 141.5s63.667 78.666 113 108.999
s109.5 53.833 180.5 70.5s151.5 25 241.5 25c89.333 0 169.5 -8.33301 240.5 -25s131.167 -40.167 180.5 -70.5s87 -66.666 113 -108.999s39 -89.5 39 -141.5c0 -51.333 -13 -98.166 -39 -140.499s-63.667 -78.5 -113 -108.5s-109.5 -53.333 -180.5 -70
s-151.167 -25 -240.5 -25c-90 0 -170.5 8.33301 -241.5 25s-131.167 40 -180.5 70s-87 66.167 -113 108.5s-39 89.166 -39 140.499zM625.003 -430c0 -66.667 24.999 -116.5 74.999 -149.5s124.667 -49.5 224 -49.5s175.666 16.5 228.999 49.5s80 82.833 80 149.5
c0 34 -6.83301 63 -20.5 87s-33.667 43.5 -60 58.5s-58.666 25.833 -96.999 32.5s-82.166 10 -131.499 10c-99.333 0 -174 -14.167 -224 -42.5s-75 -76.833 -75 -145.5z" />
    <glyph glyph-name="uni19AB" unicode="&#x19ab;" horiz-adv-x="1321" 
d="M1102 84c25.333 -11.333 48.8398 -25.666 70.5068 -42.999s40.5 -38 56.5 -62s28.5 -51.167 37.5 -81.5s13.5 -63.833 13.5 -100.5c0 -44 -6.83301 -84 -20.5 -120s-32 -68.5 -55 -97.5s-50 -54.5 -81 -76.5s-63.5 -41.333 -97.5 -58c12 20 22.833 39.167 32.5 57.5
s17.667 37.5 24 57.5s11.166 41.5 14.499 64.5s5 49.167 5 78.5c0 28 -6.83301 56.833 -20.5 86.5s-34.167 57 -61.5 82s-61.5 45.5 -102.5 61.5s-88.833 24 -143.5 24v256c22 4 42.167 12.333 60.5 25s34.166 30.834 47.499 54.501s23.666 53.5 30.999 89.5
s11 79.333 11 130c0 42 -4.16699 81.167 -12.5 117.5s-22.333 68 -42 95s-45.667 48.167 -78 63.5s-72.166 23 -119.499 23c-50 0 -91.5 -8.33301 -124.5 -25s-59 -38.834 -78 -66.501s-32.333 -59.667 -40 -96s-11.5 -74.166 -11.5 -113.499c0 -50 3.66699 -93 11 -129
s17.666 -65.667 30.999 -89s29.166 -41.333 47.499 -54s38.166 -21 59.499 -25v-256c-90.667 9.33301 -166.334 28.166 -227.001 56.499s-109.334 65.666 -146.001 111.999s-62.834 101.333 -78.501 165s-23.5 134.834 -23.5 213.501v467
c0 141.333 10.667 268.666 32 381.999s57 209.833 107 289.5s116.5 140.834 199.5 183.501s186.5 64 310.5 64c82.667 0 157.667 -7.5 225 -22.5s122 -36.167 164 -63.5v-254c-46 31.333 -102 56.666 -168 75.999s-137.333 29 -214 29c-46 0 -86 -7.5 -120 -22.5
s-63.167 -36 -87.5 -63s-44.5 -58.667 -60.5 -95s-28.5 -76 -37.5 -119s-15.333 -88.167 -19 -135.5s-5.5 -95 -5.5 -143v-67c36 12 74.833 21.5 116.5 28.5s87.5 10.5 137.5 10.5c102 0 189.5 -13.5 262.5 -40.5s132.833 -64.667 179.5 -113
s80.834 -105.833 102.501 -172.5s32.5 -139.667 32.5 -219c0 -93.333 -11.5 -174.833 -34.5 -244.5s-60.5 -128.167 -112.5 -175.5zM168.007 -436c0 52 10.333 99.167 31 141.5s50 78.666 88 108.999s83.333 53.833 136 70.5s111 25 175 25s122.333 -8.33301 175 -25
s98 -40.167 136 -70.5s67.333 -66.666 88 -108.999s31 -89.5 31 -141.5c0 -51.333 -10.333 -98.166 -31 -140.499s-50 -78.5 -88 -108.5s-83.333 -53.333 -136 -70s-111 -25 -175 -25s-122.333 8.33301 -175 25s-98 40 -136 70s-67.333 66.167 -88 108.5
s-31 89.166 -31 140.499zM399.007 -436c0 -67.333 17.332 -116.333 51.999 -147s82.334 -46 143.001 -46c62.667 0 112.5 15.333 149.5 46s55.5 79.667 55.5 147c0 35.333 -4.83301 65.333 -14.5 90s-23.334 44.667 -41.001 60s-39.167 26.5 -64.5 33.5
s-53.666 10.5 -84.999 10.5c-30 0 -57.167 -3.5 -81.5 -10.5s-44.833 -18.167 -61.5 -33.5s-29.5 -35.333 -38.5 -60s-13.5 -54.667 -13.5 -90z" />
    <glyph glyph-name="uni19B0" unicode="&#x19b0;" horiz-adv-x="1038" 
d="M803 190c0 14.667 -2.00293 30.333 -6.00293 47s-7.66699 29.667 -11 39h183c3.33301 -4.66699 7.16602 -16 11.499 -34s6.5 -36.667 6.5 -56c0 -68.667 -15.833 -119.5 -47.5 -152.5s-85.5 -49.5 -161.5 -49.5c-43.333 0 -81.5 7.33301 -114.5 22s-62.667 33 -89 55
s-50.166 45.833 -71.499 71.5l-61 71.5c-19.333 22 -38.5 40.333 -57.5 55s-39.833 22 -62.5 22c-6 0 -12.5 -0.833008 -19.5 -2.5s-13.667 -4.66699 -20 -9s-11.666 -10.5 -15.999 -18.5s-6.5 -18 -6.5 -30c0 -17.333 4.5 -31.5 13.5 -42.5s21.5 -16.5 37.5 -16.5
c14.667 0 27.334 1.33301 38.001 4s22.667 6 36 10v-176c-6 -3.33301 -17.667 -6.83301 -35 -10.5s-42.666 -5.5 -75.999 -5.5c-72.667 0 -128 19.667 -166 59s-57 93.333 -57 162c0 38 7 71.667 21 101s33 54 57 74s52.333 35.333 85 46s67.667 16 105 16
c42.667 0 80.5 -7.33301 113.5 -22s62.833 -33 89.5 -55s50.667 -45.833 72 -71.5l60.5 -71.5c19 -22 37.667 -40.333 56 -55s37.5 -22 57.5 -22c13.333 0 22.5 4.5 27.5 13.5s7.5 19.5 7.5 31.5zM802.997 796.999c0 14 -2.00293 29.5 -6.00293 46.5
s-7.66699 30.167 -11 39.5h183c3.33301 -5.33301 7.16602 -16.833 11.499 -34.5s6.5 -36.167 6.5 -55.5c0 -68.667 -15.833 -119.667 -47.5 -153s-85.5 -50 -161.5 -50c-43.333 0 -81.5 7.33301 -114.5 22s-62.667 33 -89 55s-50.166 45.833 -71.499 71.5l-61 71.5
c-19.333 22 -38.5 40.333 -57.5 55s-39.833 22 -62.5 22c-6 0 -12.5 -0.833008 -19.5 -2.5s-13.667 -4.66699 -20 -9s-11.666 -10.333 -15.999 -18s-6.5 -17.834 -6.5 -30.501c0 -17.333 4.5 -31.5 13.5 -42.5s21.5 -16.5 37.5 -16.5c14.667 0 27.334 1.33301 38.001 4
s22.667 6 36 10v-176c-6 -3.33301 -17.667 -6.83301 -35 -10.5s-42.666 -5.5 -75.999 -5.5c-72.667 0 -128 19.667 -166 59s-57 93.333 -57 162c0 38 7 71.833 21 101.5s33 54.5 57 74.5s52.333 35.333 85 46s67.667 16 105 16c42.667 0 80.5 -7.33301 113.5 -22
s62.833 -33 89.5 -55s50.667 -45.833 72 -71.5l60.5 -71.5c19 -22 37.667 -40.333 56 -55s37.5 -22 57.5 -22c13.333 0 22.5 4.33301 27.5 13s7.5 19.334 7.5 32.001z" />
    <glyph glyph-name="uni19B1" unicode="&#x19b1;" horiz-adv-x="981" 
d="M72 987c71.333 41.333 174.334 62.001 309.001 62.001c78 0 149.333 -12.5 214 -37.5s120.167 -60.167 166.5 -105.5s82.5 -99.333 108.5 -162s39 -131.667 39 -207c0 -87.333 -13.667 -165.666 -41 -234.999s-66.166 -128.333 -116.499 -177
s-110.833 -85.834 -181.5 -111.501s-149.334 -38.5 -236.001 -38.5c-60.667 0 -112.5 4.16699 -155.5 12.5s-78.5 20.166 -106.5 35.499v268c65.333 -49.333 139 -74 221 -74c45.333 0 86.166 6.83301 122.499 20.5s67.166 33.334 92.499 59.001s45 57 59 94
s21 78.833 21 125.5c0 45.333 -6.5 85.833 -19.5 121.5s-31.667 66.167 -56 91.5s-54.166 44.666 -89.499 57.999s-75.333 20 -120 20c-78.667 0 -155.667 -24.667 -231 -74v254z" />
    <glyph glyph-name="uni19B2" unicode="&#x19b2;" horiz-adv-x="1354" 
d="M670 -25c-88 0 -167.666 19.5 -238.999 58.5s-132.166 97.5 -182.499 175.5s-89 175.667 -116 293s-40.5 254.333 -40.5 411c0 169.333 13.5 315.5 40.5 438.5s65.833 224.333 116.5 304s112.5 138.667 185.5 177s155.5 57.5 247.5 57.5
c88.667 0 168.667 -18.5 240 -55.5s132.166 -94.167 182.499 -171.5s89.166 -175.833 116.499 -295.5s41 -262.167 41 -427.5c0 -162 -14 -303.5 -42 -424.5s-67.833 -221.5 -119.5 -301.5s-114 -139.833 -187 -179.5s-154.167 -59.5 -243.5 -59.5zM668.001 827
c-50 0 -97.167 -9.99805 -141.5 -29.998s-80.5 -50 -108.5 -90c2 -77.333 10.167 -146.333 24.5 -207s33 -111.834 56 -153.501s49.5 -73.334 79.5 -95.001s62 -32.5 96 -32.5s65.5 10.667 94.5 32s54.5 52.666 76.5 93.999s39.5 92.333 52.5 153s20.5 130.334 22.5 209.001
c-12 19.333 -27.167 36.5 -45.5 51.5s-38.5 27.5 -60.5 37.5s-45.5 17.667 -70.5 23s-50.167 8 -75.5 8zM676.001 1647c-41.333 0 -78.665 -14.833 -111.998 -44.5s-61.5 -73.834 -84.5 -132.501s-40.667 -131.167 -53 -217.5s-18.5 -186.5 -18.5 -300.5
c12 17.333 27.167 33 45.5 47s39.166 26 62.499 36s48.666 17.833 75.999 23.5s56 8.5 86 8.5c57.333 0 108.833 -10.333 154.5 -31s80.167 -48 103.5 -82c0 234.667 -22.333 408.834 -67 522.501s-109 170.5 -193 170.5z" />
    <glyph glyph-name="uni19B3" unicode="&#x19b3;" horiz-adv-x="981" 
d="M588 516c0 45.333 -6.50684 85.8271 -19.5068 121.494s-31.667 66.167 -56 91.5s-54.166 44.666 -89.499 57.999s-75.333 20 -120 20c-78.667 0 -155.667 -24.667 -231 -74v254c71.333 41.333 174.333 62 309 62c78 0 149.333 -12.5 214 -37.5
s120.167 -60.167 166.5 -105.5s82.5 -99.333 108.5 -162s39 -131.667 39 -207c0 -82.667 -12.5 -157.167 -37.5 -223.5s-60.167 -123.5 -105.5 -171.5s-100.166 -86 -164.499 -114s-135.833 -45 -214.5 -51v-274c0 -43.333 5.83301 -80.666 17.5 -111.999
s27.334 -57 47.001 -77s42.5 -34.833 68.5 -44.5s53.333 -14.5 82 -14.5c45.333 0 92.333 7.5 141 22.5s94.667 37.5 138 67.5v-250c-21.333 -12 -45.166 -22.667 -71.499 -32s-53.666 -17.166 -81.999 -23.499s-57 -11.166 -86 -14.499s-56.5 -5 -82.5 -5
c-84 0 -156.667 12.167 -218 36.5s-111.833 59.333 -151.5 105s-69.167 100.834 -88.5 165.501s-29 137.667 -29 219v537c36.667 -19.333 78.334 -34.166 125.001 -44.499s97 -15.5 151 -15.5c38.667 0 72.834 7.5 102.501 22.5s54.667 35.833 75 62.5
s35.833 57.834 46.5 93.501s16 73.834 16 114.501z" />
    <glyph glyph-name="uni19B4" unicode="&#x19b4;" horiz-adv-x="1233" 
d="M784 152h-3.99902c-77.333 -118 -182.333 -177 -315 -177c-232 0 -348 140 -348 420v629h315v-582c0 -150 54.667 -225 164 -225c56 0 101.333 20.833 136 62.5s52 95.167 52 160.5v584h316v-1255c0 -32 2.16699 -60.167 6.5 -84.5s11.666 -44.833 21.999 -61.5
s24.166 -29.334 41.499 -38.001s39 -13 65 -13c30.667 0 59.334 4 86.001 12v-225c-19.333 -5.33301 -41 -9.66602 -65 -12.999s-49.333 -5 -76 -5c-72 0 -133 8.16699 -183 24.5s-90.833 40.5 -122.5 72.5s-54.667 71.667 -69 119s-21.5 102 -21.5 164v431z" />
    <glyph glyph-name="uni19B5" unicode="&#x19b5;" horiz-adv-x="1278" 
d="M1188 600c0 -16.667 -1.33203 -35.5 -3.99902 -56.5s-6 -42.667 -10 -65s-8.5 -44.666 -13.5 -66.999l-13.5 -62c-4 -19 -7.33301 -35.833 -10 -50.5s-4 -25.667 -4 -33c0 -31.333 24.333 -47 73 -47v-252c-66 0 -123.833 3.16699 -173.5 9.5s-91.334 17.5 -125.001 33.5
s-58.834 38 -75.501 66s-25 63.333 -25 106c0 28.667 2.83301 59.167 8.5 91.5s12 65.5 19 99.5s13.333 67.833 19 101.5s8.5 66.5 8.5 98.5c0 28.667 -2.83301 57.167 -8.5 85.5s-16.667 53.833 -33 76.5s-39.166 41 -68.499 55s-67.666 21 -114.999 21
c-50 0 -90.667 -8.33301 -122 -25s-55.833 -38.834 -73.5 -66.501s-29.5 -59.667 -35.5 -96s-9 -74.166 -9 -113.499c0 -50 3.83301 -93 11.5 -129s18.167 -65.667 31.5 -89s29.166 -41.333 47.499 -54s38.166 -21 59.499 -25v-256
c-90.667 9.33301 -166.5 28.166 -227.5 56.499s-109.833 65.666 -146.5 111.999s-62.667 101.333 -78 165s-23 134.834 -23 213.501s10 151.334 30 218.001s52.167 124.167 96.5 172.5s102.5 86.166 174.5 113.499s160 41 264 41c100.667 0 186 -12.333 256 -37
s126.833 -57.667 170.5 -99s75.334 -89 95.001 -143s29.5 -110.667 29.5 -170z" />
    <glyph glyph-name="uni19B6" unicode="&#x19b6;" horiz-adv-x="2494" 
d="M1188 600c0 -16.667 -1.33203 -35.5 -3.99902 -56.5s-6 -42.667 -10 -65s-8.5 -44.666 -13.5 -66.999l-13.5 -62c-4 -19 -7.33301 -35.833 -10 -50.5s-4 -25.667 -4 -33c0 -31.333 24.333 -47 73 -47v-252c-66 0 -123.833 3.16699 -173.5 9.5s-91.334 17.5 -125.001 33.5
s-58.834 38 -75.501 66s-25 63.333 -25 106c0 28.667 2.83301 59.167 8.5 91.5s12 65.5 19 99.5s13.333 67.833 19 101.5s8.5 66.5 8.5 98.5c0 28.667 -2.83301 57.167 -8.5 85.5s-16.667 53.833 -33 76.5s-39.166 41 -68.499 55s-67.666 21 -114.999 21
c-50 0 -90.667 -8.33301 -122 -25s-55.833 -38.834 -73.5 -66.501s-29.5 -59.667 -35.5 -96s-9 -74.166 -9 -113.499c0 -50 3.83301 -93 11.5 -129s18.167 -65.667 31.5 -89s29.166 -41.333 47.499 -54s38.166 -21 59.499 -25v-256
c-90.667 9.33301 -166.5 28.166 -227.5 56.499s-109.833 65.666 -146.5 111.999s-62.667 101.333 -78 165s-23 134.834 -23 213.501s10 151.334 30 218.001s52.167 124.167 96.5 172.5s102.5 86.166 174.5 113.499s160 41 264 41c100.667 0 186 -12.333 256 -37
s126.833 -57.667 170.5 -99s75.334 -89 95.001 -143s29.5 -110.667 29.5 -170zM2405 600c0 -16.667 -1.33398 -35.5 -4.00098 -56.5s-6 -42.667 -10 -65s-8.5 -44.666 -13.5 -66.999l-13.5 -62c-4 -19 -7.33301 -35.833 -10 -50.5s-4 -25.667 -4 -33
c0 -31.333 24.333 -47 73 -47v-252c-66 0 -123.833 3.16699 -173.5 9.5s-91.334 17.5 -125 33.5c-33.667 16 -58.834 38 -75.5 66c-16.667 28 -25 63.333 -25 106c0 28.667 2.83301 59.167 8.5 91.5s12 65.5 19 99.5s13.333 67.833 19 101.5s8.5 66.5 8.5 98.5
c0 28.667 -2.83301 57.167 -8.5 85.5s-16.667 53.833 -33 76.5s-39.166 41 -68.499 55s-67.666 21 -114.999 21c-50 0 -90.667 -8.33301 -122 -25s-55.833 -38.834 -73.5 -66.501s-29.5 -59.667 -35.5 -96s-9 -74.166 -9 -113.499c0 -50 3.83301 -93 11.5 -129
s18.167 -65.667 31.5 -89s29.166 -41.333 47.499 -54s38.166 -21 59.499 -25v-256c-90.667 9.33301 -166.5 28.166 -227.5 56.499s-109.833 65.666 -146.5 111.999s-62.667 101.333 -78 165s-23 134.834 -23 213.501s10 151.334 30 218.001s52.167 124.167 96.5 172.5
s102.5 86.166 174.5 113.499s160 41 264 41c100.667 0 186 -12.333 256 -37s126.833 -57.667 170.5 -99s75.334 -89 95.001 -143s29.5 -110.667 29.5 -170z" />
    <glyph glyph-name="uni19B7" unicode="&#x19b7;" horiz-adv-x="961" 
d="M659 217c30 0 57.834 2.00098 83.501 6.00098s49.667 9.5 72 16.5s43.166 14.833 62.499 23.5s37.666 18 54.999 28v-254c-35.333 -19.333 -80.5 -34.5 -135.5 -45.5s-117.833 -16.5 -188.5 -16.5c-82.667 0 -157.167 14.167 -223.5 42.5s-122.666 69 -168.999 122
s-81.833 117 -106.5 192s-37 159.167 -37 252.5c0 82.667 9.16699 153.5 27.5 212.5s42.666 109 72.999 150s65 74.667 104 101s79.167 47.833 120.5 64.5c-28.667 10.667 -58.334 25.334 -89.001 44.001s-58.5 42.667 -83.5 72s-45.5 64.5 -61.5 105.5
s-24 88.833 -24 143.5c0 57.333 9.66699 111 29 161s48.333 93.667 87 131s87.334 66.833 146.001 88.5s127 32.5 205 32.5c52.667 0 103.167 -4 151.5 -12s95.5 -21.667 141.5 -41v-248c-36 20.667 -76.667 37.167 -122 49.5s-90.666 18.5 -135.999 18.5
c-32 0 -59.5 -5.33301 -82.5 -16s-41.833 -24.667 -56.5 -42s-25.5 -36.833 -32.5 -58.5s-10.5 -43.5 -10.5 -65.5c0 -34.667 4.5 -66.334 13.5 -95.001s23 -53.334 42 -74.001s43.167 -36.667 72.5 -48s64.333 -17 105 -17h33v-237h-39
c-40 0 -77.833 -9.16699 -113.5 -27.5s-66.667 -45 -93 -80s-47.333 -77.667 -63 -128s-23.5 -107.833 -23.5 -172.5c0 -66 7 -122.833 21 -170.5s33 -87 57 -118s52.167 -53.833 84.5 -68.5s66.833 -22 103.5 -22z" />
    <glyph glyph-name="uni19B8" unicode="&#x19b8;" horiz-adv-x="1180" 
d="M246 211c23.333 0 46.002 1.83105 68.002 5.49805s43.667 9.16699 65 16.5c-66 70.667 -115.667 142.834 -149 216.501s-50 142.834 -50 207.501c0 50 7 98.667 21 146s37.167 89.166 69.5 125.499s74.833 65.5 127.5 87.5s118 33 196 33
c69.333 0 129.666 -9.83301 180.999 -29.5s94 -47 128 -82s59.333 -76.5 76 -124.5s25 -100 25 -156c0 -32 -4.33301 -65.667 -13 -101s-21.5 -71 -38.5 -107s-38 -72.167 -63 -108.5s-53.833 -72.166 -86.5 -107.499c42.667 -14.667 87 -22 133 -22
c48 0 89.667 5.83301 125 17.5s68 25.5 98 41.5v-233c-10 -7.33301 -23.167 -14.666 -39.5 -21.999s-34.833 -14 -55.5 -20s-42.834 -10.833 -66.501 -14.5s-47.5 -5.5 -71.5 -5.5c-64 0 -124 6.83301 -180 20.5s-108 32.834 -156 57.501
c-48 -24.667 -100 -43.834 -156 -57.501s-116 -20.5 -180 -20.5c-24 0 -47.833 1.83301 -71.5 5.5s-46 8.5 -67 14.5s-39.667 12.667 -56 20s-29.5 14.666 -39.5 21.999v233c30 -16 63.167 -29.833 99.5 -41.5s78.5 -17.5 126.5 -17.5zM592.002 839.998
c-14 0 -27.332 -3.5 -39.999 -10.5s-24 -17.833 -34 -32.5s-18 -33.667 -24 -57s-9 -51 -9 -83c0 -47.333 9 -95.666 27 -144.999s44 -95.666 78 -138.999c34 43.333 60.5 89.5 79.5 138.5s28.5 95.5 28.5 139.5c0 36 -3.16699 66.167 -9.5 90.5s-14.5 43.666 -24.5 57.999
s-21.333 24.666 -34 30.999s-25.334 9.5 -38.001 9.5z" />
    <glyph glyph-name="uni19B9" unicode="&#x19b9;" horiz-adv-x="1354" 
d="M670 -25c-88 0 -167.666 19.5 -238.999 58.5s-132.166 97.5 -182.499 175.5s-89 175.667 -116 293s-40.5 254.333 -40.5 411c0 169.333 13.5 315.5 40.5 438.5s65.833 224.333 116.5 304s112.5 138.667 185.5 177s155.5 57.5 247.5 57.5
c88.667 0 168.667 -18.5 240 -55.5s132.166 -94.167 182.499 -171.5s89.166 -175.833 116.499 -295.5s41 -262.167 41 -427.5c0 -162 -14 -303.5 -42 -424.5s-67.833 -221.5 -119.5 -301.5s-114 -139.833 -187 -179.5s-154.167 -59.5 -243.5 -59.5zM668.001 827
c-50 0 -97.167 -9.99805 -141.5 -29.998s-80.5 -50 -108.5 -90c2 -77.333 10.167 -146.333 24.5 -207s33 -111.834 56 -153.501s49.5 -73.334 79.5 -95.001s62 -32.5 96 -32.5s65.5 10.667 94.5 32s54.5 52.666 76.5 93.999s39.5 92.333 52.5 153s20.5 130.334 22.5 209.001
c-12 19.333 -27.167 36.5 -45.5 51.5s-38.5 27.5 -60.5 37.5s-45.5 17.667 -70.5 23s-50.167 8 -75.5 8zM408.001 952.002c17.333 26 42.5 48.168 75.5 66.501s70.5 31.833 112.5 40.5v565c-60 -34 -106.333 -107.333 -139 -220s-49 -263.334 -49 -452.001zM936.001 954.003
c0 188.667 -14.498 337.832 -43.498 447.499s-71.167 182.5 -126.5 218.5v-563c37.333 -8.66699 70.666 -21.667 99.999 -39s52.666 -38.666 69.999 -63.999z" />
    <glyph glyph-name="uni19BA" unicode="&#x19ba;" horiz-adv-x="981" 
d="M594 1407c0 43.333 -5.82715 80.6699 -17.4941 112.003s-27.334 57 -47.001 77s-42.5 34.833 -68.5 44.5s-53.333 14.5 -82 14.5c-45.333 0 -92.333 -7.5 -141 -22.5s-94.667 -37.5 -138 -67.5v250c21.333 12 45.166 22.667 71.499 32s53.666 17.166 81.999 23.499
s57 11.166 86 14.499s56.5 5 82.5 5c84 0 156.667 -12.167 218 -36.5s111.833 -59.333 151.5 -105s69.167 -100.834 88.5 -165.501s29 -137.667 29 -219v-631c-65.333 49.333 -139 74 -221 74c-44.667 0 -85.334 -6.83301 -122.001 -20.5s-67.667 -33.334 -93 -59.001
s-45 -57 -59 -94s-21 -78.833 -21 -125.5c0 -44.667 6.5 -85 19.5 -121s31.833 -66.667 56.5 -92s54.5 -44.666 89.5 -57.999s74.833 -20 119.5 -20c78.667 0 155.667 24.667 231 74v-254c-71.333 -41.333 -174.333 -62 -309 -62c-78 0 -149.5 12.5 -214.5 37.5
s-120.667 60 -167 105s-82.333 98.833 -108 161.5s-38.5 132 -38.5 208c0 82.667 12.333 157.167 37 223.5s59.667 123.5 105 171.5s100.166 86 164.499 114s136.166 45 215.499 51v360z" />
    <glyph glyph-name="uni19BB" unicode="&#x19bb;" horiz-adv-x="1669" 
d="M594 23c-38 -15.333 -78.8311 -27.167 -122.498 -35.5s-89.5 -12.5 -137.5 -12.5c-60.667 0 -112.5 4.16699 -155.5 12.5s-78.5 20.166 -106.5 35.499v268c65.333 -49.333 139 -74 221 -74c45.333 0 86.166 6.83301 122.499 20.5s67.166 33.334 92.499 59.001
s45 57 59 94s21 78.833 21 125.5c0 45.333 -6.5 85.833 -19.5 121.5s-31.667 66.167 -56 91.5s-54.166 44.666 -89.499 57.999s-75.333 20 -120 20c-78.667 0 -155.667 -24.667 -231 -74v254c71.333 41.333 174.333 62 309 62c78 0 149.333 -12.5 214 -37.5
s120.167 -60.167 166.5 -105.5s82.5 -99.333 108.5 -162s39 -131.667 39 -207v-2v-848c0 -75.333 14.333 -131.833 43 -169.5s67 -56.5 115 -56.5c49.333 0 87.333 18.667 114 56s40 93.333 40 168v1339h315v-1364c0 -140.667 -40 -249.167 -120 -325.5
s-196.333 -114.5 -349 -114.5c-74 0 -140.333 9.66699 -199 29s-108.334 47.833 -149.001 85.5s-71.667 83.834 -93 138.501s-32 117 -32 187v363z" />
    <glyph glyph-name="uni19BC" unicode="&#x19bc;" horiz-adv-x="1866" 
d="M791 156l-4.99805 -0.000976562c-76.667 -120.667 -181 -181 -313 -181c-237.333 0 -356 143.667 -356 431v618h315v-590c0 -144.667 57.333 -217 172 -217c56.667 0 102 19.667 136 59s51 93.333 51 162v586h315v-1337c0 -75.333 14.167 -131.833 42.5 -169.5
s66.833 -56.5 115.5 -56.5c49.333 0 87.166 18.667 113.499 56s39.5 93.333 39.5 168v1339h316v-1364c0 -140.667 -40 -249.167 -120 -325.5s-196.333 -114.5 -349 -114.5c-74 0 -140.333 9.66699 -199 29s-108.334 47.833 -149.001 85.5s-71.667 83.834 -93 138.501
s-32 117 -32 187v496z" />
    <glyph glyph-name="uni19BD" unicode="&#x19bd;" horiz-adv-x="1939" 
d="M864 16c-36 -13.333 -74.165 -23.501 -114.498 -30.501s-83.166 -10.5 -128.499 -10.5c-84.667 0 -160.834 12.333 -228.501 37s-125.167 60 -172.5 106s-83.833 101.833 -109.5 167.5s-38.5 139.834 -38.5 222.501c0 85.333 13.333 161.5 40 228.5
s64.667 123.667 114 170s108.666 81.666 177.999 105.999s146.333 36.5 231 36.5s160.667 -12.667 228 -38s124.5 -60.833 171.5 -106.5s83 -100.667 108 -165s37.5 -135.5 37.5 -213.5v-839c0 -75.333 14.167 -131.833 42.5 -169.5s66.5 -56.5 114.5 -56.5
c50 0 88.167 18.667 114.5 56s39.5 93.333 39.5 168v1339h315v-1364c0 -140.667 -40 -249.167 -120 -325.5s-196.333 -114.5 -349 -114.5c-74 0 -140.333 9.66699 -199 29s-108.334 47.833 -149.001 85.5s-71.667 83.834 -93 138.501s-32 117 -32 187v356zM629.002 806.999
c-75.333 0 -133.5 -25.5 -174.5 -76.5s-61.5 -123.833 -61.5 -218.5c0 -196.667 79.333 -295 238 -295c151.333 0 227 101 227 303c0 191.333 -76.333 287 -229 287z" />
    <glyph glyph-name="uni19BE" unicode="&#x19be;" horiz-adv-x="1622" 
d="M915 -20c-64 0 -123.83 6.66992 -179.497 20.0029s-107.5 32.333 -155.5 57c-48.667 -24.667 -100.834 -43.667 -156.501 -57s-115.5 -20 -179.5 -20c-24 0 -48 1.83301 -72 5.5s-46.333 8.33398 -67 14.001s-39.167 12.167 -55.5 19.5s-29.5 14.666 -39.5 21.999v213
c30 -16.667 63 -30.667 99 -42s78.333 -17 127 -17c23.333 0 46 1.83301 68 5.5s43.667 9.16699 65 16.5c-32.667 34.667 -61.5 71 -86.5 109s-45.833 76.167 -62.5 114.5s-29.167 76 -37.5 113s-12.5 71.5 -12.5 103.5c0 50 7 98.667 21 146s37 89.166 69 125.499
s74.5 65.5 127.5 87.5s118.5 33 196.5 33c69.333 0 129.666 -9.83301 180.999 -29.5s93.833 -47 127.5 -82s58.834 -76.5 75.501 -124.5s25 -100 25 -156c0 -32 -4.33301 -66.5 -13 -103.5s-21.334 -74.667 -38.001 -113s-37.5 -76.5 -62.5 -114.5
s-53.833 -74.333 -86.5 -109c42.667 -14.667 87 -22 133 -22c52 0 95.167 7.83301 129.5 23.5s62 38.5 83 68.5s35.833 66.5 44.5 109.5s13 91.833 13 146.5v966c0 125.333 28.5 220.166 85.5 284.499s147.833 96.5 272.5 96.5c45.333 0 81.666 -1.66699 108.999 -5
s50.666 -7.66602 69.999 -12.999v-225c-13.333 4 -27.5 7 -42.5 9s-29.5 3 -43.5 3c-26 0 -47.833 -4.33301 -65.5 -13s-31.667 -21.334 -42 -38.001s-17.666 -37.167 -21.999 -61.5s-6.5 -52.5 -6.5 -84.5v-923c0 -92 -9.66699 -173 -29 -243s-52 -128.333 -98 -175
s-107.167 -81.834 -183.5 -105.501s-171.5 -35.5 -285.5 -35.5zM475.003 657.003c0 -47.333 9.00098 -95.666 27.001 -144.999s44 -95.666 78 -138.999c34 43.333 60.5 89.5 79.5 138.5s28.5 95.5 28.5 139.5c0 36 -3.16699 66.167 -9.5 90.5s-14.5 43.666 -24.5 57.999
s-21.333 24.666 -34 30.999s-25.334 9.5 -38.001 9.5c-14 0 -27.5 -3.5 -40.5 -10.5s-24.333 -17.833 -34 -32.5s-17.5 -33.667 -23.5 -57s-9 -51 -9 -83z" />
    <glyph glyph-name="uni19BF" unicode="&#x19bf;" horiz-adv-x="2021" 
d="M670 -25c-88 0 -167.665 19.499 -238.998 58.499s-132.166 97.5 -182.499 175.5s-89 175.667 -116 293s-40.5 254.333 -40.5 411c0 169.333 13.5 315.5 40.5 438.5s65.833 224.333 116.5 304s112.5 138.667 185.5 177s155.5 57.5 247.5 57.5
c88.667 0 168.667 -18.5 240 -55.5s132.166 -94.167 182.499 -171.5s89.166 -175.833 116.499 -295.5s41 -262.167 41 -427.5v-1253c0 -75.333 14.167 -131.833 42.5 -169.5s66.5 -56.5 114.5 -56.5c50 0 88.167 18.667 114.5 56s39.5 93.333 39.5 168v1339h315v-1364
c0 -140.667 -40 -249.167 -120 -325.5s-196.333 -114.5 -349 -114.5c-74 0 -140.333 9.66699 -199 29s-108.334 47.833 -149.001 85.5s-71.667 83.834 -93 138.501s-32 117 -32 187v395c-80.667 -53.333 -172.667 -80 -276 -80zM668.002 826.999
c-50 0 -97.167 -9.99805 -141.5 -29.998s-80.5 -50 -108.5 -90c2 -77.333 10.167 -146.333 24.5 -207s33 -111.834 56 -153.501s49.5 -73.334 79.5 -95.001s62 -32.5 96 -32.5s65.5 10.667 94.5 32s54.5 52.666 76.5 93.999s39.5 92.333 52.5 153s20.5 130.334 22.5 209.001
c-12 19.333 -27.167 36.5 -45.5 51.5s-38.5 27.5 -60.5 37.5s-45.5 17.667 -70.5 23s-50.167 8 -75.5 8zM408.002 952.001c17.333 26 42.5 48.168 75.5 66.501s70.5 31.833 112.5 40.5v565c-60 -34 -106.333 -107.333 -139 -220s-49 -263.334 -49 -452.001zM936.002 954.002
c0 188.667 -14.498 337.832 -43.498 447.499s-71.167 182.5 -126.5 218.5v-563c37.333 -8.66699 70.666 -21.667 99.999 -39s52.666 -38.666 69.999 -63.999z" />
    <glyph glyph-name="uni19C0" unicode="&#x19c0;" horiz-adv-x="2021" 
d="M670 -25c-88 0 -167.665 19.499 -238.998 58.499s-132.166 97.5 -182.499 175.5s-89 175.667 -116 293s-40.5 254.333 -40.5 411c0 169.333 13.5 315.5 40.5 438.5s65.833 224.333 116.5 304s112.5 138.667 185.5 177s155.5 57.5 247.5 57.5
c88.667 0 168.667 -18.5 240 -55.5s132.166 -94.167 182.499 -171.5s89.166 -175.833 116.499 -295.5s41 -262.167 41 -427.5v-1253c0 -75.333 14.167 -131.833 42.5 -169.5s66.5 -56.5 114.5 -56.5c50 0 88.167 18.667 114.5 56s39.5 93.333 39.5 168v1339h315v-1364
c0 -140.667 -40 -249.167 -120 -325.5s-196.333 -114.5 -349 -114.5c-74 0 -140.333 9.66699 -199 29s-108.334 47.833 -149.001 85.5s-71.667 83.834 -93 138.501s-32 117 -32 187v395c-80.667 -53.333 -172.667 -80 -276 -80zM676.002 1647
c-41.333 0 -78.665 -14.833 -111.998 -44.5s-61.5 -73.834 -84.5 -132.501s-40.667 -131.167 -53 -217.5s-18.5 -186.5 -18.5 -300.5c12 17.333 27.167 33 45.5 47s39.166 26 62.499 36s48.666 17.833 75.999 23.5s56 8.5 86 8.5c57.333 0 108.833 -10.333 154.5 -31
s80.167 -48 103.5 -82c0 234.667 -22.333 408.834 -67 522.501s-109 170.5 -193 170.5zM668.003 826.999c-50 0 -97.167 -9.99805 -141.5 -29.998s-80.5 -50 -108.5 -90c2 -77.333 10.167 -146.333 24.5 -207s33 -111.834 56 -153.501s49.5 -73.334 79.5 -95.001
s62 -32.5 96 -32.5s65.5 10.667 94.5 32s54.5 52.666 76.5 93.999s39.5 92.333 52.5 153s20.5 130.334 22.5 209.001c-12 19.333 -27.167 36.5 -45.5 51.5s-38.5 27.5 -60.5 37.5s-45.5 17.667 -70.5 23s-50.167 8 -75.5 8z" />
    <glyph glyph-name="uni19C1" unicode="&#x19c1;" horiz-adv-x="1251" 
d="M621 -25c-84.667 0 -160.832 12.3311 -228.499 36.998s-125.167 60 -172.5 106s-83.833 101.833 -109.5 167.5s-38.5 139.834 -38.5 222.501c0 85.333 13.333 161.5 40 228.5s64.667 123.667 114 170s108.666 81.666 177.999 105.999s146.333 36.5 231 36.5
s160.667 -12.667 228 -38s124.5 -61.5 171.5 -108.5s83 -103.667 108 -170s37.5 -140.5 37.5 -222.5v-215c0 -158 -12.833 -302.833 -38.5 -434.5s-62.667 -245 -111 -340s-107.5 -168.833 -177.5 -221.5s-149 -79 -237 -79c-48.667 0 -89.667 6.33301 -123 19
s-60.166 29.334 -80.499 50.001s-34.833 43.667 -43.5 69s-13 51 -13 77c0 64.667 18.833 115.667 56.5 153s89.834 56 156.501 56c50.667 0 93.667 -11.167 129 -33.5s60.666 -53.5 75.999 -93.5c10 16 19 36.667 27 62s14.833 57.5 20.5 96.5s10.5 85.833 14.5 140.5
s7.33301 119.334 10 194.001c-34 -11.333 -69.833 -20 -107.5 -26s-76.834 -9 -117.501 -9zM629.002 806.998c-75.333 0 -133.5 -25.5 -174.5 -76.5s-61.5 -123.833 -61.5 -218.5c0 -196.667 79.333 -295 238 -295c151.333 0 227 101 227 303
c0 191.333 -76.333 287 -229 287zM578.002 -651.002c22.667 0 40.5 7 53.5 21s19.5 33.667 19.5 59c0 24.667 -6.83301 44 -20.5 58s-32.167 21 -55.5 21c-25.333 0 -44.5 -6.66699 -57.5 -20s-19.5 -32.333 -19.5 -57c0 -26 7 -46.167 21 -60.5s33.667 -21.5 59 -21.5z" />
    <glyph glyph-name="uni19C2" unicode="&#x19c2;" horiz-adv-x="1395" 
d="M920 -483c25.333 38.667 43.9971 120.168 55.9971 244.501s19 286.5 21 486.5c0 98 -5 182.667 -15 254s-26.833 130.333 -50.5 177s-55 81.334 -94 104.001s-87.5 34 -145.5 34c-57.333 0 -105.333 -9.5 -144 -28.5s-69.834 -45.667 -93.501 -80
s-40.5 -75.833 -50.5 -124.5s-15 -102.667 -15 -162c0 -148.667 24.667 -223 74 -223c8.66699 0 17.834 4.66699 27.501 14s20.334 21 32.001 35l38.5 46c14 16.667 29.5 32 46.5 46s35.667 25.667 56 35s42.833 14 67.5 14c58 0 103.167 -22.333 135.5 -67
s48.5 -111.667 48.5 -201c0 -11.333 -0.333008 -23.5 -1 -36.5s-1.5 -25.667 -2.5 -38s-2.33301 -24.166 -4 -35.499s-3.16699 -21 -4.5 -29h-211c3.33301 17.333 5.83301 35.666 7.5 54.999s2.5 35.666 2.5 48.999c0 28.667 -2.33301 49.5 -7 62.5s-11.667 19.5 -21 19.5
c-8 0 -16.5 -4.66699 -25.5 -14s-19.167 -21.166 -30.5 -35.499l-37.5 -46c-13.667 -16.333 -29.5 -31.666 -47.5 -45.999s-38.333 -26.166 -61 -35.499s-48.334 -14 -77.001 -14c-48 0 -91.833 7.66699 -131.5 23s-73.667 40.666 -102 75.999s-50.333 81.666 -66 138.999
s-23.5 127.666 -23.5 210.999c0 87.333 10.5 168.833 31.5 244.5s55.667 141.5 104 197.5s111.666 100.167 189.999 132.5s174.5 48.5 288.5 48.5c123.333 0 226 -18.167 308 -54.5s147.333 -88.833 196 -157.5s83 -152.834 103 -252.501s30 -213.167 30 -340.5
c0 -154 -12.667 -294 -38 -420s-62.166 -233.833 -110.499 -323.5s-107.166 -158.834 -176.499 -207.501s-148 -73 -236 -73c-49.333 0 -90.666 6.33301 -123.999 19s-60 29.334 -80 50.001s-34.333 43.667 -43 69s-13 51 -13 77c0 64.667 18.833 115.667 56.5 153
s89.834 56 156.501 56c50 0 92.833 -11.167 128.5 -33.5s61.167 -53.5 76.5 -93.5zM722.997 -650.999c22.667 0 40.666 7 53.999 21s20 33.667 20 59c0 24.667 -7 44 -21 58s-32.333 21 -55 21c-25.333 0 -44.666 -6.66699 -57.999 -20s-20 -32.333 -20 -57
c0 -26 7.16699 -46.167 21.5 -60.5s33.833 -21.5 58.5 -21.5z" />
    <glyph glyph-name="uni19C3" unicode="&#x19c3;" horiz-adv-x="1094" 
d="M594 -780c-34.667 0 -70.498 1.50391 -107.498 4.50391s-72.833 8.5 -107.5 16.5s-67.5 19.333 -98.5 34s-58.167 33.667 -81.5 57s-41.833 51.333 -55.5 84s-20.5 71.667 -20.5 117c0 64.667 18.833 115.667 56.5 153s89.834 56 156.501 56c34 0 64.5 -5 91.5 -15
s50.167 -24.5 69.5 -43.5s34.166 -41.833 44.499 -68.5s15.5 -56.667 15.5 -90c0 -22.667 -2.33301 -43.334 -7 -62.001s-11.334 -36.334 -20.001 -53.001c41.333 0 76.666 9.5 105.999 28.5s53.5 43.333 72.5 73s33 62.667 42 99s13.5 71.833 13.5 106.5
c0 32.667 -2.66699 64.5 -8 95.5s-14.833 58.5 -28.5 82.5s-32.5 43.333 -56.5 58s-55 22 -93 22c-48 0 -93 0.833008 -135 2.5s-80.667 6.33398 -116 14.001s-66.833 19.167 -94.5 34.5s-51.167 36.333 -70.5 63s-34.166 60.167 -44.499 100.5s-15.5 89.166 -15.5 146.499
v272c0 85.333 11.5 156.333 34.5 213s56.667 101.834 101 135.501s98.666 57.5 162.999 71.5s137.833 21 220.5 21c29.333 0 58.666 -1.33301 87.999 -4s57.666 -6.66699 84.999 -12s53.5 -12 78.5 -20s47.5 -17.333 67.5 -28v-264c-40.667 27.333 -84.667 48.5 -132 63.5
s-103.666 22.5 -168.999 22.5c-39.333 0 -72.666 -4 -99.999 -12s-49.5 -21 -66.5 -39s-29.333 -41.333 -37 -70s-11.5 -63.334 -11.5 -104.001v-199c0 -38.667 5.16699 -69 15.5 -91s26.5 -38.5 48.5 -49.5s50.5 -18 85.5 -21s77.167 -4.5 126.5 -4.5
c58.667 0 112.167 -9.83301 160.5 -29.5s89.833 -49.334 124.5 -89.001s61.5 -89.334 80.5 -149.001s28.5 -129.5 28.5 -209.5s-10.167 -152.167 -30.5 -216.5s-51 -119 -92 -164s-92.833 -79.5 -155.5 -103.5s-136.667 -36 -222 -36zM344.002 -552.996
c22.667 0 40.666 7.33496 53.999 22.002s20 34.667 20 60c0 23.333 -7 42.166 -21 56.499s-32.333 21.5 -55 21.5c-25.333 0 -44.666 -6.83301 -57.999 -20.5s-20 -32.167 -20 -55.5c0 -26.667 7.16699 -47.334 21.5 -62.001s33.833 -22 58.5 -22z" />
    <glyph glyph-name="uni19C4" unicode="&#x19c4;" horiz-adv-x="1300" 
d="M651 213c35.333 0 67.333 5.66699 96 17s51.334 24 68.001 38c-4.66699 10 -11.834 20 -21.501 30s-21.167 19.167 -34.5 27.5s-28.666 15.166 -45.999 20.499s-36.666 8 -57.999 8c-19.333 0 -38.333 -2.16699 -57 -6.5s-36.334 -10.166 -53.001 -17.499
s-32 -16 -46 -26s-26 -20.667 -36 -32c8.66699 -8 20.167 -15.5 34.5 -22.5s30 -13.333 47 -19s34.667 -10 53 -13s36.166 -4.5 53.499 -4.5zM907 -111c0 9.33301 -0.337891 20.3301 -1.00488 32.9971s-1.66699 25.334 -3 38.001s-3 24.667 -5 36s-4.33301 20.333 -7 27
c-32 -13.333 -69 -24.666 -111 -33.999s-85 -14 -129 -14c-102 0 -189.667 13.667 -263 41s-133.333 65.166 -180 113.499s-81 105.833 -103 172.5s-33 139.334 -33 218.001c0 79.333 7.66699 150.666 23 213.999s41.333 118.166 78 164.499s85.5 83.666 146.5 111.999
s136.833 47.166 227.5 56.499v-256c-21.333 -4 -41.166 -12.333 -59.499 -25s-34.166 -30.667 -47.499 -54s-23.833 -53 -31.5 -89s-11.5 -79 -11.5 -129v-31c19.333 16.667 40.333 30.5 63 41.5s45.834 20 69.501 27s46.5 12 68.5 15s41.667 4.5 59 4.5
c43.333 0 86.5 -5.33301 129.5 -16s81.833 -28.334 116.5 -53.001v10c0 50.667 -3.66699 94 -11 130s-17.5 65.833 -30.5 89.5s-28.667 41.834 -47 54.501s-38.5 21 -60.5 25v256c86.667 -9.33301 160.167 -28.166 220.5 -56.499s109.333 -65.666 147 -111.999
s65 -101.166 82 -164.499s25.5 -134.666 25.5 -213.999c0 -60.667 -6.16699 -116.334 -18.5 -167.001s-30.833 -98 -55.5 -142c18.667 -41.333 35 -87.166 49 -137.499s21 -104.833 21 -163.5c0 -115.333 -14 -216.166 -42 -302.499s-67.5 -158.166 -118.5 -215.499
s-112 -100.333 -183 -129s-149.167 -43 -234.5 -43c-34.667 0 -70.5 1.5 -107.5 4.5s-73 8.5 -108 16.5s-68.167 19.333 -99.5 34s-58.666 33.667 -81.999 57s-41.833 51.333 -55.5 84s-20.5 71.667 -20.5 117c0 64.667 18.833 115.667 56.5 153s89.834 56 156.501 56
c34 0 64.5 -5 91.5 -15s50.167 -24.5 69.5 -43.5s34.166 -41.833 44.499 -68.5s15.5 -56.667 15.5 -90c0 -22.667 -2.33301 -43.334 -7 -62.001s-11 -36.334 -19 -53.001c46.667 0 89.834 8.33301 129.501 25s74 43.834 103 81.501s51.667 87 68 148
s24.5 135.833 24.5 224.5zM394.995 -553.003c22.667 0 40.666 7.33496 53.999 22.002s20 34.667 20 60c0 23.333 -7 42.166 -21 56.499s-32.333 21.5 -55 21.5c-25.333 0 -44.666 -6.83301 -57.999 -20.5s-20 -32.167 -20 -55.5c0 -26.667 7.16699 -47.334 21.5 -62.001
s33.833 -22 58.5 -22z" />
    <glyph glyph-name="uni19C5" unicode="&#x19c5;" horiz-adv-x="1868" 
d="M1448 -12c-18.667 -4 -37.333 -7.16895 -56 -9.50195s-38.334 -3.5 -59.001 -3.5c-66 0 -121.833 5.33301 -167.5 16s-86.167 24.667 -121.5 42v241c17.333 -8.66699 34.5 -16.834 51.5 -24.501s35 -14.334 54 -20.001s39 -10.167 60 -13.5s43.833 -5 68.5 -5
c23.333 0 46 4.83301 68 14.5s41.5 26 58.5 49s30.5 53.167 40.5 90.5s15 83.666 15 138.999c0 101.333 -16 178.5 -48 231.5s-83.667 79.5 -155 79.5c-24.667 0 -47.834 -4.66699 -69.501 -14s-40.667 -24 -57 -44s-29.333 -45.333 -39 -76s-14.5 -67.334 -14.5 -110.001
h-299c0 42.667 -4.83301 79.334 -14.5 110.001s-22.667 56 -39 76s-35.333 34.667 -57 44s-44.834 14 -69.501 14c-70.667 0 -122.167 -26.5 -154.5 -79.5s-48.5 -130.167 -48.5 -231.5c0 -55.333 5 -101.666 15 -138.999s23.5 -67.5 40.5 -90.5s36.5 -39.333 58.5 -49
s45 -14.5 69 -14.5c24.667 0 47.5 1.66699 68.5 5s40.833 7.83301 59.5 13.5s36.667 12.334 54 20.001s34.333 15.834 51 24.501v-241c-35.333 -17.333 -75.833 -31.333 -121.5 -42s-101.5 -16 -167.5 -16c-69.333 0 -131.833 12 -187.5 36s-103 58.667 -142 104
s-68.833 100.833 -89.5 166.5s-31 139.834 -31 222.501c0 87.333 10.833 165 32.5 233s53.334 125.333 95.001 172s93 82 154 106s130.833 36 209.5 36c50 0 94.5 -4.5 133.5 -13.5s73.5 -21.5 103.5 -37.5s55.5 -34.833 76.5 -56.5s38.167 -44.834 51.5 -69.501
c13.333 24.667 30.5 47.834 51.5 69.501s46.833 40.5 77.5 56.5s66.5 28.5 107.5 37.5s87.833 13.5 140.5 13.5c74.667 0 141.5 -11.833 200.5 -35.5s109 -58.167 150 -103.5s72.5 -101.333 94.5 -168s33.333 -142.667 34 -228v-221c0 -158 -12.833 -302.833 -38.5 -434.5
s-62.667 -245 -111 -340s-107.333 -168.833 -177 -221.5s-148.5 -79 -236.5 -79c-49.333 0 -90.666 6.33301 -123.999 19s-60 29.334 -80 50.001s-34.333 43.667 -43 69s-13 51 -13 77c0 64.667 18.667 115.667 56 153s89.666 56 156.999 56c50 0 92.667 -11.167 128 -33.5
s60.666 -53.5 75.999 -93.5c10 16 18.833 35.667 26.5 59s14.334 53 20.001 89s10.334 80.167 14.001 132.5s6.83398 115.833 9.50098 190.5zM1182 -651.002c22.667 0 40.501 7 53.501 21s19.5 33.667 19.5 59c0 24.667 -6.83301 44 -20.5 58s-31.834 21 -54.501 21
c-26 0 -45.5 -6.66699 -58.5 -20s-19.5 -32.333 -19.5 -57c0 -26 7.16699 -46.167 21.5 -60.5s33.833 -21.5 58.5 -21.5z" />
    <glyph glyph-name="uni19C6" unicode="&#x19c6;" horiz-adv-x="1018" 
d="M975 -260c0 -80 -10.166 -152.162 -30.499 -216.495s-51 -119 -92 -164s-92.833 -79.5 -155.5 -103.5s-136.667 -36 -222 -36c-34.667 0 -70.5 1.5 -107.5 4.5s-72.833 8.5 -107.5 16.5s-67.5 19.333 -98.5 34s-58.167 33.667 -81.5 57s-41.833 51.333 -55.5 84
s-20.5 71.667 -20.5 117c0 64.667 18.833 115.667 56.5 153s89.834 56 156.501 56c34 0 64.5 -5 91.5 -15s50.167 -24.5 69.5 -43.5s34.166 -41.833 44.499 -68.5s15.5 -56.667 15.5 -90c0 -22.667 -2.33301 -43.334 -7 -62.001s-11 -36.334 -19 -53.001
c40.667 0 75.667 9.5 105 28.5s53.5 43.333 72.5 73s33 62.667 42 99s13.5 71.833 13.5 106.5c0 34 -2.33301 67.833 -7 101.5s-14.667 64 -30 91s-37 48.833 -65 65.5s-65.667 25 -113 25h-37v215h10c34 0 64.333 7.33301 91 22s49.167 35.167 67.5 61.5
s32.333 58.166 42 95.499s14.5 78.666 14.5 123.999c0 43.333 -5.16699 83 -15.5 119s-25.833 66.833 -46.5 92.5s-46.667 45.667 -78 60s-68.333 21.5 -111 21.5c-62 0 -116.167 -6.83301 -162.5 -20.5s-88.5 -32.834 -126.5 -57.501v254
c72.667 41.333 176.334 62 311.001 62c83.333 0 159.166 -12 227.499 -36s126.833 -58.833 175.5 -104.5s86.167 -101.667 112.5 -168s39.5 -141.833 39.5 -226.5c0 -52 -5 -99.333 -15 -142s-24 -80.5 -42 -113.5s-39.167 -61.333 -63.5 -85s-50.5 -42.5 -78.5 -56.5
c43.333 -12 79.666 -30.5 108.999 -55.5s53 -54.167 71 -87.5s30.833 -70 38.5 -110s11.5 -81.333 11.5 -124zM225.001 -552.995c22.667 0 40.666 7.33496 53.999 22.002s20 34.667 20 60c0 23.333 -7 42.166 -21 56.499s-32.333 21.5 -55 21.5
c-25.333 0 -44.666 -6.83301 -57.999 -20.5s-20 -32.167 -20 -55.5c0 -26.667 7.16699 -47.334 21.5 -62.001s33.833 -22 58.5 -22z" />
    <glyph glyph-name="uni19C7" unicode="&#x19c7;" horiz-adv-x="1300" 
d="M895 8c-35.333 -10 -73.335 -18.002 -114.002 -24.002s-84 -9 -130 -9c-102 0 -189.667 13.667 -263 41s-133.333 65.166 -180 113.499s-81 105.833 -103 172.5s-33 139.334 -33 218.001c0 79.333 7.66699 150.666 23 213.999s41.333 118.166 78 164.499
s85.5 83.666 146.5 111.999s136.833 47.166 227.5 56.499v-256c-21.333 -4 -41.166 -12.333 -59.499 -25s-34.166 -30.667 -47.499 -54s-23.833 -53 -31.5 -89s-11.5 -79 -11.5 -129c0 -39.333 3.83301 -77.166 11.5 -113.499s21.167 -68.333 40.5 -96
s45.333 -49.834 78 -66.501s74 -25 124 -25c48 0 88 7.66699 120 23s57.833 36.5 77.5 63.5s33.667 58.667 42 95s12.5 75.5 12.5 117.5c0 50.667 -3.66699 94 -11 130s-17.5 65.833 -30.5 89.5s-28.667 41.834 -47 54.501s-38.5 21 -60.5 25v256
c86.667 -9.33301 160.167 -28.166 220.5 -56.499s109.333 -65.666 147 -111.999s65 -101.166 82 -164.499s25.5 -134.666 25.5 -213.999v-24v-201c0 -158 -12.833 -302.833 -38.5 -434.5s-62.667 -245 -111 -340s-107.333 -168.833 -177 -221.5s-148.5 -79 -236.5 -79
c-49.333 0 -90.666 6.33301 -123.999 19s-60 29.334 -80 50.001s-34.333 43.667 -43 69s-13 51 -13 77c0 64.667 18.667 115.667 56 153s89.333 56 156 56c50.667 0 93.667 -11.167 129 -33.5s60.666 -53.5 75.999 -93.5c10 16 19 36.667 27 62s14.833 57.333 20.5 96
s10.5 85.167 14.5 139.5s7.33301 118.833 10 193.5zM626.998 -651.002c22.667 0 40.501 7 53.501 21s19.5 33.667 19.5 59c0 24.667 -6.83301 44 -20.5 58s-31.834 21 -54.501 21c-26 0 -45.5 -6.66699 -58.5 -20s-19.5 -32.333 -19.5 -57c0 -26 7.16699 -46.167 21.5 -60.5
s33.833 -21.5 58.5 -21.5z" />
    <glyph glyph-name="uni19C8" unicode="&#x19c8;" horiz-adv-x="1112" 
d="M1051 317c0 -49.333 -8.83301 -95.002 -26.5 -137.002s-45 -78.167 -82 -108.5s-84 -54 -141 -71s-124.833 -25.5 -203.5 -25.5c-79.333 0 -151.333 11.833 -216 35.5s-120 58.334 -166 104.001s-81.5 102 -106.5 169s-37.5 143.833 -37.5 230.5
c0 85.333 12.833 161.333 38.5 228s62.5 122.667 110.5 168s106.333 79.833 175 103.5s146.334 35.5 233.001 35.5c34 0 68.5 -1.5 103.5 -4.5s68.667 -7.33301 101 -13s62.666 -12.834 90.999 -21.501s53.166 -19 74.499 -31v-240c-43.333 23.333 -92.833 43.5 -148.5 60.5
s-116.5 25.5 -182.5 25.5c-50 0 -92.833 -5.5 -128.5 -16.5s-65 -27 -88 -48s-40.333 -46.333 -52 -76s-18.5 -63.167 -20.5 -100.5c38 14 81.333 24 130 30s101 9 157 9c69.333 0 128.333 -7.66699 177 -23s88.334 -36.666 119.001 -63.999s53.167 -59.666 67.5 -96.999
s21.5 -78 21.5 -122zM598 187.998c28 0 52.334 3.49805 73.001 10.498s37.5 16.167 50.5 27.5s22.667 24.333 29 39s9.5 30 9.5 46c0 15.333 -2.5 30 -7.5 44s-13.333 26.333 -25 37s-26.834 19.334 -45.501 26.001s-42 10 -70 10c-48 0 -90.333 -4.16699 -127 -12.5
s-70 -19.833 -100 -34.5c6 -26 14.833 -50.833 26.5 -74.5s26.5 -44.167 44.5 -61.5s38.833 -31.166 62.5 -41.499s50.167 -15.5 79.5 -15.5z" />
    <glyph glyph-name="uni19C9" unicode="&#x19c9;" horiz-adv-x="1112" 
d="M1051 723c0 -46 -8 -87.5029 -24 -124.503s-40 -68.667 -72 -95s-72 -46.5 -120 -60.5s-104.333 -21 -169 -21c-56 0 -107.333 2.83301 -154 8.5s-89 15.834 -127 30.501c2 -37.333 8.5 -72 19.5 -104s27.667 -59.667 50 -83s51 -41.666 86 -54.999s77.5 -20 127.5 -20
c66 0 126.833 8.5 182.5 25.5s105.167 37.167 148.5 60.5v-240c-21.333 -12 -46.166 -22.333 -74.499 -31s-58.666 -15.834 -90.999 -21.501s-66 -10 -101 -13s-69.5 -4.5 -103.5 -4.5c-86.667 0 -164.334 11.833 -233.001 35.5s-127 58.334 -175 104.001
s-84.833 101.667 -110.5 168s-38.5 142.166 -38.5 227.499c0 86.667 12.5 163.5 37.5 230.5s60.5 123.333 106.5 169s101.333 80.334 166 104.001s136.667 35.5 216 35.5c72.667 0 137.167 -7.66699 193.5 -23s103.666 -37.166 141.999 -65.499s67.5 -62.5 87.5 -102.5
s30 -85 30 -135zM592 835.997c-58.667 0 -104.998 -15.666 -138.998 -46.999s-56.667 -73 -68 -125c30 -14.667 62 -26.334 96 -35.001s75.667 -13 125 -13c31.333 0 57 3.16699 77 9.5s35.667 14.666 47 24.999s19.166 22.333 23.499 36s6.5 27.834 6.5 42.501
c0 32 -13.833 57.833 -41.5 77.5s-69.834 29.5 -126.501 29.5z" />
    <glyph glyph-name="uni19D0" unicode="&#x19d0;" horiz-adv-x="1354" 
d="M672 -25c-92 0 -175 12.332 -249 36.999s-137 60 -189 106s-92 101.833 -120 167.5s-42 139.834 -42 222.501c0 85.333 14.667 161.5 44 228.5s70.666 123.667 123.999 170s117.833 81.666 193.5 105.999s159.834 36.5 252.501 36.5s175.834 -12.667 249.501 -38
s136.167 -60.833 187.5 -106.5s90.666 -100.667 117.999 -165s41 -135.5 41 -213.5c0 -84.667 -14.167 -161.167 -42.5 -229.5s-68.833 -126.166 -121.5 -173.499s-116.667 -83.833 -192 -109.5s-160 -38.5 -254 -38.5zM680 806.999
c-91.333 0 -162.001 -25.5 -212.001 -76.5s-75 -123.833 -75 -218.5c0 -99.333 24.333 -173.333 73 -222s121.334 -73 218.001 -73c184.667 0 277 101 277 303c0 191.333 -93.667 287 -281 287z" />
    <glyph glyph-name="uni19D1" unicode="&#x19d1;" horiz-adv-x="981" 
d="M72 987c71.333 41.333 174.334 62.001 309.001 62.001c78 0 149.333 -12.5 214 -37.5s120.167 -60.167 166.5 -105.5s82.5 -99.333 108.5 -162s39 -131.667 39 -207c0 -87.333 -13.667 -165.666 -41 -234.999s-66.166 -128.333 -116.499 -177
s-110.833 -85.834 -181.5 -111.501s-149.334 -38.5 -236.001 -38.5c-60.667 0 -112.5 4.16699 -155.5 12.5s-78.5 20.166 -106.5 35.499v268c65.333 -49.333 139 -74 221 -74c45.333 0 86.166 6.83301 122.499 20.5s67.166 33.334 92.499 59.001s45 57 59 94
s21 78.833 21 125.5c0 45.333 -6.5 85.833 -19.5 121.5s-31.667 66.167 -56 91.5s-54.166 44.666 -89.499 57.999s-75.333 20 -120 20c-78.667 0 -155.667 -24.667 -231 -74v254z" />
    </font>
</defs>
</svg>
